<svg width="1154" height="370" viewBox="0 0 1154 370" fill="none" xmlns="http://www.w3.org/2000/svg">
<g clip-path="url(#clip0_2116_362)">
<path opacity="0.2" d="M80.2529 66.0735C138.03 59.0066 195.945 58.4522 252.053 64.2717L252.058 64.2727C284.554 67.3209 315.94 72.5848 345.102 79.512V79.5129C386.657 89.4686 422.685 102.51 455.045 119.293L456.583 120.095C489.897 137.544 514.442 155.95 533.709 177.939C551.448 198.264 561.962 219.12 565.835 241.615C571.091 272.113 563.904 301.653 544.238 329.564C526.644 354.581 501.973 375.334 466.58 394.997C435.63 412.029 400.924 425.603 360.376 436.409C305.521 450.403 245.527 458.161 191.371 458.3H190.401C128.027 458.023 78.7247 453.449 30.6787 443.613C-14.4551 434.33 -53.6063 421.586 -89.002 404.552L-89.0039 404.551C-125.237 387.238 -151.865 368.83 -172.937 346.7C-196.363 322.084 -209.226 296.394 -211.992 267.964V267.963L-212.085 266.974C-213.931 246.193 -209.615 225.416 -199.122 205.294V205.293C-188.876 185.54 -173.639 167.705 -152.42 150.824C-121.625 126.329 -84.714 107.497 -36.1133 91.5647H-36.1123C0.264418 79.5133 38.4503 71.2001 80.2529 66.0735Z" stroke="white"/>
<path opacity="0.2" d="M1270.25 -232.927C1328.03 -239.993 1385.94 -240.548 1442.05 -234.728L1442.06 -234.727C1474.55 -231.679 1505.94 -226.415 1535.1 -219.488V-219.487C1576.66 -209.531 1612.68 -196.49 1645.04 -179.707L1646.58 -178.905C1679.9 -161.456 1704.44 -143.05 1723.71 -121.061C1741.45 -100.736 1751.96 -79.8804 1755.83 -57.3855C1761.09 -26.8866 1753.9 2.65273 1734.24 30.5637C1716.64 55.5811 1691.97 76.3338 1656.58 95.9973C1625.63 113.029 1590.92 126.603 1550.38 137.409C1495.52 151.403 1435.53 159.161 1381.37 159.3H1380.4C1318.03 159.023 1268.72 154.449 1220.68 144.613C1175.54 135.33 1136.39 122.586 1101 105.552L1101 105.551C1064.76 88.2382 1038.14 69.8297 1017.06 47.7004C993.637 23.0836 980.774 -2.60622 978.008 -31.0359V-31.0369L977.915 -32.0261C976.069 -52.8066 980.385 -73.5838 990.878 -93.7058V-93.7068C1001.12 -113.46 1016.36 -131.295 1037.58 -148.176C1068.37 -172.671 1105.29 -191.503 1153.89 -207.435H1153.89C1190.26 -219.487 1228.45 -227.8 1270.25 -232.927Z" stroke="white"/>
<path opacity="0.2" d="M700.253 177.073C758.03 170.007 815.945 169.452 872.053 175.272L872.058 175.273C904.554 178.321 935.94 183.585 965.102 190.512V190.513C1006.66 200.469 1042.68 213.51 1075.04 230.293L1076.58 231.095C1109.9 248.544 1134.44 266.95 1153.71 288.939C1171.45 309.264 1181.96 330.12 1185.83 352.615C1191.09 383.113 1183.9 412.653 1164.24 440.564C1146.64 465.581 1121.97 486.334 1086.58 505.997C1055.63 523.029 1020.92 536.603 980.376 547.409C925.521 561.403 865.527 569.161 811.371 569.3H810.401C748.027 569.023 698.725 564.449 650.679 554.613C605.545 545.33 566.394 532.586 530.998 515.552L530.996 515.551C494.763 498.238 468.135 479.83 447.063 457.7C423.637 433.084 410.774 407.394 408.008 378.964V378.963L407.915 377.974C406.069 357.193 410.385 336.416 420.878 316.294V316.293C431.124 296.54 446.361 278.705 467.58 261.824C498.375 237.329 535.286 218.497 583.887 202.565H583.888C620.264 190.513 658.45 182.2 700.253 177.073Z" stroke="white"/>
</g>
<defs>
<clipPath id="clip0_2116_362">
<rect width="1154" height="370" fill="white"/>
</clipPath>
</defs>
</svg>
