<svg width="1320" height="594" viewBox="0 0 1320 594" fill="none" xmlns="http://www.w3.org/2000/svg">
<rect y="0.621582" width="1320" height="593" fill="#6CA5FA" fill-opacity="0.59" style="mix-blend-mode:multiply"/>
<rect y="0.621582" width="1320" height="593" fill="#111B51" fill-opacity="0.2"/>
<rect y="0.621582" width="1320" height="593" fill="url(#paint0_linear_2047_502)" fill-opacity="0.2"/>
<g clip-path="url(#clip0_2047_502)">
<path d="M925.899 894.811C856.636 894.811 802.62 890.078 749.424 879.363C703.851 870.197 659.484 856.9 617.271 836.89C583.157 820.71 551.368 801.303 524.877 773.805C501.789 749.794 485.55 722.124 482.061 688.516C479.606 664.547 484.818 641.913 495.673 620.698C507.906 596.858 525.652 577.752 546.285 561.098C584.363 530.546 627.782 510.665 673.828 495.26C715.61 481.188 758.426 472.022 802.017 466.514C865.035 458.553 928.182 457.348 991.674 463.631C1026.39 466.988 1060.81 472.324 1094.75 480.284C1137.44 490.354 1178.7 504.253 1217.73 524.435C1249.39 540.787 1278.76 560.496 1302.46 587.52C1320.03 607.53 1332.91 629.864 1337.65 656.414C1343.94 691.399 1334.76 722.899 1314.69 751.601C1292.81 782.928 1263 805.09 1230.09 823.55C1193.22 844.163 1154.06 858.708 1113.4 869.681C1047.02 887.152 979.441 894.639 925.899 894.811Z" fill="url(#paint1_linear_2047_502)" style="mix-blend-mode:screen"/>
</g>
<g clip-path="url(#clip1_2047_502)">
<path d="M225.027 -392.379C301.209 -392.379 360.619 -387.201 419.129 -375.482C469.254 -365.457 518.052 -350.913 564.481 -329.027C602.003 -311.331 636.967 -290.104 666.103 -260.028C691.497 -233.765 709.358 -203.502 713.196 -166.743C715.896 -140.527 710.164 -115.77 698.225 -92.5667C684.77 -66.492 665.251 -45.5946 642.557 -27.38C600.676 6.03699 552.921 27.7816 502.275 44.6313C456.32 60.0219 409.227 70.047 361.282 76.0715C291.97 84.7787 222.516 86.0966 152.683 79.2249C114.497 75.5537 76.6435 69.7175 39.3107 61.0103C-7.63949 49.9968 -53.0263 34.7944 -95.9495 12.7203C-130.771 -5.16484 -163.082 -26.7212 -189.139 -56.2788C-208.469 -78.1645 -222.635 -102.592 -227.846 -131.632C-234.763 -169.897 -224.672 -204.349 -202.594 -235.742C-178.527 -270.006 -145.742 -294.246 -109.547 -314.437C-68.9922 -336.982 -25.9268 -352.89 18.7967 -364.892C91.8041 -384.001 166.138 -392.19 225.027 -392.379Z" fill="url(#paint2_linear_2047_502)" style="mix-blend-mode:screen"/>
</g>
<g clip-path="url(#clip2_2047_502)">
<path d="M1226.09 320.826C1288.12 313.232 1350.3 312.637 1410.54 318.89L1410.55 318.891C1445.44 322.166 1479.13 327.823 1510.44 335.266C1555.76 346.133 1594.94 360.419 1630.09 378.86C1665.84 397.602 1692.16 417.358 1712.81 440.946V440.947C1731.82 462.748 1743.07 485.095 1747.22 509.184C1752.84 541.844 1745.16 573.482 1724.1 603.402L1724.09 603.403C1705.25 630.228 1678.8 652.498 1640.83 673.617C1607.62 691.907 1570.37 706.488 1526.85 718.098C1467.95 733.136 1403.54 741.473 1345.4 741.622H1344.36C1277.38 741.324 1224.44 736.408 1172.87 725.839H1172.87C1124.41 715.865 1082.39 702.174 1044.41 683.878L1044.41 683.876L1042.59 683.004C1004.63 664.661 976.609 645.146 954.374 621.775C929.264 595.366 915.503 567.837 912.543 537.392V537.391L912.444 536.332C910.469 514.083 915.085 491.832 926.319 470.269L926.32 470.267C937.292 449.096 953.614 429.97 976.368 411.852C1009.4 385.557 1048.99 365.332 1101.17 348.214L1101.17 348.213C1140.22 335.267 1181.21 326.335 1226.09 320.826Z" stroke="white" stroke-width="2"/>
</g>
<defs>
<linearGradient id="paint0_linear_2047_502" x1="660" y1="0.621582" x2="660" y2="494.424" gradientUnits="userSpaceOnUse">
<stop offset="0.65" stop-color="#3ABFF0" stop-opacity="0"/>
<stop offset="1" stop-color="#3ABFF0"/>
</linearGradient>
<linearGradient id="paint1_linear_2047_502" x1="534.019" y1="604.524" x2="1281.74" y2="749.386" gradientUnits="userSpaceOnUse">
<stop stop-color="#0B70A7" stop-opacity="0"/>
<stop offset="1" stop-color="#0B70A7"/>
</linearGradient>
<linearGradient id="paint2_linear_2047_502" x1="656.049" y1="-74.8766" x2="-166.017" y2="-235.035" gradientUnits="userSpaceOnUse">
<stop stop-color="#0B70A7" stop-opacity="0"/>
<stop offset="1" stop-color="#0B70A7"/>
</linearGradient>
<clipPath id="clip0_2047_502">
<rect width="914" height="134" fill="white" transform="translate(406 459.622)"/>
</clipPath>
<clipPath id="clip1_2047_502">
<rect width="914" height="182" fill="white" transform="translate(914 182.622) rotate(-180)"/>
</clipPath>
<clipPath id="clip2_2047_502">
<rect width="409" height="280" fill="white" transform="translate(911 313.622)"/>
</clipPath>
</defs>
</svg>
