<svg width="23" height="24" viewBox="0 0 23 24" fill="none" xmlns="http://www.w3.org/2000/svg">
<path fill-rule="evenodd" clip-rule="evenodd" d="M19.8155 23.2539H2.47694C1.10896 23.2539 0 22.1449 0 20.7769V3.43836C0 2.07039 1.10896 0.961426 2.47694 0.961426H19.8155C21.1835 0.961426 22.2925 2.07039 22.2925 3.43836V20.7769C22.2925 22.1449 21.1835 23.2539 19.8155 23.2539ZM15.888 20.1571H19.1961V13.3614C19.1961 10.4861 17.5662 9.09579 15.2895 9.09579C13.0118 9.09579 12.0533 10.8695 12.0533 10.8695V9.42372H8.86521V20.1571H12.0533V14.5227C12.0533 13.013 12.7482 12.1147 14.0784 12.1147C15.3011 12.1147 15.888 12.9779 15.888 14.5227V20.1571ZM3.09601 6.03764C3.09601 7.13141 3.97596 8.01826 5.06187 8.01826C6.14779 8.01826 7.02722 7.13141 7.02722 6.03764C7.02722 4.94387 6.14779 4.05701 5.06187 4.05701C3.97596 4.05701 3.09601 4.94387 3.09601 6.03764ZM6.74002 20.1571H3.4157V9.42372H6.74002V20.1571Z" fill="white"/>
</svg>
