<svg width="155" height="78" viewBox="0 0 155 78" fill="none" xmlns="http://www.w3.org/2000/svg">
<path d="M80.1416 77.7505C67.7509 77.7505 58.0327 76.8729 48.4765 75.0381C40.297 73.4425 32.3605 71.0492 24.7479 67.539C18.593 64.667 12.9241 61.2366 8.14599 56.3702C4.01575 52.142 1.1003 47.1958 0.452419 41.2923C0.0474948 37.0641 0.938329 33.0752 2.88197 29.3257C5.06856 25.0975 8.22697 21.7469 11.9523 18.7951C18.755 13.3702 26.6105 9.86005 34.871 7.14763C42.4836 4.59475 50.0962 2.91943 57.9517 1.96211C69.2896 0.526115 80.5465 0.36656 91.9654 1.48344C98.2012 2.04188 104.356 2.99921 110.43 4.4352C118.123 6.1903 125.493 8.66339 132.458 12.2534C138.127 15.1253 143.391 18.6355 147.683 23.4222C150.841 26.9324 153.109 30.9212 154 35.6281C155.134 41.8507 153.514 47.3554 149.87 52.4611C145.982 57.9657 140.556 61.9546 134.725 65.2255C128.085 68.8952 121.12 71.4481 113.831 73.3627C101.927 76.3943 89.7788 77.7505 80.1416 77.7505ZM78.036 72.1661C86.8633 72.0863 96.2576 71.2885 105.571 69.4537C115.046 67.539 124.197 64.667 132.62 59.8804C137.56 57.0882 142.014 53.8173 145.334 49.1902C148.817 44.244 149.789 38.9787 147.521 33.3146C146.063 29.7246 143.553 26.7728 140.637 24.2997C136.507 20.7098 131.81 17.9973 126.87 15.7636C120.148 12.732 113.102 10.6578 105.895 9.14206C98.4442 7.62629 90.8316 6.74874 83.3 6.50941C68.2368 6.03074 53.4165 7.38696 39.0012 11.6949C33.3323 13.3703 27.8253 15.604 22.6423 18.476C17.4592 21.348 12.6811 24.7784 9.36076 29.8044C6.68826 33.7134 5.55447 37.9416 6.60727 42.6485C7.57909 47.0362 10.0896 50.4667 13.329 53.4184C17.7022 57.4871 22.8043 60.4388 28.3112 62.9119C37.3006 66.9008 46.8568 69.2941 56.575 70.7301C63.3777 71.6874 70.3424 72.1661 78.036 72.1661Z" fill="#CCCCCC"/>
<path d="M113.588 38.8991C117.637 42.5689 120.553 47.1162 124.035 51.1848C124.521 51.823 125.088 52.4612 125.574 53.0995C126.141 53.8972 125.898 54.3759 125.007 54.3759C123.225 54.3759 121.363 54.4557 119.581 54.3759C119.095 54.3759 118.528 54.0568 118.204 53.6579C116.504 51.5837 114.803 49.4297 113.183 47.2757C112.13 45.9195 111.078 44.5633 110.025 43.2071C109.215 42.17 108.162 41.6913 106.866 41.6115C105.328 41.5318 103.87 41.5318 102.331 41.5318C101.602 41.5318 101.521 42.0104 101.521 42.5689C101.521 45.9195 101.521 49.1904 101.521 52.541C101.521 54.2163 101.359 54.3759 99.6588 54.3759C98.606 54.3759 97.5532 54.3759 96.5004 54.3759C94.9617 54.3759 94.7997 54.2163 94.7997 52.7804C94.7997 45.6004 94.7997 38.4205 94.7997 31.2405C94.7997 30.9214 94.7187 30.6023 94.7187 30.2034C94.6378 30.2034 94.5568 30.1236 94.4758 30.1236C94.0709 30.8416 93.6659 31.5596 93.261 32.2776C89.6977 38.7396 86.0534 45.2015 82.49 51.7433C81.4372 53.6579 79.8175 54.6152 77.6309 54.4557C76.9021 54.3759 76.1732 54.4557 75.4443 54.4557C73.5007 54.4557 72.043 53.5781 71.0711 51.9028C69.4514 49.0308 67.8317 46.1588 66.212 43.2869C63.7015 39.0587 61.4339 35.0698 59.1664 30.9214C58.8424 30.3629 58.4375 30.1236 57.7086 30.1236C51.1489 30.1236 44.5891 30.1236 38.0293 30.1236C36.4096 30.1236 35.7617 30.7618 35.6807 32.3574C35.6807 33.0754 35.6807 33.7934 35.6807 34.4316C35.7617 35.6282 36.4096 36.2665 37.6244 36.3462C38.0293 36.3462 38.5152 36.3462 38.9201 36.3462C44.1842 36.3462 49.3672 36.3462 54.6312 36.3462C56.2509 36.3462 57.7896 36.5856 59.1664 37.4631C60.948 38.58 61.9198 40.2553 62.0818 42.2498C62.2438 44.2442 62.2438 46.3184 62.0818 48.3926C61.8389 51.5837 59.5713 53.8175 56.3319 54.1366C55.2791 54.2163 54.3073 54.2961 53.2545 54.2961C45.8039 54.2961 38.2723 54.2961 30.7407 54.2961C29.2019 54.2961 29.04 54.1366 29.04 52.6208C29.04 51.5837 29.04 50.4668 29.04 49.4297C29.04 48.6319 29.4449 48.3128 30.1738 48.3128C30.4977 48.3128 30.8216 48.3128 31.1456 48.3128C38.3532 48.3128 45.5609 48.3128 52.7686 48.3128C54.7122 48.3128 55.4411 47.6746 55.4411 45.6802C55.4411 45.042 55.4411 44.4037 55.4411 43.8453C55.3601 42.4093 54.7122 41.7711 53.2545 41.7711C47.8285 41.7711 42.4835 41.7711 37.0575 41.6913C35.9237 41.6913 34.7899 41.6115 33.6561 41.2924C31.3076 40.6542 29.6069 39.1384 29.3639 36.8249C29.04 34.272 28.959 31.6394 29.2829 29.0865C29.6879 26.1348 32.0364 24.4594 35.0329 24.2201C36.0857 24.1403 37.0575 24.1403 38.1103 24.1403C45.8848 24.1403 53.5784 24.1403 61.272 24.1403C62.3248 24.1403 62.8917 24.5392 63.2966 25.4168C67.3458 32.836 71.4761 40.2553 75.6063 47.6746C75.7683 47.9139 76.0922 48.2331 76.3352 48.2331C76.6591 48.1533 77.064 47.9139 77.226 47.5948C79.2506 43.9251 81.2752 40.1756 83.2999 36.426C85.3245 32.6765 87.3491 28.927 89.4547 25.1774C89.8596 24.4594 90.3456 24.1403 91.2364 24.1403C94.0709 24.2201 96.9053 24.1403 99.7398 24.1403C101.117 24.1403 101.36 24.2999 101.36 25.6561C101.36 28.927 101.36 32.1978 101.36 35.4687C101.36 36.2665 101.602 36.5856 102.412 36.5856C103.627 36.5058 104.761 36.5058 105.976 36.5058C107.433 36.5058 108.567 35.9474 109.377 34.7507C111.888 31.4798 114.398 28.209 116.909 24.8583C117.314 24.2999 117.799 24.0605 118.447 24.0605C120.148 24.0605 121.768 24.0605 123.468 24.0605C123.792 24.0605 124.278 24.2201 124.44 24.3797C124.521 24.619 124.359 25.0976 124.116 25.337C120.634 29.8045 117.071 34.1923 113.507 38.58C113.588 38.7396 113.588 38.8193 113.588 38.8991Z" fill="#CCCCCC"/>
</svg>
