<svg width="32" height="33" viewBox="0 0 32 33" fill="none" xmlns="http://www.w3.org/2000/svg">
<path fill-rule="evenodd" clip-rule="evenodd" d="M8.5 8.1427C7.67157 8.1427 7 8.81427 7 9.6427V24.6427C7 25.4711 7.67157 26.1427 8.5 26.1427H23.5C24.3284 26.1427 25 25.4711 25 24.6427V9.6427C25 8.81427 24.3284 8.1427 23.5 8.1427H8.5ZM12.5208 12.1454C12.5264 13.1017 11.8106 13.6909 10.9612 13.6867C10.1611 13.6825 9.46357 13.0454 9.46779 12.1468C9.47201 11.3017 10.14 10.6225 11.0076 10.6421C11.8879 10.6618 12.5264 11.3073 12.5208 12.1454ZM16.2797 14.9045H13.7597H13.7583V23.4643H16.4217V23.2646C16.4217 22.8847 16.4214 22.5047 16.4211 22.1246C16.4203 21.1108 16.4194 20.0959 16.4246 19.0824C16.426 18.8363 16.4372 18.5804 16.5005 18.3455C16.7381 17.468 17.5271 16.9013 18.4074 17.0406C18.9727 17.1291 19.3467 17.4568 19.5042 17.9898C19.6013 18.323 19.6449 18.6816 19.6491 19.029C19.6605 20.0766 19.6589 21.1242 19.6573 22.1719C19.6567 22.5417 19.6561 22.9117 19.6561 23.2815V23.4629H22.328V23.2576C22.328 22.8056 22.3278 22.3537 22.3275 21.9018C22.327 20.7723 22.3264 19.6428 22.3294 18.5129C22.3308 18.0024 22.276 17.499 22.1508 17.0054C21.9638 16.2713 21.5771 15.6638 20.9485 15.2251C20.5027 14.9129 20.0133 14.7118 19.4663 14.6893C19.404 14.6867 19.3412 14.6833 19.2781 14.6799C18.9984 14.6648 18.7141 14.6494 18.4467 14.7034C17.6817 14.8566 17.0096 15.2068 16.5019 15.8241C16.4429 15.8949 16.3852 15.9668 16.2991 16.0741L16.2797 16.0984V14.9045ZM9.68164 23.4671H12.3324V14.91H9.68164V23.4671Z" fill="#111B51"/>
</svg>
