<svg width="20" height="20" viewBox="0 0 20 20" fill="none" xmlns="http://www.w3.org/2000/svg">
<g clip-path="url(#clip0_452_343)">
<path d="M14.7993 11.4923C14.7603 11.4736 13.3023 10.7556 13.0432 10.6623C12.9374 10.6243 12.8241 10.5873 12.7036 10.5873C12.5067 10.5873 12.3413 10.6854 12.2125 10.8781C12.0668 11.0946 11.6259 11.61 11.4897 11.7639C11.4719 11.7843 11.4476 11.8086 11.4331 11.8086C11.42 11.8086 11.1944 11.7156 11.126 11.686C9.56196 11.0065 8.37475 9.37271 8.21196 9.0972C8.18871 9.05758 8.18774 9.0396 8.18754 9.0396C8.19325 9.01862 8.24585 8.9659 8.273 8.93869C8.35241 8.86012 8.43845 8.75655 8.5217 8.65635C8.56111 8.60888 8.60059 8.56135 8.63936 8.51655C8.76014 8.37603 8.8139 8.26694 8.87624 8.14057L8.9089 8.07492C9.06111 7.77252 8.93111 7.51733 8.8891 7.43492C8.85462 7.36596 8.23897 5.88012 8.17351 5.72401C8.01611 5.34733 7.80813 5.17194 7.5191 5.17194C7.49228 5.17194 7.5191 5.17194 7.40663 5.17668C7.26968 5.18246 6.5239 5.28064 6.19416 5.48849C5.84449 5.70895 5.25293 6.41168 5.25293 7.64752C5.25293 8.75979 5.95877 9.80999 6.26183 10.2094C6.26936 10.2195 6.28319 10.2399 6.30325 10.2693C7.46384 11.9642 8.91066 13.2203 10.3773 13.8062C11.7894 14.3702 12.458 14.4354 12.8381 14.4354H12.8382C12.9979 14.4354 13.1258 14.4229 13.2386 14.4118L13.3101 14.405C13.7979 14.3617 14.8699 13.8063 15.1137 13.1287C15.3058 12.595 15.3564 12.0119 15.2286 11.8002C15.1411 11.6564 14.9903 11.5839 14.7993 11.4923Z" fill="white"/>
<path d="M10.1775 0C4.76089 0 0.354141 4.37364 0.354141 9.74955C0.354141 11.4883 0.819465 13.1903 1.70096 14.6799L0.0137512 19.6569C-0.0176774 19.7497 0.0056992 19.8523 0.0743356 19.9221C0.123881 19.9727 0.191089 20 0.259725 20C0.286024 20 0.312517 19.996 0.338362 19.9878L5.52797 18.3387C6.9481 19.0975 8.55317 19.498 10.1776 19.498C15.5937 19.4981 20 15.1249 20 9.74955C20 4.37364 15.5937 0 10.1775 0ZM10.1775 17.4671C8.64901 17.4671 7.16856 17.0258 5.89596 16.1907C5.85317 16.1626 5.80349 16.1482 5.75349 16.1482C5.72706 16.1482 5.70057 16.1522 5.67479 16.1604L3.07511 16.9868L3.91434 14.5108C3.94148 14.4307 3.92791 14.3423 3.87791 14.274C2.90882 12.9499 2.39654 11.3854 2.39654 9.74955C2.39654 5.49351 5.88706 2.03091 10.1775 2.03091C14.4673 2.03091 17.9575 5.49351 17.9575 9.74955C17.9575 14.0051 14.4675 17.4671 10.1775 17.4671Z" fill="white"/>
</g>
<defs>
<clipPath id="clip0_452_343">
<rect width="20" height="20" fill="white"/>
</clipPath>
</defs>
</svg>
