<svg width="1440" height="400" viewBox="0 0 1440 400" fill="none" xmlns="http://www.w3.org/2000/svg">
<g clip-path="url(#clip0_2059_798)">
<g clip-path="url(#clip1_2059_798)">
<g clip-path="url(#clip2_2059_798)">
<path d="M1472.03 272.106C1534.1 264.508 1596.32 263.912 1656.59 270.169L1656.6 270.17C1691.51 273.447 1725.23 279.109 1756.56 286.558L1756.56 286.557C1801.91 297.431 1841.13 311.73 1876.33 330.193C1912.12 348.956 1938.49 368.748 1959.19 392.393L1959.19 392.394C1978.25 414.252 1989.55 436.682 1993.71 460.876C1999.36 493.679 1991.64 525.45 1970.5 555.467L1970.5 555.468C1951.6 582.372 1925.09 604.687 1887.07 625.831C1853.82 644.144 1816.53 658.74 1772.97 670.359C1714.04 685.406 1649.58 693.749 1591.4 693.898L1590.36 693.898C1523.35 693.6 1470.38 688.683 1418.77 678.106C1370.28 668.125 1328.22 654.421 1290.19 636.105L1290.19 636.104L1288.37 635.231C1250.37 616.869 1222.3 597.322 1200.01 573.896C1174.84 547.424 1161.02 519.794 1158.04 489.217L1157.95 488.152C1155.96 465.802 1160.6 443.455 1171.88 421.814L1171.88 421.813C1182.89 400.569 1199.26 381.39 1222.06 363.237C1255.14 336.897 1294.8 316.646 1347.01 299.516L1347.01 299.516C1386.09 286.557 1427.12 277.619 1472.03 272.106Z" stroke="white"/>
</g>
<path d="M589.614 70.3305C668.565 79.223 747.706 79.9201 824.377 72.5971L824.381 72.5961C867.401 68.8802 908.996 62.5465 947.784 54.2289L951.528 53.4184C1009.22 40.6913 1059.11 23.9566 1103.88 2.34609C1149.41 -19.6146 1182.96 -42.7826 1209.3 -70.4625C1233.55 -96.0506 1247.93 -122.307 1253.22 -150.627C1260.41 -189.02 1250.59 -226.208 1223.7 -261.347L1223.7 -261.348C1199.64 -292.844 1165.92 -318.967 1117.54 -343.714C1075.24 -365.15 1027.82 -382.232 972.406 -395.831C897.444 -413.44 815.46 -423.204 741.451 -423.378L740.125 -423.378C656.229 -423.035 589.636 -417.454 524.947 -405.472L521.868 -404.897C460.192 -393.215 406.687 -377.177 358.311 -355.74L358.311 -355.739L355.999 -354.716C308.424 -333.566 273.079 -311.07 244.942 -284.224L243.587 -282.922C212.062 -252.417 194.529 -220.6 190.381 -185.475L190.193 -183.799C187.357 -157.224 193.216 -130.639 207.789 -104.904L207.79 -104.903C221.798 -80.0336 242.629 -57.5818 271.635 -36.3326C313.728 -5.49942 364.178 18.2025 430.594 38.2514L430.595 38.2524C480.307 53.4185 532.491 63.8793 589.614 70.3305Z" stroke="white"/>
<g clip-path="url(#clip3_2059_798)">
<path d="M1214.97 -392.911C1138.79 -392.911 1079.38 -387.734 1020.87 -376.014C970.747 -365.989 921.949 -351.446 875.52 -329.56C837.997 -311.863 803.033 -290.636 773.897 -260.561C748.503 -234.298 730.642 -204.034 726.804 -167.276C724.104 -141.06 729.837 -116.303 741.775 -93.0992C755.23 -67.0245 774.75 -46.1271 797.443 -27.9125C839.324 5.50452 887.08 27.2491 937.725 44.0988C983.681 59.4894 1030.77 69.5146 1078.72 75.539C1148.03 84.2463 1217.48 85.5641 1287.32 78.6924C1325.5 75.0213 1363.36 69.1851 1400.69 60.4778C1447.64 49.4643 1493.03 34.2619 1535.95 12.1879C1570.77 -5.69731 1603.08 -27.2536 1629.14 -56.8112C1648.47 -78.697 1662.63 -103.124 1667.85 -132.164C1674.76 -170.429 1664.67 -204.882 1642.59 -236.275C1618.53 -270.539 1585.74 -294.778 1549.55 -314.969C1508.99 -337.514 1465.93 -353.423 1421.2 -365.424C1348.2 -384.533 1273.86 -392.723 1214.97 -392.911Z" fill="url(#paint0_linear_2059_798)" style="mix-blend-mode:screen"/>
</g>
</g>
</g>
<defs>
<linearGradient id="paint0_linear_2059_798" x1="783.952" y1="-75.4091" x2="1606.02" y2="-235.568" gradientUnits="userSpaceOnUse">
<stop stop-color="#0B70A7" stop-opacity="0"/>
<stop offset="1" stop-color="#0B70A7"/>
</linearGradient>
<clipPath id="clip0_2059_798">
<rect width="1440" height="400" fill="white"/>
</clipPath>
<clipPath id="clip1_2059_798">
<rect width="1440" height="400" fill="white"/>
</clipPath>
<clipPath id="clip2_2059_798">
<rect width="371" height="188" fill="white" transform="translate(1111 269.777)"/>
</clipPath>
<clipPath id="clip3_2059_798">
<rect width="653" height="103" fill="white" transform="matrix(1 -8.74228e-08 -8.74228e-08 -1 787 102.6)"/>
</clipPath>
</defs>
</svg>
