<svg width="1440" height="400" viewBox="0 0 1440 400" fill="none" xmlns="http://www.w3.org/2000/svg">
<g clip-path="url(#clip0_2059_720)">
<g clip-path="url(#clip1_2059_720)">
<g clip-path="url(#clip2_2059_720)">
<path d="M1472.03 273.006C1534.1 265.408 1596.32 264.811 1656.59 271.069L1656.6 271.07C1691.51 274.347 1725.23 280.009 1756.56 287.457L1756.56 287.456C1801.91 298.331 1841.13 312.63 1876.33 331.093C1912.12 349.856 1938.49 369.648 1959.19 393.293L1959.19 393.294C1978.25 415.152 1989.55 437.581 1993.71 461.776C1999.36 494.579 1991.64 526.35 1970.5 556.367L1970.5 556.368C1951.6 583.272 1925.09 605.587 1887.07 626.731C1853.82 645.044 1816.53 659.64 1772.97 671.259C1714.04 686.306 1649.58 694.649 1591.4 694.798L1590.36 694.798C1523.35 694.5 1470.38 689.583 1418.77 679.006C1370.28 669.025 1328.22 655.321 1290.19 637.005L1290.19 637.004L1288.37 636.131C1250.37 617.769 1222.3 598.222 1200.01 574.796C1174.84 548.324 1161.02 520.694 1158.04 490.117L1157.95 489.052C1155.96 466.702 1160.6 444.355 1171.88 422.714L1171.88 422.713C1182.89 401.469 1199.26 382.29 1222.06 364.137C1255.14 337.796 1294.8 317.546 1347.01 300.416L1347.01 300.416C1386.09 287.457 1427.12 278.519 1472.03 273.006Z" stroke="white"/>
</g>
<path d="M-13.3857 399.453C65.5653 408.381 144.706 409.081 221.377 401.729L221.381 401.728C265.788 397.877 308.677 391.227 348.527 382.475L348.527 382.474C406.216 369.697 456.114 352.896 500.882 331.2C546.412 309.152 579.964 285.892 606.303 258.102C630.175 232.814 644.477 206.876 649.969 178.951L650.224 177.62C657.297 139.675 647.888 102.903 621.946 68.112L620.698 66.4567C596.644 34.8361 562.916 8.60943 514.543 -16.2366C472.242 -37.7573 424.812 -54.9073 369.401 -68.5599C294.441 -86.2387 212.458 -96.0411 138.451 -96.2161L137.125 -96.2161C53.2291 -95.8714 -13.3644 -90.2674 -78.0528 -78.2386L-81.1319 -77.6614C-142.808 -65.9336 -196.313 -49.8313 -244.688 -28.3089L-244.689 -28.3089C-293.433 -6.77595 -329.466 16.1018 -358.057 43.489L-359.412 44.7966C-390.937 75.4232 -408.471 107.366 -412.619 142.632L-412.807 144.314C-415.643 170.996 -409.784 197.687 -395.21 223.524L-395.21 223.525C-381.202 248.493 -360.37 271.034 -331.364 292.368C-289.271 323.323 -238.822 347.119 -172.406 367.248L-172.405 367.248C-124.246 381.998 -73.7681 392.315 -18.7266 398.834L-13.3857 399.453Z" stroke="white"/>
<g clip-path="url(#clip3_2059_720)">
<path d="M1214.97 -393.187C1138.79 -393.187 1079.38 -388.01 1020.87 -376.291C970.747 -366.266 921.949 -351.722 875.52 -329.836C837.997 -312.139 803.033 -290.912 773.897 -260.837C748.503 -234.574 730.642 -204.311 726.804 -167.552C724.104 -141.336 729.837 -116.579 741.775 -93.3756C755.23 -67.3009 774.75 -46.4035 797.443 -28.1889C839.324 5.22815 887.08 26.9727 937.725 43.8224C983.681 59.2131 1030.77 69.2382 1078.72 75.2627C1148.03 83.9699 1217.48 85.2877 1287.32 78.4161C1325.5 74.7449 1363.36 68.9087 1400.69 60.2014C1447.64 49.1879 1493.03 33.9855 1535.95 11.9115C1570.77 -5.97367 1603.08 -27.53 1629.14 -57.0876C1648.47 -78.9734 1662.63 -103.401 1667.85 -132.441C1674.76 -170.705 1664.67 -205.158 1642.59 -236.551C1618.53 -270.815 1585.74 -295.054 1549.55 -315.246C1508.99 -337.791 1465.93 -353.699 1421.2 -365.701C1348.2 -384.81 1273.86 -392.999 1214.97 -393.187Z" fill="url(#paint0_linear_2059_720)" style="mix-blend-mode:screen"/>
</g>
</g>
</g>
<defs>
<linearGradient id="paint0_linear_2059_720" x1="783.952" y1="-75.6854" x2="1606.02" y2="-235.844" gradientUnits="userSpaceOnUse">
<stop stop-color="#0B70A7" stop-opacity="0"/>
<stop offset="1" stop-color="#0B70A7"/>
</linearGradient>
<clipPath id="clip0_2059_720">
<rect width="1440" height="400" fill="white"/>
</clipPath>
<clipPath id="clip1_2059_720">
<rect width="1440" height="401" fill="white" transform="translate(0 -1)"/>
</clipPath>
<clipPath id="clip2_2059_720">
<rect width="371" height="188" fill="white" transform="translate(1111 270.677)"/>
</clipPath>
<clipPath id="clip3_2059_720">
<rect width="653" height="108" fill="white" transform="matrix(1 -8.74228e-08 -8.74228e-08 -1 787 107.5)"/>
</clipPath>
</defs>
</svg>
