<svg width="861" height="592" viewBox="0 0 861 592" fill="none" xmlns="http://www.w3.org/2000/svg">
<g clip-path="url(#clip0_2079_589)">
<g clip-path="url(#clip1_2079_589)">
<path d="M289.626 961.251C370.81 961.251 434.121 955.706 496.473 943.154C549.889 932.417 601.891 916.84 651.369 893.4C691.355 874.446 728.614 851.712 759.664 819.501C786.725 791.373 805.759 758.96 809.849 719.59C812.726 691.513 806.617 664.998 793.895 640.146C779.556 612.219 758.755 589.838 734.572 570.33C689.941 534.539 639.05 511.251 585.079 493.204C536.106 476.72 485.921 465.983 434.828 459.531C360.965 450.205 286.95 448.794 212.532 456.154C171.839 460.086 131.499 466.336 91.7154 475.662C41.6823 487.458 -6.68459 503.74 -52.4262 527.381C-89.5345 546.537 -123.967 569.624 -151.735 601.281C-172.334 624.721 -187.43 650.883 -192.983 681.985C-200.354 722.968 -189.601 759.867 -166.073 793.49C-140.426 830.187 -105.488 856.148 -66.916 877.773C-23.6988 901.919 22.1943 918.958 69.8544 931.812C147.656 952.278 226.87 961.049 289.626 961.251Z" fill="url(#paint0_linear_2079_589)" fill-opacity="0.67"/>
</g>
<g clip-path="url(#clip2_2079_589)">
<path d="M851.087 411.126C913.121 403.532 975.302 402.937 1035.54 409.19L1035.55 409.191C1070.44 412.467 1104.13 418.123 1135.44 425.566C1180.76 436.433 1219.94 450.719 1255.09 469.16C1290.84 487.902 1317.16 507.658 1337.81 531.246V531.247C1356.82 553.048 1368.07 575.395 1372.22 599.484C1377.84 632.144 1370.16 663.782 1349.1 693.702L1349.09 693.703C1330.25 720.528 1303.8 742.798 1265.83 763.917C1232.62 782.207 1195.37 796.788 1151.85 808.398C1092.95 823.436 1028.54 831.773 970.399 831.922H969.361C902.377 831.624 849.445 826.708 797.867 816.139H797.868C749.413 806.165 707.392 792.474 669.407 774.178L669.405 774.177L667.59 773.304C629.627 754.961 601.609 735.446 579.374 712.075C554.264 685.666 540.503 658.137 537.543 627.692V627.691L537.444 626.632C535.469 604.383 540.085 582.132 551.319 560.569L551.32 560.567C562.292 539.396 578.614 520.27 601.368 502.152C634.396 475.857 673.995 455.632 726.167 438.514L726.17 438.513C765.216 425.567 806.207 416.635 851.087 411.126Z" stroke="white" stroke-width="2"/>
</g>
<path d="M148.913 181.474C86.8792 189.068 24.6983 189.663 -35.541 183.41L-35.5518 183.409C-70.4403 180.134 -104.135 174.477 -135.441 167.034C-180.76 156.167 -219.945 141.881 -255.094 123.44C-290.844 104.698 -317.161 84.9417 -337.812 61.3542L-337.812 61.3532C-356.824 39.5517 -368.074 17.2048 -372.218 -6.88411C-377.842 -39.5437 -370.159 -71.182 -349.096 -101.102L-349.095 -101.103C-330.245 -127.928 -303.803 -150.198 -265.825 -171.317C-232.617 -189.607 -195.373 -204.188 -151.849 -215.798C-92.9532 -230.836 -28.5388 -239.173 29.6006 -239.322L30.6387 -239.322C97.6226 -239.024 150.555 -234.108 202.133 -223.539L202.132 -223.539C250.587 -213.565 292.608 -199.874 330.593 -181.578L330.595 -181.576L332.41 -180.704C370.373 -162.361 398.391 -142.846 420.626 -119.475C445.736 -93.0658 459.497 -65.5368 462.457 -35.092L462.457 -35.0911L462.556 -34.0315C464.531 -11.7828 459.915 10.4684 448.681 32.031L448.68 32.033C437.708 53.2037 421.386 72.3304 398.632 90.448C365.604 116.743 326.005 136.968 273.833 154.086L273.83 154.087C234.784 167.033 193.793 175.966 148.913 181.474Z" stroke="white" stroke-width="2"/>
</g>
<defs>
<linearGradient id="paint0_linear_2079_589" x1="748.949" y1="621.2" x2="-127.414" y2="791.083" gradientUnits="userSpaceOnUse">
<stop stop-color="#059CD5" stop-opacity="0"/>
<stop offset="1" stop-color="#00C5FF"/>
</linearGradient>
<clipPath id="clip0_2079_589">
<rect width="861" height="592" fill="white"/>
</clipPath>
<clipPath id="clip1_2079_589">
<rect width="899" height="164" fill="white" transform="matrix(-1 0 0 1 899 427.3)"/>
</clipPath>
<clipPath id="clip2_2079_589">
<rect width="371" height="188" fill="white" transform="translate(490 404.3)"/>
</clipPath>
</defs>
</svg>
