<svg width="1156" height="671" viewBox="0 0 1156 671" fill="none" xmlns="http://www.w3.org/2000/svg">
<path d="M573.94 7.5332C642.895 -1.07533 712.013 -1.75023 778.976 5.33887H778.98C817.765 9.05212 855.223 15.4665 890.027 23.9053V23.9043C940.41 36.2247 983.986 52.4247 1023.08 73.3438C1062.85 94.6018 1092.15 117.028 1115.15 143.822C1136 168.205 1148.49 193.218 1153.29 220.153L1153.51 221.438C1159.69 258.04 1151.47 293.507 1128.81 327.055L1127.72 328.651C1106.71 359.141 1077.26 384.427 1035.01 408.383C999.227 428.484 959.235 444.632 912.773 457.59L908.257 458.833C842.788 475.88 771.187 485.331 706.553 485.5H705.396C630.957 485.162 572.117 479.591 514.774 467.608C460.909 456.3 414.181 440.775 371.934 420.023L371.933 420.022L369.913 419.033C327.694 398.229 296.506 376.081 271.742 349.536C243.774 319.539 228.411 288.225 225.106 253.564V253.563C222.629 227.826 227.748 202.081 240.478 177.165V177.164C252.713 153.087 270.907 131.353 296.237 110.784C332.997 80.9381 377.054 57.9941 435.059 38.5859H435.061C478.477 23.9048 524.051 13.7783 573.94 7.5332Z" stroke="#C8E9F6"/>
<path d="M349.94 192.533C418.895 183.925 488.013 183.25 554.976 190.339H554.98C593.765 194.052 631.223 200.467 666.027 208.905V208.904C716.41 221.225 759.986 237.425 799.083 258.344C838.845 279.602 868.146 302.028 891.148 328.822C911.997 353.205 924.491 378.218 929.289 405.153L929.512 406.438C935.692 443.04 927.468 478.507 904.811 512.055L903.721 513.651C882.713 544.141 853.258 569.427 811.015 593.383C775.227 613.484 735.235 629.632 688.773 642.59L684.257 643.833C618.788 660.88 547.187 670.331 482.553 670.5H481.396C406.957 670.162 348.117 664.591 290.774 652.608C236.909 641.3 190.181 625.775 147.934 605.023L147.933 605.022L145.913 604.033C103.694 583.229 72.5056 561.081 47.7422 534.536C19.7744 504.539 4.41097 473.225 1.10645 438.564V438.563C-1.37138 412.826 3.74785 387.081 16.4775 362.165V362.164C28.7128 338.087 46.907 316.353 72.2373 295.784C108.997 265.938 153.054 242.994 211.059 223.586H211.061C254.477 208.905 300.051 198.778 349.94 192.533Z" stroke="#C8E9F6"/>
</svg>
