<svg width="1320" height="432" viewBox="0 0 1320 432" fill="none" xmlns="http://www.w3.org/2000/svg">
<g clip-path="url(#clip0_2106_283)">
<path d="M1094.97 -392.378C1018.79 -392.378 959.381 -387.201 900.871 -375.482C850.746 -365.456 801.949 -350.913 755.519 -329.027C717.997 -311.33 683.033 -290.103 653.897 -260.028C628.503 -233.765 610.642 -203.502 606.804 -166.743C604.104 -140.527 609.836 -115.77 621.775 -92.5665C635.23 -66.4918 654.749 -45.5944 677.443 -27.3798C719.324 6.03723 767.079 27.7818 817.725 44.6315C863.68 60.0222 910.773 70.0473 958.718 76.0717C1028.03 84.779 1097.48 86.0968 1167.32 79.2252C1205.5 75.554 1243.36 69.7178 1280.69 61.0105C1327.64 49.997 1373.03 34.7946 1415.95 12.7206C1450.77 -5.16459 1483.08 -26.7209 1509.14 -56.2785C1528.47 -78.1643 1542.63 -102.592 1547.85 -131.632C1554.76 -169.896 1544.67 -204.349 1522.59 -235.742C1498.53 -270.006 1465.74 -294.245 1429.55 -314.437C1388.99 -336.981 1345.93 -352.89 1301.2 -364.892C1228.2 -384.001 1153.86 -392.19 1094.97 -392.378Z" fill="url(#paint0_linear_2106_283)" style="mix-blend-mode:screen"/>
</g>
<g clip-path="url(#clip1_2106_283)">
<path d="M394.101 774.811C463.364 774.811 517.38 770.078 570.576 759.363C616.149 750.197 660.516 736.9 702.729 716.89C736.843 700.71 768.632 681.303 795.123 653.805C818.211 629.794 834.45 602.124 837.939 568.516C840.394 544.547 835.182 521.913 824.327 500.698C812.094 476.858 794.348 457.752 773.715 441.098C735.637 410.546 692.218 390.665 646.172 375.26C604.39 361.188 561.574 352.022 517.983 346.514C454.965 338.553 391.818 337.348 328.326 343.631C293.608 346.988 259.192 352.324 225.249 360.284C182.562 370.354 141.297 384.253 102.272 404.435C70.6122 420.787 41.2355 440.496 17.5446 467.52C-0.0297494 487.53 -12.909 509.864 -17.6471 536.414C-23.936 571.399 -14.7612 602.899 5.31146 631.601C27.1932 662.928 57.0007 685.09 89.9095 703.55C126.781 724.163 165.936 738.708 206.598 749.681C272.976 767.152 340.559 774.639 394.101 774.811Z" fill="url(#paint1_linear_2106_283)" style="mix-blend-mode:screen"/>
</g>
<g clip-path="url(#clip2_2106_283)">
<path d="M93.9131 250.826C31.8792 243.232 -30.3017 242.637 -90.541 248.89L-90.5518 248.891C-125.44 252.166 -159.135 257.823 -190.441 265.266C-235.76 276.133 -274.945 290.419 -310.094 308.86C-345.844 327.602 -372.161 347.358 -392.812 370.946V370.947C-411.824 392.748 -423.074 415.095 -427.218 439.184C-432.842 471.844 -425.159 503.482 -404.096 533.402L-404.095 533.403C-385.245 560.228 -358.803 582.498 -320.825 603.617C-287.617 621.907 -250.373 636.488 -206.849 648.098C-147.953 663.136 -83.5389 671.473 -25.3994 671.622H-24.3613C42.6226 671.324 95.555 666.408 147.133 655.839H147.132C195.587 645.865 237.608 632.174 275.593 613.878L275.595 613.876L277.41 613.004C315.373 594.661 343.391 575.146 365.626 551.775C390.736 525.366 404.497 497.837 407.457 467.392V467.391L407.556 466.332C409.531 444.083 404.915 421.832 393.681 400.269L393.68 400.267C382.708 379.096 366.386 359.97 343.632 341.852C310.604 315.557 271.005 295.332 218.833 278.214L218.83 278.213C179.784 265.267 138.793 256.335 93.9131 250.826Z" stroke="white" stroke-width="2"/>
</g>
<g clip-path="url(#clip3_2106_283)">
<path d="M1226.09 182.174C1288.12 189.768 1350.3 190.363 1410.54 184.11L1410.55 184.109C1445.44 180.834 1479.13 175.177 1510.44 167.734C1555.76 156.867 1594.94 142.581 1630.09 124.14C1665.84 105.398 1692.16 85.6417 1712.81 62.0542V62.0532C1731.82 40.2517 1743.07 17.9048 1747.22 -6.18408C1752.84 -38.8437 1745.16 -70.482 1724.1 -100.402L1724.09 -100.403C1705.25 -127.228 1678.8 -149.498 1640.83 -170.617C1607.62 -188.907 1570.37 -203.488 1526.85 -215.098C1467.95 -230.136 1403.54 -238.473 1345.4 -238.622H1344.36C1277.38 -238.324 1224.44 -233.408 1172.87 -222.839H1172.87C1124.41 -212.865 1082.39 -199.174 1044.41 -180.878L1044.41 -180.876L1042.59 -180.004C1004.63 -161.661 976.609 -142.146 954.374 -118.775C929.264 -92.3658 915.503 -64.8368 912.543 -34.3921V-34.3911L912.444 -33.3315C910.469 -11.0828 915.085 11.1684 926.319 32.731L926.32 32.7329C937.292 53.9037 953.614 73.0304 976.368 91.1479C1009.4 117.443 1048.99 137.668 1101.17 154.786L1101.17 154.787C1140.22 167.733 1181.21 176.665 1226.09 182.174Z" stroke="white" stroke-width="2"/>
</g>
<defs>
<linearGradient id="paint0_linear_2106_283" x1="663.951" y1="-74.8764" x2="1486.02" y2="-235.035" gradientUnits="userSpaceOnUse">
<stop stop-color="#0B70A7" stop-opacity="0"/>
<stop offset="1" stop-color="#0B70A7"/>
</linearGradient>
<linearGradient id="paint1_linear_2106_283" x1="785.981" y1="484.524" x2="38.2635" y2="629.386" gradientUnits="userSpaceOnUse">
<stop stop-color="#0B70A7" stop-opacity="0"/>
<stop offset="1" stop-color="#0B70A7"/>
</linearGradient>
<clipPath id="clip0_2106_283">
<rect width="914" height="182" fill="white" transform="matrix(1 -8.74228e-08 -8.74228e-08 -1 406 182.622)"/>
</clipPath>
<clipPath id="clip1_2106_283">
<rect width="914" height="113" fill="white" transform="matrix(-1 0 0 1 914 319)"/>
</clipPath>
<clipPath id="clip2_2106_283">
<rect width="409" height="188" fill="white" transform="matrix(-1 0 0 1 409 244)"/>
</clipPath>
<clipPath id="clip3_2106_283">
<rect width="409" height="188" fill="white" transform="matrix(1 0 0 -1 911 189)"/>
</clipPath>
</defs>
</svg>
