<svg width="325" height="317" viewBox="0 0 325 317" fill="none" xmlns="http://www.w3.org/2000/svg">
<g clip-path="url(#clip0_2107_557)">
<path d="M331.628 196C366.605 191.716 401.665 191.38 435.631 194.908H435.636C455.307 196.756 474.307 199.947 491.959 204.146V204.147C516.714 210.087 538.225 217.836 557.565 227.775L559.431 228.744C579.591 239.319 594.434 250.468 606.083 263.781V263.782C616.807 276.088 623.156 288.704 625.494 302.307C628.668 320.748 624.332 338.613 612.448 355.503L612.447 355.504C601.813 370.646 586.898 383.214 565.481 395.13C546.753 405.451 525.75 413.679 501.205 420.229C467.998 428.713 431.681 433.416 398.9 433.5H398.314C360.548 433.332 330.703 430.558 301.62 424.596C274.299 418.968 250.602 411.243 229.183 400.92H229.182C207.253 390.427 191.147 379.274 178.406 365.874C164.464 351.201 156.722 335.912 154.89 319.04L154.807 318.235L154.7 317.039C153.719 304.675 156.342 292.315 162.58 280.335V280.334C168.77 268.382 177.979 257.586 190.812 247.361C209.44 232.522 231.772 221.111 261.19 211.453L261.191 211.452C283.209 204.147 306.322 199.108 331.628 196Z" stroke="white"/>
<g clip-path="url(#clip1_2107_557)">
<path d="M120.599 -393C194.532 -393 252.189 -387.975 308.973 -376.6C357.618 -366.869 404.976 -352.753 450.035 -331.511C486.45 -314.334 520.382 -293.731 548.659 -264.539C573.303 -239.048 590.637 -209.674 594.361 -173.996C596.982 -148.55 591.419 -124.521 579.832 -101.999C566.774 -76.691 547.831 -56.4078 525.807 -38.7284C485.162 -6.29354 438.816 14.812 389.665 31.1665C345.066 46.1048 299.363 55.8353 252.833 61.6827C185.567 70.134 118.162 71.4132 50.3897 64.7434C13.331 61.1802 -23.4058 55.5155 -59.6369 47.0641C-105.202 36.3743 -149.249 21.6187 -190.905 0.193383C-224.7 -17.1661 -256.057 -38.089 -281.345 -66.7779C-300.104 -88.0204 -313.852 -111.73 -318.91 -139.916C-325.622 -177.057 -315.829 -210.497 -294.403 -240.967C-271.046 -274.224 -239.229 -297.751 -204.101 -317.349C-164.744 -339.231 -122.949 -354.672 -79.5455 -366.321C-8.6926 -384.868 63.4476 -392.817 120.599 -393Z" fill="url(#paint0_linear_2107_557)" style="mix-blend-mode:screen"/>
</g>
</g>
<defs>
<linearGradient id="paint0_linear_2107_557" x1="538.901" y1="-84.8291" x2="-258.912" y2="-240.244" gradientUnits="userSpaceOnUse">
<stop stop-color="#0B70A7" stop-opacity="0"/>
<stop offset="1" stop-color="#0B70A7"/>
</linearGradient>
<clipPath id="clip0_2107_557">
<rect width="325" height="317" fill="white"/>
</clipPath>
<clipPath id="clip1_2107_557">
<rect width="914" height="182" fill="white" transform="translate(809 182) rotate(-180)"/>
</clipPath>
</defs>
</svg>
