<svg width="1320" height="318" viewBox="0 0 1320 318" fill="none" xmlns="http://www.w3.org/2000/svg">
<g clip-path="url(#clip0_2107_549)">
<g clip-path="url(#clip1_2107_549)">
<path d="M1094.97 -393.378C1018.79 -393.378 959.381 -388.201 900.871 -376.482C850.746 -366.456 801.948 -351.913 755.519 -330.027C717.997 -312.33 683.033 -291.103 653.896 -261.028C628.502 -234.765 610.641 -204.502 606.804 -167.743C604.104 -141.527 609.836 -116.77 621.775 -93.5665C635.23 -67.4918 654.749 -46.5944 677.443 -28.3798C719.323 5.03723 767.079 26.7818 817.725 43.6315C863.68 59.0222 910.772 69.0473 958.718 75.0717C1028.03 83.779 1097.48 85.0968 1167.32 78.2252C1205.5 74.554 1243.36 68.7178 1280.69 60.0105C1327.64 48.997 1373.03 33.7946 1415.95 11.7206C1450.77 -6.16459 1483.08 -27.7209 1509.14 -57.2785C1528.47 -79.1643 1542.63 -103.592 1547.85 -132.632C1554.76 -170.896 1544.67 -205.349 1522.59 -236.742C1498.53 -271.006 1465.74 -295.245 1429.55 -315.437C1388.99 -337.981 1345.93 -353.89 1301.2 -365.892C1228.2 -385.001 1153.86 -393.19 1094.97 -393.378Z" fill="url(#paint0_linear_2107_549)" style="mix-blend-mode:screen"/>
</g>
<g clip-path="url(#clip2_2107_549)">
<path d="M1226.09 181.174C1288.12 188.768 1350.3 189.363 1410.54 183.11L1410.55 183.109C1445.44 179.834 1479.13 174.177 1510.44 166.734C1555.76 155.867 1594.94 141.581 1630.09 123.14C1665.84 104.398 1692.16 84.6417 1712.81 61.0542V61.0532C1731.82 39.2517 1743.07 16.9048 1747.22 -7.18408C1752.84 -39.8437 1745.16 -71.482 1724.1 -101.402L1724.09 -101.403C1705.25 -128.228 1678.8 -150.498 1640.83 -171.617C1607.62 -189.907 1570.37 -204.488 1526.85 -216.098C1467.95 -231.136 1403.54 -239.473 1345.4 -239.622H1344.36C1277.38 -239.324 1224.44 -234.408 1172.87 -223.839H1172.87C1124.41 -213.865 1082.39 -200.174 1044.41 -181.878L1044.41 -181.876L1042.59 -181.004C1004.63 -162.661 976.609 -143.146 954.374 -119.775C929.264 -93.3658 915.503 -65.8368 912.543 -35.3921V-35.3911L912.444 -34.3315C910.469 -12.0828 915.085 10.1684 926.319 31.731L926.32 31.7329C937.292 52.9037 953.614 72.0304 976.368 90.1479C1009.4 116.443 1048.99 136.668 1101.17 153.786L1101.17 153.787C1140.22 166.733 1181.21 175.665 1226.09 181.174Z" stroke="white" stroke-width="2"/>
</g>
</g>
<defs>
<linearGradient id="paint0_linear_2107_549" x1="663.951" y1="-75.8764" x2="1486.02" y2="-236.035" gradientUnits="userSpaceOnUse">
<stop stop-color="#0B70A7" stop-opacity="0"/>
<stop offset="1" stop-color="#0B70A7"/>
</linearGradient>
<clipPath id="clip0_2107_549">
<rect width="1320" height="318" fill="white"/>
</clipPath>
<clipPath id="clip1_2107_549">
<rect width="914" height="182" fill="white" transform="matrix(1 -8.74228e-08 -8.74228e-08 -1 406 181.622)"/>
</clipPath>
<clipPath id="clip2_2107_549">
<rect width="409" height="188" fill="white" transform="matrix(1 0 0 -1 911 188)"/>
</clipPath>
</defs>
</svg>
