<svg width="375" height="697" viewBox="0 0 375 697" fill="none" xmlns="http://www.w3.org/2000/svg">
<g clip-path="url(#clip0_2027_417)">
<path d="M4.25293 661.273C62.03 654.207 119.945 653.652 176.053 659.472L176.058 659.473C208.554 662.521 239.94 667.785 269.102 674.712V674.713C310.657 684.669 346.685 697.709 379.045 714.493L380.583 715.295C413.897 732.744 438.442 751.15 457.709 773.139C475.448 793.464 485.962 814.32 489.835 836.814C495.091 867.313 487.904 896.853 468.238 924.764C450.644 949.781 425.973 970.534 390.58 990.197C359.63 1007.23 324.924 1020.8 284.376 1031.61C229.521 1045.6 169.527 1053.36 115.371 1053.5H114.401C52.0267 1053.22 2.72466 1048.65 -45.3213 1038.81C-90.4551 1029.53 -129.606 1016.79 -165.002 999.752L-165.004 999.751C-201.237 982.438 -227.865 964.03 -248.937 941.9C-272.363 917.284 -285.226 891.594 -287.992 863.164V863.163L-288.085 862.174C-289.931 841.393 -285.615 820.616 -275.122 800.494V800.493C-264.876 780.739 -249.639 762.905 -228.42 746.024C-197.625 721.529 -160.714 702.697 -112.113 686.765H-112.112C-75.7356 674.713 -37.5497 666.4 4.25293 661.273Z" stroke="white" stroke-opacity="0.2"/>
</g>
<defs>
<clipPath id="clip0_2027_417">
<rect width="375" height="697" fill="white"/>
</clipPath>
</defs>
</svg>
