<svg width="1440" height="800" viewBox="0 0 1440 800" fill="none" xmlns="http://www.w3.org/2000/svg">
<g clip-path="url(#clip0_2027_361)">
<path d="M144.253 649.273C202.03 642.207 259.945 641.652 316.053 647.472L316.058 647.473C348.554 650.521 379.94 655.785 409.102 662.712V662.713C450.657 672.669 486.685 685.709 519.045 702.493L520.583 703.295C553.897 720.744 578.442 739.15 597.709 761.139C615.448 781.464 625.962 802.32 629.835 824.814C635.091 855.313 627.904 884.853 608.238 912.764C590.644 937.781 565.973 958.534 530.58 978.197C499.63 995.229 464.924 1008.8 424.376 1019.61C369.521 1033.6 309.527 1041.36 255.371 1041.5H254.401C192.027 1041.22 142.725 1036.65 94.6787 1026.81C49.5449 1017.53 10.3937 1004.79 -25.002 987.752L-25.0039 987.751C-61.2368 970.438 -87.8649 952.03 -108.937 929.9C-132.363 905.284 -145.226 879.594 -147.992 851.164V851.163L-148.085 850.174C-149.931 829.393 -145.615 808.616 -135.122 788.494V788.493C-124.876 768.739 -109.639 750.905 -88.4199 734.024C-57.6253 709.529 -20.714 690.697 27.8867 674.765H27.8877C64.2644 662.713 102.45 654.4 144.253 649.273Z" stroke="white" stroke-opacity="0.2"/>
<path d="M968.376 -340.468C1048.66 -350.299 1129.13 -351.07 1207.09 -342.974H1207.1C1252.25 -338.733 1295.86 -331.408 1336.38 -321.771V-321.77C1394.13 -307.918 1444.19 -289.774 1489.17 -266.42L1491.3 -265.304C1537.6 -241.024 1571.72 -215.409 1598.51 -184.802V-184.801C1623.17 -156.506 1637.8 -127.465 1643.18 -96.1338C1650.38 -54.3179 1640.8 -13.7998 1614.42 24.5244L1613.15 26.3486C1588.68 61.1781 1554.38 90.0615 1505.2 117.423C1462.85 140.752 1415.46 159.418 1360.25 174.337L1357.61 175.044C1281.39 194.513 1198.02 205.307 1122.77 205.5H1121.42C1034.76 205.114 966.253 198.752 899.49 185.066C836.775 172.151 782.369 154.419 733.179 130.718H733.178C683.612 107.005 646.971 81.8098 617.896 51.6465L616.517 50.207C583.948 15.9407 566.055 -19.8324 562.206 -59.4297V-59.4307C559.32 -88.8351 565.282 -118.246 580.107 -146.711V-146.712C594.356 -174.218 615.544 -199.046 645.04 -222.54C687.844 -256.631 739.144 -282.836 806.678 -305.002H806.68C857.229 -321.77 910.291 -333.335 968.376 -340.468Z" stroke="white" stroke-opacity="0.2"/>
</g>
<defs>
<clipPath id="clip0_2027_361">
<rect width="1440" height="800" fill="white"/>
</clipPath>
</defs>
</svg>
