<svg width="25" height="25" viewBox="0 0 25 25" fill="none" xmlns="http://www.w3.org/2000/svg">
<path d="M16.999 2.42682H7.19333C4.54316 2.42682 2.42302 4.55028 2.42302 7.20461V16.9877C2.42302 19.642 4.58102 21.7655 7.19333 21.7655H16.9611C19.6113 21.7655 21.7314 19.642 21.7314 16.9877V7.20461C21.7693 4.55028 19.6113 2.42682 16.999 2.42682ZM18.3619 12.0962C18.3619 15.5468 15.5603 18.3528 12.1151 18.3528C8.66986 18.3528 5.86825 15.5468 5.83039 12.0962C5.83039 8.64553 8.632 5.83952 12.0772 5.83952C15.5603 5.83952 18.3619 8.64553 18.3619 12.0962ZM19.952 5.83952C19.952 6.71166 19.2706 7.3942 18.3998 7.3942C17.529 7.3942 16.8475 6.71166 16.8475 5.83952C16.8475 4.96739 17.529 4.28484 18.3998 4.28484C19.2327 4.28484 19.952 4.96739 19.952 5.83952ZM12.0772 8.26634C9.95709 8.26634 8.2534 9.97269 8.2534 12.0962C8.2534 14.2196 9.95709 15.926 12.0772 15.926C14.1974 15.926 15.901 14.2196 15.901 12.0962C15.9389 9.97269 14.1974 8.26634 12.0772 8.26634ZM24.1923 16.9877C24.1923 20.9692 20.9742 24.1923 16.999 24.1923H7.19333C3.21807 24.1923 0 20.9692 0 16.9877V7.20461C0 3.22311 3.21807 0 7.19333 0H16.9611C20.9364 0 24.1544 3.22311 24.1544 7.20461V16.9877H24.1923Z" fill="white"/>
</svg>
