<svg width="64" height="32" viewBox="0 0 64 32" fill="none" xmlns="http://www.w3.org/2000/svg">
<path d="M33.1574 32C28.008 32 23.9693 31.6353 19.9979 30.8728C16.5986 30.2097 13.3003 29.215 10.1367 27.7563C7.57879 26.5627 5.22287 25.1371 3.23716 23.1147C1.5207 21.3575 0.309083 19.3019 0.0398346 16.8485C-0.128446 15.0914 0.241771 13.4337 1.04952 11.8754C1.95823 10.1182 3.27082 8.72577 4.819 7.49906C7.6461 5.24458 10.9107 3.78579 14.3437 2.65855C17.5073 1.59762 20.671 0.901379 23.9356 0.503529C28.6475 -0.0932461 33.3257 -0.159554 38.0712 0.304604C40.6627 0.536683 43.2206 0.934533 45.7448 1.53131C48.9421 2.2607 52.0048 3.28848 54.8992 4.78042C57.2551 5.97397 59.4428 7.43275 61.2266 9.422C62.5391 10.8808 63.4815 12.5385 63.8517 14.4946C64.3229 17.0806 63.6498 19.3683 62.1353 21.4901C60.5198 23.7778 58.2648 25.4355 55.8416 26.7948C53.0818 28.3199 50.1874 29.3808 47.1583 30.1765C42.2109 31.4364 37.1625 32 33.1574 32ZM32.2823 29.6792C35.9509 29.6461 39.855 29.3145 43.7254 28.552C47.6632 27.7563 51.4663 26.5627 54.9665 24.5735C57.0196 23.4131 58.8706 22.0537 60.2505 20.1308C61.6977 18.0752 62.1016 15.8871 61.1592 13.5331C60.5534 12.0412 59.5101 10.8145 58.2985 9.7867C56.582 8.29476 54.63 7.16752 52.577 6.2392C49.7835 4.97934 46.8554 4.11733 43.86 3.48741C40.7637 2.85748 37.6 2.49278 34.47 2.39332C28.21 2.19439 22.0509 2.75801 16.0601 4.54834C13.7042 5.24458 11.4156 6.17289 9.2616 7.36644C7.10761 8.55999 5.1219 9.98562 3.742 12.0743C2.63135 13.6989 2.16017 15.4561 2.5977 17.4122C3.00157 19.2356 4.04491 20.6613 5.39115 21.888C7.20858 23.5788 9.32891 24.8055 11.6175 25.8333C15.3533 27.491 19.3248 28.4857 23.3635 29.0824C26.1906 29.4803 29.085 29.6792 32.2823 29.6792Z" fill="black"/>
<path d="M47.0573 15.8539C48.7401 17.379 49.9518 19.2688 51.399 20.9597C51.6009 21.2249 51.8365 21.4901 52.0384 21.7554C52.274 22.0869 52.1731 22.2858 51.8028 22.2858C51.0624 22.2858 50.2883 22.319 49.5479 22.2858C49.346 22.2858 49.1104 22.1532 48.9757 21.9875C48.269 21.1254 47.5622 20.2303 46.8891 19.3351C46.4515 18.7715 46.014 18.2079 45.5765 17.6443C45.2399 17.2133 44.8024 17.0143 44.2639 16.9812C43.6244 16.948 43.0186 16.948 42.3792 16.948C42.0762 16.948 42.0426 17.1469 42.0426 17.379C42.0426 18.7715 42.0426 20.1308 42.0426 21.5233C42.0426 22.2195 41.9753 22.2858 41.2685 22.2858C40.831 22.2858 40.3934 22.2858 39.9559 22.2858C39.3164 22.2858 39.2491 22.2195 39.2491 21.6228C39.2491 18.6389 39.2491 15.655 39.2491 12.6711C39.2491 12.5385 39.2155 12.4059 39.2155 12.2401C39.1818 12.2401 39.1482 12.207 39.1145 12.207C38.9462 12.5054 38.778 12.8037 38.6097 13.1021C37.1288 15.7876 35.6143 18.4731 34.1334 21.1918C33.6959 21.9875 33.0228 22.3853 32.1141 22.319C31.8111 22.2858 31.5082 22.319 31.2053 22.319C30.3976 22.319 29.7918 21.9543 29.3879 21.2581C28.7148 20.0645 28.0417 18.871 27.3685 17.6774C26.3252 15.9202 25.3828 14.2625 24.4405 12.5385C24.3058 12.3064 24.1376 12.207 23.8347 12.207C21.1085 12.207 18.3824 12.207 15.6562 12.207C14.9831 12.207 14.7139 12.4722 14.6802 13.1353C14.6802 13.4337 14.6802 13.7321 14.6802 13.9973C14.7139 14.4946 14.9831 14.7598 15.488 14.793C15.6562 14.793 15.8582 14.793 16.0265 14.793C18.2141 14.793 20.3681 14.793 22.5557 14.793C23.2288 14.793 23.8683 14.8925 24.4405 15.2572C25.1809 15.7213 25.5848 16.4176 25.6521 17.2464C25.7194 18.0753 25.7194 18.9373 25.6521 19.7993C25.5511 21.1254 24.6087 22.0538 23.2625 22.1864C22.825 22.2195 22.4211 22.2527 21.9836 22.2527C18.8872 22.2527 15.7572 22.2527 12.6272 22.2527C11.9877 22.2527 11.9204 22.1864 11.9204 21.5565C11.9204 21.1254 11.9204 20.6613 11.9204 20.2303C11.9204 19.8987 12.0887 19.7661 12.3916 19.7661C12.5262 19.7661 12.6608 19.7661 12.7955 19.7661C15.7909 19.7661 18.7862 19.7661 21.7816 19.7661C22.5894 19.7661 22.8923 19.5009 22.8923 18.672C22.8923 18.4068 22.8923 18.1416 22.8923 17.9095C22.8586 17.3127 22.5894 17.0475 21.9836 17.0475C19.7286 17.0475 17.5073 17.0475 15.2524 17.0143C14.7812 17.0143 14.31 16.9812 13.8388 16.8486C12.8628 16.5833 12.156 15.9534 12.055 14.9919C11.9204 13.931 11.8868 12.8369 12.0214 11.776C12.1897 10.5493 13.1657 9.85303 14.411 9.75356C14.8485 9.72041 15.2524 9.72041 15.6899 9.72041C18.9209 9.72041 22.1182 9.72041 25.3155 9.72041C25.7531 9.72041 25.9886 9.88618 26.1569 10.2509C27.8397 13.3342 29.5562 16.4176 31.2726 19.5009C31.34 19.6004 31.4746 19.733 31.5756 19.733C31.7102 19.6998 31.8785 19.6004 31.9458 19.4677C32.7872 17.9426 33.6286 16.3844 34.47 14.8262C35.3114 13.2679 36.1528 11.7097 37.0278 10.1514C37.1961 9.85303 37.3981 9.72041 37.7683 9.72041C38.9462 9.75356 40.1242 9.72041 41.3022 9.72041C41.8743 9.72041 41.9753 9.78672 41.9753 10.3503C41.9753 11.7097 41.9753 13.069 41.9753 14.4283C41.9753 14.7598 42.0762 14.8925 42.4128 14.8925C42.9176 14.8593 43.3888 14.8593 43.8937 14.8593C44.4995 14.8593 44.9707 14.6272 45.3072 14.1299C46.3506 12.7706 47.3939 11.4113 48.4372 10.0188C48.6055 9.78672 48.8075 9.68726 49.0767 9.68726C49.7835 9.68726 50.4566 9.68726 51.1634 9.68726C51.298 9.68726 51.4999 9.75356 51.5673 9.81987C51.6009 9.91934 51.5336 10.1183 51.4326 10.2177C49.9854 12.0744 48.5046 13.8978 47.0237 15.7213C47.0573 15.7876 47.0573 15.8208 47.0573 15.8539Z" fill="black"/>
</svg>
