<svg width="32" height="33" viewBox="0 0 32 33" fill="none" xmlns="http://www.w3.org/2000/svg">
<path d="M8.22172 24.678C8.68559 25.1425 9.23669 25.5108 9.84334 25.7617C10.45 26.0126 11.1002 26.1412 11.7567 26.14C12.4133 26.1411 13.0637 26.0126 13.6705 25.7617C14.2774 25.5108 14.8286 25.1425 15.2927 24.678L18.1207 21.849L16.7067 20.435L13.8787 23.264C13.3152 23.825 12.5524 24.14 11.7572 24.14C10.962 24.14 10.1992 23.825 9.63572 23.264C9.07422 22.7007 8.75892 21.9378 8.75892 21.1425C8.75892 20.3472 9.07422 19.5843 9.63572 19.021L12.4647 16.193L11.0507 14.779L8.22172 17.607C7.28552 18.5454 6.75977 19.8169 6.75977 21.1425C6.75977 22.4681 7.28552 23.7395 8.22172 24.678ZM23.7777 16.193C24.7134 15.2543 25.2388 13.9829 25.2388 12.6575C25.2388 11.3321 24.7134 10.0607 23.7777 9.12199C22.8393 8.18579 21.5678 7.66003 20.2422 7.66003C18.9166 7.66003 17.6452 8.18579 16.7067 9.12199L13.8787 11.951L15.2927 13.365L18.1207 10.536C18.6842 9.97498 19.447 9.66002 20.2422 9.66002C21.0374 9.66002 21.8002 9.97498 22.3637 10.536C22.9252 11.0993 23.2405 11.8622 23.2405 12.6575C23.2405 13.4528 22.9252 14.2157 22.3637 14.779L19.5347 17.607L20.9487 19.021L23.7777 16.193ZM12.4637 21.8501L11.0487 20.4361L19.5357 11.9501L20.9497 13.3651L12.4637 21.8501Z" fill="#111B51"/>
<path d="M8.22172 24.678C8.68559 25.1425 9.23669 25.5108 9.84334 25.7617C10.45 26.0126 11.1002 26.1412 11.7567 26.14C12.4133 26.1411 13.0637 26.0126 13.6705 25.7617C14.2774 25.5108 14.8286 25.1425 15.2927 24.678L18.1207 21.849L16.7067 20.435L13.8787 23.264C13.3152 23.825 12.5524 24.14 11.7572 24.14C10.962 24.14 10.1992 23.825 9.63572 23.264C9.07422 22.7007 8.75892 21.9378 8.75892 21.1425C8.75892 20.3472 9.07422 19.5843 9.63572 19.021L12.4647 16.193L11.0507 14.779L8.22172 17.607C7.28552 18.5454 6.75977 19.8169 6.75977 21.1425C6.75977 22.4681 7.28552 23.7395 8.22172 24.678ZM23.7777 16.193C24.7134 15.2543 25.2388 13.9829 25.2388 12.6575C25.2388 11.3321 24.7134 10.0607 23.7777 9.12199C22.8393 8.18579 21.5678 7.66003 20.2422 7.66003C18.9166 7.66003 17.6452 8.18579 16.7067 9.12199L13.8787 11.951L15.2927 13.365L18.1207 10.536C18.6842 9.97498 19.447 9.66002 20.2422 9.66002C21.0374 9.66002 21.8002 9.97498 22.3637 10.536C22.9252 11.0993 23.2405 11.8622 23.2405 12.6575C23.2405 13.4528 22.9252 14.2157 22.3637 14.779L19.5347 17.607L20.9487 19.021L23.7777 16.193ZM12.4637 21.8501L11.0487 20.4361L19.5357 11.9501L20.9497 13.3651L12.4637 21.8501Z" fill="#111B51"/>
</svg>
