<svg width="22" height="25" viewBox="0 0 22 25" fill="none" xmlns="http://www.w3.org/2000/svg">
<path d="M21.3462 10.2291C19.9817 10.2291 18.6838 9.96397 17.4192 9.43373C16.6205 9.10232 15.8884 8.6715 15.1895 8.14126L15.2228 16.9565C15.2228 18.945 14.4241 20.8008 12.9931 22.2258C11.8284 23.3857 10.3641 24.1148 8.7667 24.3468C8.40063 24.4131 8.00128 24.4462 7.63521 24.4462C5.93798 24.4462 4.30731 23.8828 2.97615 22.8886C2.70992 22.6898 2.47697 22.4909 2.24402 22.259C0.679903 20.7345 -0.118792 18.6798 0.0143237 16.4926C0.114161 14.8356 0.77974 13.2448 1.87795 12.0187C3.34222 10.3948 5.40552 9.46687 7.60193 9.46687C8.00128 9.46687 8.36735 9.50001 8.73342 9.56629V10.6268V13.5762C8.40063 13.4437 8.03456 13.3774 7.63521 13.3774C5.63847 13.3774 4.0078 15.0013 4.04108 16.9897C4.07436 18.2821 4.77322 19.3758 5.80487 20.0054C6.30405 20.3037 6.83652 20.4694 7.43554 20.5025C7.90144 20.5357 8.36735 20.4694 8.7667 20.3368C10.1977 19.8729 11.2293 18.5141 11.2293 16.9565V11.0576V0.253906H15.1895C15.1895 0.651588 15.2228 1.01613 15.3227 1.38067C15.6222 2.87198 16.4541 4.16444 17.6522 5.05923C18.6838 5.82145 19.9484 6.28541 21.3462 6.28541V7.3459V10.2291Z" fill="white"/>
</svg>
