<svg width="200" height="100" viewBox="0 0 200 100" fill="none" xmlns="http://www.w3.org/2000/svg">
<g clip-path="url(#clip0_2041_515)">
<mask id="mask0_2041_515" style="mask-type:luminance" maskUnits="userSpaceOnUse" x="5" y="34" width="190" height="32">
<path d="M195 34H5V66H195V34Z" fill="white"/>
</mask>
<g mask="url(#mask0_2041_515)">
<path d="M17.2158 65.3167V34.6848H27.7574C29.1793 34.6848 30.5098 34.9203 31.7524 35.3913C32.9915 35.8623 34.0735 36.5239 34.9946 37.3798C35.9157 38.2358 36.6394 39.2562 37.1694 40.4374C37.6994 41.6223 37.9627 42.9268 37.9627 44.351C37.9627 45.7751 37.6957 47.1245 37.1694 48.3094C36.6394 49.4943 35.9157 50.511 34.9946 51.367C34.0735 52.223 32.9915 52.8846 31.7524 53.3555C30.5098 53.8265 29.1793 54.0621 27.7574 54.0621H22.8631V65.313H17.2158V65.3167ZM27.8415 48.5898C29.3182 48.5898 30.4366 48.1599 31.1896 47.3076C31.9426 46.4517 32.319 45.4686 32.319 44.3547C32.319 43.8127 32.2277 43.2857 32.0485 42.7736C31.8658 42.2615 31.588 41.8092 31.2115 41.4242C30.835 41.0392 30.3671 40.7327 29.8115 40.5047C29.2523 40.2767 28.598 40.1608 27.845 40.1608H22.8668V48.5898H27.845H27.8415Z" fill="#CCCCCC"/>
<path d="M40.2251 34.6848H51.1432C52.6491 34.6848 54.0162 34.9278 55.2443 35.4137C56.4725 35.8996 57.5251 36.5687 58.4024 37.4247C59.2796 38.2807 59.9558 39.3011 60.4309 40.4823C60.9062 41.6672 61.1437 42.9567 61.1437 44.3547C61.1437 45.3826 60.9756 46.3433 60.643 47.2441C60.3066 48.1413 59.8499 48.9561 59.2614 49.6813C58.6765 50.4101 57.993 51.0493 57.2108 51.6062C56.4285 52.1631 55.6061 52.5967 54.7435 52.9107L54.7034 53.2098L62.7375 64.9766V65.3205H56.2532L48.5115 53.8115L45.876 49.913V65.3205H40.2288V34.6848H40.2251ZM51.103 48.5038C52.3859 48.5038 53.4387 48.1038 54.2611 47.3076C55.0835 46.5077 55.4965 45.4948 55.4965 44.2687C55.4965 43.7267 55.4052 43.1997 55.226 42.6839C55.0432 42.1718 54.7728 41.7158 54.4108 41.3158C54.049 40.9159 53.5958 40.5944 53.0512 40.3552C52.5066 40.1122 51.8852 39.9926 51.1907 39.9926H45.876V48.5075H51.1066L51.103 48.5038Z" fill="#CCCCCC"/>
<path d="M172.492 34.6848H183.41C184.916 34.6848 186.283 34.9278 187.511 35.4137C188.739 35.8996 189.791 36.5687 190.668 37.4247C191.546 38.2807 192.223 39.3011 192.698 40.4823C193.173 41.6672 193.41 42.9567 193.41 44.3547C193.41 45.3826 193.241 46.3433 192.909 47.2441C192.574 48.1413 192.116 48.9561 191.527 49.6813C190.943 50.4101 190.259 51.0493 189.477 51.6062C188.694 52.1631 187.872 52.5967 187.01 52.9107L186.97 53.2098L195.004 64.9766V65.3205H188.519L180.778 53.8115L178.143 49.913V65.3205H172.496V34.6848H172.492ZM183.369 48.5038C184.652 48.5038 185.705 48.1038 186.528 47.3076C187.35 46.5077 187.763 45.4948 187.763 44.2687C187.763 43.7267 187.672 43.1997 187.492 42.6839C187.309 42.1718 187.039 41.7158 186.677 41.3158C186.316 40.9159 185.862 40.5944 185.318 40.3552C184.773 40.1122 184.152 39.9926 183.458 39.9926H178.143V48.5075H183.373L183.369 48.5038Z" fill="#CCCCCC"/>
<path d="M78.5902 66.0011C76.3569 66.0011 74.288 65.5862 72.3764 64.7601C70.4647 63.9341 68.8126 62.7977 67.4199 61.3586C66.0237 59.9195 64.9308 58.2226 64.134 56.2677C63.3407 54.3127 62.9424 52.2233 62.9424 49.9991C62.9424 47.7751 63.3407 45.6857 64.134 43.7308C64.9308 41.7759 66.0237 40.0789 67.4199 38.6398C68.8126 37.2007 70.4684 36.0644 72.3764 35.2383C74.288 34.4122 76.3569 33.9973 78.5902 33.9973C80.8235 33.9973 82.8924 34.4122 84.804 35.2383C86.7156 36.0644 88.3678 37.2007 89.7605 38.6398C91.153 40.0789 92.2496 41.7759 93.0427 43.7308C93.8395 45.6857 94.2343 47.7751 94.2343 49.9991C94.2343 52.2233 93.836 54.3127 93.0427 56.2677C92.2496 58.2226 91.153 59.9195 89.7605 61.3586C88.3641 62.7977 86.712 63.9341 84.804 64.7601C82.8924 65.5862 80.8235 66.0011 78.5902 66.0011ZM78.5902 60.5251C79.9829 60.5251 81.2877 60.2671 82.5012 59.7551C83.7148 59.243 84.7747 58.529 85.6813 57.617C86.5878 56.705 87.2968 55.5986 87.8159 54.3015C88.3313 53.0045 88.5908 51.5691 88.5908 50.003C88.5908 48.4367 88.3313 47.0014 87.8159 45.7044C87.3005 44.4073 86.5878 43.3009 85.6813 42.3889C84.7747 41.4768 83.7148 40.7629 82.5012 40.2508C81.2877 39.7387 79.9829 39.4808 78.5902 39.4808C77.1975 39.4808 75.8927 39.7387 74.6791 40.2508C73.4656 40.7629 72.4056 41.4768 71.4991 42.3889C70.5927 43.3009 69.8799 44.4073 69.3645 45.7044C68.8491 47.0014 68.5896 48.4367 68.5896 50.003C68.5896 51.5691 68.8491 53.0045 69.3645 54.3015C69.8799 55.5986 70.5927 56.705 71.4991 57.617C72.4056 58.529 73.4656 59.243 74.6791 59.7551C75.8927 60.2671 77.1975 60.5251 78.5902 60.5251Z" fill="#CCCCCC"/>
<path d="M106.201 65.9988C104.918 65.9988 103.69 65.8118 102.521 65.4417C101.351 65.0717 100.276 64.5148 99.3003 63.7746C98.3243 63.0345 97.4727 62.1262 96.749 61.0572C96.0216 59.9882 95.4513 58.7397 95.0347 57.3118L100.349 55.1738C100.74 56.7138 101.424 57.9921 102.4 59.0014C103.376 60.0144 104.659 60.519 106.249 60.519C106.834 60.519 107.4 60.4405 107.945 60.2834C108.489 60.1265 108.976 59.8985 109.411 59.5994C109.842 59.3004 110.185 58.9229 110.434 58.4669C110.686 58.0109 110.81 57.4838 110.81 56.8857C110.81 56.2877 110.712 55.8017 110.518 55.3457C110.324 54.8897 109.995 54.4636 109.535 54.0637C109.074 53.6637 108.475 53.2786 107.736 52.9086C106.998 52.5386 106.084 52.1536 104.995 51.7537L103.153 51.0696C102.345 50.7856 101.526 50.4005 100.704 49.9146C99.8815 49.4286 99.1358 48.8456 98.4669 48.1616C97.798 47.4776 97.2461 46.6701 96.8147 45.7431C96.3835 44.8161 96.1678 43.7695 96.1678 42.5996C96.1678 41.4296 96.3981 40.2821 96.8587 39.243C97.3192 38.2038 97.9735 37.288 98.8252 36.5031C99.6767 35.7181 100.693 35.1051 101.881 34.664C103.065 34.223 104.385 34.0024 105.836 34.0024C107.287 34.0024 108.647 34.208 109.747 34.6229C110.847 35.0378 111.783 35.5649 112.55 36.2078C113.318 36.8507 113.939 37.5572 114.411 38.3234C114.886 39.0934 115.233 39.8223 115.456 40.5064L110.478 42.6444C110.2 41.7885 109.688 41.0184 108.95 40.3344C108.212 39.6504 107.199 39.3065 105.916 39.3065C104.633 39.3065 103.672 39.5981 102.86 40.1849C102.053 40.7717 101.647 41.5343 101.647 42.4725C101.647 43.4107 102.038 44.162 102.817 44.8049C103.599 45.4478 104.838 46.0683 106.541 46.6664L108.424 47.3093C109.623 47.7354 110.719 48.2288 111.706 48.7857C112.696 49.3428 113.548 50.0044 114.257 50.7744C114.97 51.5444 115.511 52.4228 115.888 53.4058C116.264 54.3889 116.45 55.5252 116.45 56.8073C116.45 58.4033 116.136 59.7826 115.511 60.9376C114.882 62.0926 114.082 63.0421 113.106 63.7821C112.13 64.526 111.026 65.0792 109.802 65.4493C108.573 65.8193 107.375 66.0062 106.205 66.0062L106.201 65.9988Z" fill="#CCCCCC"/>
<path d="M125.281 65.3167V40.1608H116.915V34.6848H139.295V40.1608H130.929V65.3167H125.281Z" fill="#CCCCCC"/>
<path d="M154.766 66.0037C152.532 66.0037 150.464 65.5888 148.552 64.7628C146.64 63.9367 144.988 62.8004 143.596 61.3613C142.199 59.9223 141.106 58.2252 140.309 56.2703C139.516 54.3153 139.118 52.2259 139.118 50.0019C139.118 47.7779 139.516 45.6884 140.309 43.7334C141.102 41.7785 142.199 40.0815 143.596 38.6425C144.988 37.2034 146.644 36.0671 148.552 35.241C150.464 34.4149 152.532 34 154.766 34C156.999 34 159.068 34.4149 160.98 35.241C162.891 36.0671 164.543 37.2034 165.935 38.6425C167.329 40.0815 168.425 41.7785 169.218 43.7334C170.011 45.6884 170.41 47.7779 170.41 50.0019C170.41 52.2259 170.011 54.3153 169.218 56.2703C168.425 58.2252 167.329 59.9223 165.935 61.3613C164.539 62.8004 162.887 63.9367 160.98 64.7628C159.068 65.5888 156.999 66.0037 154.766 66.0037ZM154.766 60.5277C156.158 60.5277 157.463 60.2699 158.677 59.7577C159.89 59.2456 160.951 58.5317 161.857 57.6197C162.763 56.7076 163.476 55.6012 163.992 54.3041C164.506 53.0071 164.766 51.5717 164.766 50.0056C164.766 48.4395 164.506 47.0041 163.992 45.707C163.476 44.41 162.763 43.3036 161.857 42.3915C160.951 41.4795 159.89 40.7656 158.677 40.2535C157.463 39.7414 156.158 39.4835 154.766 39.4835C153.373 39.4835 152.068 39.7414 150.854 40.2535C149.642 40.7656 148.581 41.4795 147.674 42.3915C146.768 43.3036 146.055 44.41 145.539 45.707C145.025 47.0041 144.765 48.4395 144.765 50.0056C144.765 51.5717 145.025 53.0071 145.539 54.3041C146.055 55.6012 146.768 56.7076 147.674 57.6197C148.581 58.5317 149.642 59.2456 150.854 59.7577C152.068 60.2699 153.373 60.5277 154.766 60.5277Z" fill="#CCCCCC"/>
<path d="M9.15618 65.5769C9.73736 65.5769 10.2783 65.4685 10.7827 65.2554C11.2871 65.0424 11.7294 64.747 12.1059 64.3658C12.4824 63.9845 12.7785 63.5285 12.9941 62.9865C13.2098 62.4482 13.3158 61.8502 13.3158 61.1998C13.3158 60.5494 13.2098 59.9513 12.9941 59.4132C12.7785 58.8749 12.4824 58.415 12.1059 58.0338C11.7294 57.6525 11.2871 57.3573 10.7827 57.1442C10.2783 56.9312 9.73736 56.8228 9.15618 56.8228C8.575 56.8228 8.03404 56.9312 7.52962 57.1442C7.02521 57.3573 6.58293 57.6525 6.20645 58.0338C5.82996 58.415 5.53389 58.8712 5.31824 59.4132C5.10258 59.9513 4.99658 60.5494 4.99658 61.1998C4.99658 61.8502 5.10258 62.4482 5.31824 62.9865C5.53389 63.5248 5.82996 63.9845 6.20645 64.3658C6.58293 64.747 7.02521 65.0424 7.52962 65.2554C8.03404 65.4685 8.575 65.5769 9.15618 65.5769Z" fill="#CCCCCC"/>
</g>
</g>
<defs>
<clipPath id="clip0_2041_515">
<rect width="190" height="32" fill="white" transform="translate(5 34)"/>
</clipPath>
</defs>
</svg>
