<svg width="200" height="100" viewBox="0 0 200 100" fill="none" xmlns="http://www.w3.org/2000/svg">
<g clip-path="url(#clip0_2041_518)">
<path d="M86.353 39.3789C89.1149 39.2145 91.805 37.9037 91.9891 34.9852C92.1059 33.0258 90.5879 31.0117 87.5611 30.8746C86.024 30.7568 84.495 31.1916 83.2409 32.1032C82.401 32.7671 81.8226 33.715 81.6107 34.7751C81.3098 36.0311 81.476 37.0907 82.0957 37.8991C82.8906 38.9496 84.4265 39.4702 86.353 39.3606" fill="#CCCCCC"/>
<path d="M165.72 42.8727C165.339 43.7861 164.53 44.6996 163.807 44.8366L163.47 44.928C163.47 44.928 163.74 42.9412 163.749 42.3429C163.749 39.6345 163.089 36.8074 158.926 37.1134C156.375 37.3006 152.688 39.6299 152.189 44.5032V44.5306V44.5626C152.185 44.5959 152.185 44.6297 152.189 44.6631C151.579 46.3666 150.456 48.7736 149.634 48.8786C149.548 48.8884 149.461 48.8783 149.379 48.849C149.298 48.8197 149.223 48.7721 149.162 48.7096C149.078 48.6199 149.012 48.5128 148.971 48.3955C148.93 48.2781 148.914 48.1532 148.924 48.0291C149.006 47.2317 149.156 46.4431 149.374 45.6724C149.711 44.3233 149.941 42.9487 150.061 41.5619C150.317 38.2369 148.305 37.6112 146.243 37.803C144.999 37.9408 143.832 38.4876 142.92 39.3605L142.188 40.2374C142.188 40.2374 142.503 38.5886 142.597 38.141L137.94 38.3785L136.417 45.1472C135.935 45.8892 135.234 46.4568 134.414 46.7686L134.109 46.8508L134.069 46.5037C134.032 46.1606 133.974 45.8204 133.893 45.4852C133.777 44.7361 133.081 42.1556 130.611 42.4068C124.22 43.0554 124.534 51.0846 128.329 49.9017L128.778 49.7555L128.702 50.2123C128.253 53.4093 126.906 55.1358 125.082 55.4189C124.949 55.439 124.812 55.4281 124.683 55.3869C124.554 55.3458 124.436 55.2756 124.337 55.1814C124.152 54.9674 124.011 54.7174 123.924 54.4465C123.837 54.1757 123.805 53.8896 123.829 53.6057C123.829 52.0346 126.704 38.9037 126.704 38.9037L120.776 39.2235C120.502 40.4201 119.357 45.6496 119.357 45.6633L119.181 46.3392C118.957 47.2298 118.809 47.8145 118.732 48.431V48.463C118.732 48.5041 118.701 48.5407 118.687 48.5772C117.789 51.0618 116.208 53.7473 114.964 53.9254C114.852 53.9421 114.737 53.9331 114.628 53.8992C114.52 53.8652 114.42 53.8071 114.336 53.7291C114.24 53.6338 114.165 53.5191 114.115 53.3925C114.066 53.2658 114.043 53.1299 114.048 52.9937L114.134 51.9113C114.134 51.9113 117.107 40.1552 117.313 39.3787C116.608 39.4198 110.554 39.6208 110.554 39.6208L109.984 41.7628C109.795 40.0182 106.162 37.7437 103.499 40.2694C100.674 42.9458 99.9469 46.8919 99.5787 50.774L99.5338 50.9156C98.9904 55.6016 97.9844 58.8215 94.7914 59.292C94.1678 59.441 93.5127 59.3668 92.9367 59.0819C93.8408 58.42 94.6044 57.5797 95.1821 56.611C96.3362 54.5831 95.7704 52.8384 94.5264 52.0437C92.0205 50.4178 89.3529 52.5005 88.8993 55.0627C88.6936 56.3355 88.9679 57.6404 89.6673 58.7165C88.8275 59.2372 88.1404 59.7807 86.9728 59.9679C86.672 60.0283 86.3613 60.0146 86.0668 59.928C85.7723 59.8414 85.5024 59.6844 85.2797 59.4701C84.5567 58.511 85.4638 55.3596 85.5986 54.9668C85.5986 54.9668 89.7661 41.635 90.0131 40.8083C89.2451 40.854 81.1705 41.265 80.7753 41.2879C80.5149 42.1191 79.5493 45.3984 78.5299 48.3899C76.5449 54.2817 70.6798 62.3566 64.5184 64.1013C61.2445 65.0147 58.6802 64.9051 57.0276 63.9095C54.7821 62.5393 53.4663 59.2372 54.2477 54.5649C54.551 52.331 55.1934 50.1585 56.1518 48.125C61.1637 36.8576 69.5347 39.2463 69.0407 40.0958C68.4923 40.2938 67.9631 40.543 67.4599 40.8403C66.1441 41.5984 64.0423 43.7496 63.9929 46.3575C63.966 48.052 64.442 49.4084 65.3402 50.2899C65.8356 50.7358 66.4218 51.0649 67.0569 51.2536C67.6919 51.4423 68.3602 51.486 69.0137 51.3815C70.6452 51.2402 72.1643 50.4785 73.2681 49.2485C74.3718 48.0185 74.9791 46.4105 74.9686 44.7453C75.0091 42.7128 74.4252 41.0915 73.2531 39.8766C71.3804 37.9583 69.2113 37.0083 64.3836 37.223C56.9872 37.5473 45.7599 43.1467 42.6927 55.1677C41.6598 59.2372 43.1822 64.0876 45.5983 66.2662C48.953 69.2897 53.0711 70.3767 60.2385 68.8741C66.6291 67.5404 71.816 63.0188 75.6153 58.2872C75.6153 58.3648 75.6153 58.4379 75.5884 58.5064C74.7351 61.9364 76.0375 65.5674 81.6421 64.7361C85.0171 64.1385 88.2028 62.7291 90.9337 60.6256C92.281 61.772 94.5264 62.4525 97.1581 61.9958C98.2134 61.8131 100.939 61.0275 103.288 57.497C105.143 54.6973 106.005 49.276 106.49 46.3758C106.583 45.4819 106.773 44.6011 107.056 43.7496C107.201 43.3219 107.495 42.9629 107.882 42.7402C108.879 42.2835 109.414 43.302 109.23 44.0419C109.045 44.7818 108.062 48.5132 108.062 48.5132L107.873 49.107C107.285 50.9339 106.625 52.9846 106.607 55.1677C106.607 56.7571 107.02 58.0086 107.855 58.7667C108.614 59.4884 109.71 59.7533 110.999 59.5295C114.52 58.9357 116.976 55.2637 118.126 53.1353L118.283 52.8384L118.53 52.4137L118.678 53.2084C119.289 56.3781 121.764 57.6112 125.451 56.9946C130.238 56.1999 133.085 53.6194 133.88 49.2303L133.916 49.043L134.096 48.9745C134.557 48.7913 134.995 48.5504 135.398 48.2575L135.757 47.9971L134.149 55.0764C134.832 54.9531 139.323 54.1218 139.682 54.067C139.768 53.6103 141.595 45.0695 141.595 45.0695C141.914 43.5806 142.803 40.7444 143.872 40.6667C143.979 40.6537 144.087 40.6673 144.187 40.7063C144.287 40.7453 144.376 40.8085 144.447 40.8905C144.71 41.197 144.846 41.5943 144.829 42.0003C144.747 43.0861 144.544 44.1588 144.223 45.1974C143.78 46.8422 143.479 48.5233 143.324 50.2214C143.1 53.1855 145.57 53.1353 146.275 53.012C148.026 52.7243 150.317 51.7743 152.207 47.3395L152.324 47.7962C152.539 48.9152 153.177 49.904 154.1 50.5504C155.024 51.1968 156.16 51.4492 157.264 51.2536C158.523 51.0868 159.714 50.5732 160.708 49.7683C161.701 48.9633 162.459 47.8976 162.9 46.6863L162.972 46.49L163.138 46.458C164.229 46.3255 165.711 45.0239 166.062 43.5258C165.972 43.2964 165.86 43.0762 165.729 42.8681M92.5504 53.423C93.5519 53.455 93.9561 54.067 93.4172 55.3048C92.9168 56.2217 92.2274 57.0179 91.3963 57.6386C90.1209 55.661 91.2975 53.3956 92.5504 53.423ZM129.227 47.4856C128.918 47.8307 128.487 48.0389 128.028 48.0657C127.377 48.1844 127.216 47.8236 127.175 47.6729C127.036 47.0837 127.624 46.1246 128.19 45.846C128.309 45.7769 128.445 45.7429 128.582 45.7477C128.72 45.7526 128.853 45.7961 128.967 45.8734C129.443 46.3986 129.227 47.4628 129.227 47.4628M159.698 46.7C159.321 47.9241 158.8 49.244 157.731 49.3947C157.576 49.4343 157.413 49.4359 157.257 49.3993C157.101 49.3628 156.956 49.2893 156.833 49.1846C156.46 48.8467 156.307 48.5452 156.312 47.4399C156.312 44.832 157.569 38.3054 159.375 38.205C159.5 38.1944 159.625 38.2147 159.741 38.264C159.857 38.3133 159.959 38.3901 160.039 38.4881C160.426 38.9037 160.592 39.7259 160.515 40.685V40.8037C160.515 40.8037 158.62 40.9133 158.468 43.7998C158.448 44.302 158.56 44.8004 158.793 45.2436C159.026 45.6868 159.371 46.0587 159.792 46.321L159.698 46.7ZM160.183 44.7681C159.554 44.3799 159.563 43.2472 159.896 42.827C159.954 42.7352 160.043 42.6677 160.146 42.6367C160.249 42.6057 160.359 42.6133 160.457 42.658C160.448 43.3699 160.356 44.0781 160.183 44.7681Z" fill="#CCCCCC"/>
<path d="M86.0975 20C79.2444 20.2786 74.4796 24.9737 72.2162 27.7643C67.361 26.2451 62.1974 26.0576 57.2481 27.2208C52.1644 28.3946 44.8622 31.208 39.572 35.6794C30.2713 43.5533 25.4661 53.0075 26.0454 62.2836C26.3822 67.7963 28.9465 72.5234 33.4374 75.9351C40.7531 81.4752 52.4069 80.0457 57.0909 79.1551C62.0309 78.2142 141.232 62.4663 151.848 60.2238C161.728 58.132 171.128 54.533 172.866 42.3658C172.961 41.6253 173.011 40.8793 173.014 40.1325C172.992 37.0039 171.981 34.0763 170.257 32.1078C167.086 28.4905 162.056 28.1388 158.544 28.1845C155.747 28.2211 135.641 28.9107 100.37 30.1713C99.9476 28.0073 98.9682 25.9961 97.5313 24.3435C95.6451 22.2288 92.1422 19.7762 86.111 20.0183M73.1548 29.2304C75.2385 26.4901 79.707 21.9228 86.1783 21.6488C91.5674 21.425 94.6796 23.5853 96.3367 25.4305C97.7378 27.0241 98.6428 29.0045 98.9369 31.1213L99.0402 31.8429L99.7543 31.8155C105.296 31.6282 154.018 29.8744 158.585 29.8196C161.773 29.7785 166.336 30.0754 169.067 33.1811C170.513 34.8481 171.37 37.3464 171.415 40.032V40.1507C171.426 40.8155 171.382 41.48 171.285 42.1375C169.7 53.3044 160.848 56.6568 151.525 58.6298C141.111 60.8267 61.8602 76.5974 56.799 77.5474C52.3081 78.3878 41.1977 79.7899 34.4119 74.6289C30.2848 71.5003 27.954 67.198 27.6442 62.1877C27.1008 53.4323 31.686 44.4713 40.6049 36.9262C45.6616 32.6376 52.6988 29.952 57.5984 28.8331C62.4515 27.6834 67.5219 27.9109 72.2566 29.4908L72.8045 29.6734L73.1548 29.2304Z" fill="#CCCCCC"/>
</g>
<defs>
<clipPath id="clip0_2041_518">
<rect width="147" height="60" fill="white" transform="translate(26 20)"/>
</clipPath>
</defs>
</svg>
