<svg width="200" height="100" viewBox="0 0 200 100" fill="none" xmlns="http://www.w3.org/2000/svg">
<path d="M77.9845 31.4337C73.1533 28.8678 67.8584 30.5287 67.8584 30.5287C67.8584 30.5287 68.631 34.7332 73.6746 36.8354C79.0346 39.0698 84.6422 38.3008 84.6422 38.3008C84.6422 38.3008 83.0374 34.115 77.9845 31.4337Z" fill="#CCCCCC"/>
<path d="M87.3362 59.0085C85.6369 60.8615 83.4655 62.2171 81.0546 62.9299C77.1002 64.1235 73.3655 63.1981 71.3734 61.0809C70.4165 60.1308 69.8118 58.883 69.6587 57.5431C77.1747 58.5951 85.0202 57.7386 88.3714 53.8768C90.572 51.3574 91.1044 47.3019 88.6004 43.9503C86.4146 41.0343 81.3637 39.0885 75.3613 39.6955C67.4861 40.4962 60.4113 45.87 60.0166 54.5452C59.6108 63.4122 66.6706 70.0001 76.3369 70.0001C82.5254 70.0001 87.6509 67.9202 90.2257 65.2668C90.2257 65.2426 90.2089 65.2128 90.1996 65.1867C89.3893 63.0659 88.4325 61.004 87.3362 59.016V59.0085ZM74.6967 46.0935C77.2901 45.1234 80.8629 45.2351 81.6038 47.5533C82.2313 49.5066 80.416 51.7131 76.6199 52.3685C74.6743 52.7055 71.8873 52.7707 69.5843 52.1823C69.7518 50.7094 70.988 47.4825 74.6967 46.0953V46.0935Z" fill="#CCCCCC"/>
<path fill-rule="evenodd" clip-rule="evenodd" d="M107.114 40.4365L98.9907 60.1591C97.9201 57.0551 95.6004 52.4466 92.8468 48.6015C92.1654 51.3219 90.8789 54.5265 88.8198 57.273C90.851 60.2653 92.9678 65.263 94.1445 69.2328H103.5L116.219 40.4365H107.114Z" fill="#CCCCCC"/>
<path fill-rule="evenodd" clip-rule="evenodd" d="M135.889 42.6897C133.041 40.4274 129.89 39.7105 126.666 39.5913C123.944 39.5213 121.228 39.8692 118.612 40.6229L115.378 48.071C115.41 48.1039 115.443 48.135 115.479 48.1641C118.711 46.1159 122.713 45.507 125.953 45.9576C129.375 46.4343 130.98 48.7209 130.98 50.9534C126.346 50.2831 121.377 50.4507 117.525 51.5679C111.71 53.2437 109.528 57.8988 110.102 62.2187C110.643 66.2835 114.495 70.0001 121.194 70.0001C126.035 70.0001 130.024 66.7285 131.169 64.6002V69.2181L140 69.205V52.5771C140 47.5701 138.447 44.7212 135.889 42.6897ZM125.688 62.295C123.095 63.2652 119.522 63.1534 118.779 60.8371C118.154 58.8838 119.969 56.6773 123.765 56.02C125.711 55.6848 128.496 55.6197 130.801 56.2062C130.631 57.6828 129.397 60.9078 125.688 62.295Z" fill="#CCCCCC"/>
</svg>
