<svg width="1440" height="799" viewBox="0 0 1440 799" fill="none" xmlns="http://www.w3.org/2000/svg">
<g clip-path="url(#clip0_2027_243)">
<rect y="-80" width="1440" height="971" fill="#111B51" fill-opacity="0.3"/>
<rect y="-80" width="1440" height="971" fill="url(#paint0_linear_2027_243)" fill-opacity="0.2"/>
<rect y="-80" width="1440" height="971" fill="url(#paint1_linear_2027_243)"/>
<path d="M144.253 638.273C202.03 631.207 259.945 630.652 316.053 636.472L316.058 636.473C348.554 639.521 379.94 644.785 409.102 651.712V651.713C450.657 661.669 486.685 674.709 519.045 691.493L520.583 692.295C553.897 709.744 578.442 728.15 597.709 750.139C615.448 770.464 625.962 791.32 629.835 813.814C635.091 844.313 627.904 873.853 608.238 901.764C590.644 926.781 565.973 947.534 530.58 967.197C499.63 984.229 464.924 997.803 424.376 1008.61C369.521 1022.6 309.527 1030.36 255.371 1030.5H254.401C192.027 1030.22 142.725 1025.65 94.6787 1015.81C49.5449 1006.53 10.3937 993.786 -25.002 976.752L-25.0039 976.751C-61.2368 959.438 -87.8649 941.03 -108.937 918.9C-132.363 894.284 -145.226 868.594 -147.992 840.164V840.163L-148.085 839.174C-149.931 818.393 -145.615 797.616 -135.122 777.494V777.493C-124.876 757.739 -109.639 739.905 -88.4199 723.024C-57.6253 698.529 -20.714 679.697 27.8867 663.765H27.8877C64.2644 651.713 102.45 643.4 144.253 638.273Z" stroke="white" stroke-opacity="0.2"/>
<path d="M788.376 246.468C868.657 256.299 949.129 257.07 1027.09 248.974H1027.1C1072.25 244.733 1115.86 237.408 1156.38 227.771V227.77C1214.13 213.918 1264.19 195.774 1309.17 172.42L1311.3 171.304C1357.6 147.024 1391.72 121.409 1418.51 90.8018V90.8008C1443.17 62.5063 1457.8 33.4653 1463.18 2.13379C1470.38 -39.6821 1460.8 -80.2002 1434.42 -118.524L1433.15 -120.349C1408.68 -155.178 1374.38 -184.061 1325.2 -211.423C1282.85 -234.752 1235.46 -253.418 1180.25 -268.337L1177.61 -269.044C1101.39 -288.513 1018.02 -299.307 942.771 -299.5H941.423C854.759 -299.114 786.253 -292.752 719.49 -279.066C656.775 -266.151 602.369 -248.419 553.179 -224.718H553.178C503.612 -201.005 466.971 -175.81 437.896 -145.646L436.517 -144.207C403.948 -109.941 386.055 -74.1676 382.206 -34.5703V-34.5693C379.32 -5.16488 385.282 24.2465 400.107 52.7109V52.7119C414.356 80.2178 435.544 105.046 465.04 128.54C507.844 162.631 559.144 188.836 626.678 211.002H626.68C677.229 227.77 730.291 239.335 788.376 246.468Z" stroke="white" stroke-opacity="0.2"/>
</g>
<defs>
<linearGradient id="paint0_linear_2027_243" x1="720" y1="-80" x2="720" y2="728.57" gradientUnits="userSpaceOnUse">
<stop offset="0.65" stop-color="#3ABFF0" stop-opacity="0"/>
<stop offset="1" stop-color="#3ABFF0"/>
</linearGradient>
<linearGradient id="paint1_linear_2027_243" x1="894.5" y1="405" x2="73" y2="405" gradientUnits="userSpaceOnUse">
<stop stop-color="#111B51" stop-opacity="0"/>
<stop offset="0.7" stop-color="#111B51"/>
</linearGradient>
<clipPath id="clip0_2027_243">
<rect width="1440" height="799" fill="white"/>
</clipPath>
</defs>
</svg>
