<svg width="1440" height="400" viewBox="0 0 1440 400" fill="none" xmlns="http://www.w3.org/2000/svg">
<g clip-path="url(#clip0_2059_761)">
<path d="M493.619 59.2719C572.567 68.9678 651.704 69.7282 728.372 61.7436L728.377 61.7436C772.782 57.5613 815.669 50.3381 855.519 40.8334L855.519 40.8325C913.205 26.9556 963.1 8.70901 1007.87 -14.8541L1007.87 -14.8541C1053.39 -38.7985 1086.95 -64.0596 1113.29 -94.2437L1113.29 -94.2447C1137.54 -122.148 1151.92 -150.787 1157.22 -181.685L1157.22 -181.686C1164.41 -223.578 1154.58 -264.15 1127.69 -302.474C1103.63 -336.822 1069.9 -365.307 1021.53 -392.291C979.89 -415.298 933.281 -433.706 878.983 -448.419L876.397 -449.115C801.438 -468.316 719.456 -478.962 645.451 -479.152L644.125 -479.152C560.231 -478.778 493.64 -472.691 428.955 -459.627L425.876 -459.001C364.202 -446.264 310.7 -428.776 262.327 -405.402L262.325 -405.402C212.809 -381.645 176.41 -356.38 147.603 -326.002C115.575 -292.21 97.9789 -256.932 94.1943 -217.882L94.1943 -217.881L94.0674 -216.522C91.5415 -187.977 97.4472 -159.44 111.798 -131.808L111.799 -131.807C125.811 -104.682 146.646 -80.1967 175.651 -57.0269C217.744 -23.4068 268.193 2.43626 334.605 24.2964L334.606 24.2964C384.317 40.8326 436.498 52.2379 493.619 59.2719Z" stroke="white"/>
<g clip-path="url(#clip1_2059_761)">
<path d="M1223.97 -404.176C1147.79 -404.176 1088.38 -398.999 1029.87 -387.279C979.747 -377.254 930.949 -362.711 884.52 -340.825C846.997 -323.128 812.033 -301.901 782.897 -271.826C757.503 -245.563 739.642 -215.299 735.804 -178.541C733.104 -152.325 738.837 -127.568 750.775 -104.364C764.23 -78.2896 783.75 -57.3923 806.443 -39.1776C848.324 -5.76062 896.08 15.984 946.725 32.8337C992.681 48.2243 1039.77 58.2494 1087.72 64.2739C1157.03 72.9811 1226.48 74.299 1296.32 67.4273C1334.5 63.7561 1372.36 57.9199 1409.69 49.2127C1456.64 38.1992 1502.03 22.9968 1544.95 0.922721C1579.77 -16.9624 1612.08 -38.5188 1638.14 -68.0764C1657.47 -89.9622 1671.63 -114.39 1676.85 -143.429C1683.76 -181.694 1673.67 -216.147 1651.59 -247.54C1627.53 -281.804 1594.74 -306.043 1558.55 -326.235C1517.99 -348.779 1474.93 -364.688 1430.2 -376.69C1357.2 -395.798 1282.86 -403.988 1223.97 -404.176Z" fill="url(#paint0_linear_2059_761)" style="mix-blend-mode:screen"/>
</g>
</g>
<defs>
<linearGradient id="paint0_linear_2059_761" x1="792.952" y1="-86.6742" x2="1615.02" y2="-246.833" gradientUnits="userSpaceOnUse">
<stop stop-color="#0B70A7" stop-opacity="0"/>
<stop offset="1" stop-color="#0B70A7"/>
</linearGradient>
<clipPath id="clip0_2059_761">
<rect width="1440" height="400" fill="white"/>
</clipPath>
<clipPath id="clip1_2059_761">
<rect width="653" height="97.9999" fill="white" transform="matrix(1 -8.74228e-08 -8.74228e-08 -1 796 86.4004)"/>
</clipPath>
</defs>
</svg>
