<svg width="375" height="272" viewBox="0 0 375 272" fill="none" xmlns="http://www.w3.org/2000/svg">
<g clip-path="url(#clip0_2059_684)">
<g clip-path="url(#clip1_2059_684)">
<path d="M85.8193 26.5382C121.271 30.8921 156.807 31.2329 191.233 27.6476L191.238 27.6476C211.177 25.7697 230.433 22.5263 248.324 18.2589L248.324 18.2579C274.224 12.0274 296.621 3.83659 316.712 -6.7382C337.146 -17.4851 352.192 -28.8154 363.999 -42.3456C374.529 -54.4607 380.897 -66.8733 383.44 -80.206L383.675 -81.4989C386.892 -100.243 382.496 -118.399 370.45 -135.565L370.45 -135.566C359.671 -150.955 344.552 -163.728 322.845 -175.838C304.455 -185.999 283.902 -194.163 260.018 -200.716L257.696 -201.345C224.039 -209.965 187.229 -214.746 154.004 -214.831L153.41 -214.831C115.132 -214.66 84.8807 -211.842 55.4033 -205.782L55.4043 -205.782C27.7121 -200.063 3.695 -192.212 -18.0156 -181.722L-18.0166 -181.722C-40.2428 -171.058 -56.5679 -159.724 -69.4824 -146.105L-69.4834 -146.105C-83.6155 -131.194 -91.4634 -115.655 -93.3203 -98.5067L-93.4043 -97.6893C-94.6738 -84.7173 -92.052 -71.7376 -85.5244 -59.1688L-85.5244 -59.1678C-79.2497 -47.0208 -69.9154 -36.049 -56.9072 -25.6581C-38.0266 -10.5779 -15.3914 1.01963 14.4258 10.8341L14.4277 10.8351C36.7435 18.2584 60.1706 23.3798 85.8193 26.5382Z" stroke="white"/>
<path d="M306.633 -157C272.404 -157 245.71 -154.674 219.421 -149.408C196.9 -144.904 174.975 -138.369 154.114 -128.536C137.255 -120.585 121.546 -111.047 108.454 -97.5343C97.0449 -85.7342 89.0198 -72.1366 87.2956 -55.6207C86.0823 -43.8418 88.658 -32.7184 94.0222 -22.2928C100.068 -10.5773 108.838 -1.18802 119.034 6.99591C137.851 22.0104 159.308 31.7803 182.063 39.351C202.711 46.2661 223.87 50.7704 245.412 53.4773C276.555 57.3895 307.761 57.9816 339.137 54.8941C356.294 53.2446 373.302 50.6224 390.076 46.7102C411.171 41.7617 431.563 34.9312 450.849 25.0132C466.495 16.9773 481.012 7.29194 492.72 -5.98845C501.405 -15.8219 507.769 -26.7972 510.111 -39.845C513.219 -57.0376 508.685 -72.5173 498.765 -86.6224C487.952 -102.017 473.221 -112.908 456.958 -121.98C438.737 -132.11 419.388 -139.258 399.293 -144.65C366.49 -153.236 333.092 -156.915 306.633 -157Z" fill="url(#paint0_linear_2059_684)" style="mix-blend-mode:screen"/>
</g>
</g>
<defs>
<linearGradient id="paint0_linear_2059_684" x1="112.972" y1="-14.3446" x2="482.331" y2="-86.3048" gradientUnits="userSpaceOnUse">
<stop stop-color="#0B70A7" stop-opacity="0"/>
<stop offset="1" stop-color="#0B70A7"/>
</linearGradient>
<clipPath id="clip0_2059_684">
<rect width="375" height="272" fill="white"/>
</clipPath>
<clipPath id="clip1_2059_684">
<rect width="647" height="314.514" fill="white" transform="translate(-136)"/>
</clipPath>
</defs>
</svg>
