<svg width="1320" height="432" viewBox="0 0 1320 432" fill="none" xmlns="http://www.w3.org/2000/svg">
<g clip-path="url(#clip0_2055_325)">
<path d="M925.899 774.19C856.636 774.19 802.621 769.456 749.424 758.741C703.851 749.576 659.484 736.279 617.272 716.269C583.157 700.089 551.368 680.681 524.877 653.184C501.789 629.172 485.55 601.503 482.061 567.895C479.606 543.926 484.818 521.291 495.673 500.076C507.906 476.236 525.652 457.13 546.285 440.477C584.363 409.924 627.782 390.043 673.828 374.638C715.61 360.567 758.426 351.401 802.018 345.893C865.035 337.932 928.182 336.727 991.674 343.01C1026.39 346.366 1060.81 351.702 1094.75 359.663C1137.44 369.732 1178.7 383.632 1217.73 403.814C1249.39 420.166 1278.76 439.874 1302.46 466.899C1320.03 486.908 1332.91 509.242 1337.65 535.793C1343.94 570.778 1334.76 602.277 1314.69 630.979C1292.81 662.307 1263 684.468 1230.09 702.929C1193.22 723.541 1154.06 738.086 1113.4 749.059C1047.02 766.53 979.441 774.018 925.899 774.19Z" fill="url(#paint0_linear_2055_325)" style="mix-blend-mode:screen"/>
</g>
<g clip-path="url(#clip1_2055_325)">
<path d="M225.027 -393C301.209 -393 360.619 -387.823 419.129 -376.103C469.254 -366.078 518.052 -351.535 564.481 -329.649C602.003 -311.952 636.967 -290.725 666.104 -260.65C691.498 -234.387 709.359 -204.123 713.196 -167.364C715.896 -141.149 710.164 -116.392 698.225 -93.1881C684.77 -67.1134 665.251 -46.216 642.557 -28.0014C600.677 5.41565 552.921 27.1602 502.275 44.0099C456.32 59.4006 409.228 69.4257 361.282 75.4502C291.97 84.1574 222.516 85.4752 152.683 78.6036C114.498 74.9324 76.6437 69.0962 39.3109 60.3889C-7.63931 49.3754 -53.0261 34.173 -95.9493 12.099C-130.771 -5.78617 -163.082 -27.3425 -189.139 -56.9001C-208.469 -78.7859 -222.634 -103.213 -227.846 -132.253C-234.763 -170.518 -224.672 -204.97 -202.594 -236.364C-178.527 -270.628 -145.742 -294.867 -109.546 -315.058C-68.992 -337.603 -25.9266 -353.511 18.7969 -365.513C91.8043 -384.622 166.138 -392.812 225.027 -393Z" fill="url(#paint1_linear_2055_325)" style="mix-blend-mode:screen"/>
</g>
<g clip-path="url(#clip2_2055_325)">
<path d="M1226.09 250.204C1288.12 242.61 1350.3 242.015 1410.54 248.269L1410.55 248.27C1445.44 251.545 1479.13 257.201 1510.44 264.645C1555.76 275.511 1594.94 289.797 1630.09 308.238C1665.84 326.98 1692.16 346.737 1712.81 370.324V370.325C1731.82 392.127 1743.07 414.474 1747.22 438.562C1752.84 471.222 1745.16 502.86 1724.1 532.78L1724.09 532.781C1705.25 559.606 1678.8 581.877 1640.83 602.995C1607.62 621.285 1570.37 635.866 1526.85 647.477C1467.95 662.514 1403.54 670.851 1345.4 671H1344.36C1277.38 670.702 1224.44 665.786 1172.87 655.218H1172.87C1124.41 645.243 1082.39 631.552 1044.41 613.257L1044.41 613.255L1042.59 612.383C1004.63 594.04 976.609 574.525 954.374 551.153C929.264 524.744 915.503 497.215 912.543 466.771V466.77L912.444 465.71C910.469 443.461 915.085 421.21 926.319 399.647L926.32 399.646C937.292 378.475 953.614 359.348 976.368 341.23C1009.4 314.936 1048.99 294.71 1101.17 277.593L1101.17 277.592C1140.22 264.645 1181.21 255.713 1226.09 250.204Z" stroke="white" stroke-width="2"/>
</g>
<defs>
<linearGradient id="paint0_linear_2055_325" x1="534.019" y1="483.902" x2="1281.74" y2="628.765" gradientUnits="userSpaceOnUse">
<stop stop-color="#0B70A7" stop-opacity="0"/>
<stop offset="1" stop-color="#0B70A7"/>
</linearGradient>
<linearGradient id="paint1_linear_2055_325" x1="656.049" y1="-75.4979" x2="-166.016" y2="-235.657" gradientUnits="userSpaceOnUse">
<stop stop-color="#0B70A7" stop-opacity="0"/>
<stop offset="1" stop-color="#0B70A7"/>
</linearGradient>
<clipPath id="clip0_2055_325">
<rect width="914" height="113" fill="white" transform="translate(406 318.378)"/>
</clipPath>
<clipPath id="clip1_2055_325">
<rect width="914" height="182" fill="white" transform="translate(914 182) rotate(-180)"/>
</clipPath>
<clipPath id="clip2_2055_325">
<rect width="409" height="188" fill="white" transform="translate(911 243.378)"/>
</clipPath>
</defs>
</svg>
