<svg width="325" height="373" viewBox="0 0 325 373" fill="none" xmlns="http://www.w3.org/2000/svg">
<g clip-path="url(#clip0_2055_334)">
<path d="M230.867 607C184.134 607 147.689 603.813 111.797 596.599C81.0481 590.428 51.1134 581.476 22.6319 568.004C-0.385893 557.11 -21.8343 544.044 -39.7079 525.53C-55.2856 509.364 -66.2423 490.735 -68.5963 468.108C-70.2529 451.97 -66.7363 436.731 -59.4125 422.448C-51.1587 406.397 -39.1848 393.534 -25.2637 382.321C0.427869 361.751 29.7232 348.366 60.7914 337.994C88.9823 328.52 117.871 322.349 147.282 318.641C189.801 313.281 232.407 312.47 275.246 316.699C298.671 318.959 321.892 322.552 344.793 327.912C373.595 334.691 401.437 344.049 427.768 357.637C449.129 368.646 468.95 381.916 484.934 400.11C496.792 413.582 505.482 428.619 508.679 446.495C512.922 470.049 506.731 491.256 493.188 510.581C478.424 531.673 458.313 546.593 436.109 559.022C411.231 572.9 384.813 582.692 357.378 590.08C312.592 601.843 266.992 606.884 230.867 607Z" fill="url(#paint0_linear_2055_334)" style="mix-blend-mode:screen"/>
<path d="M331.628 266C366.605 261.716 401.665 261.38 435.631 264.908H435.636C455.307 266.756 474.307 269.947 491.959 274.146V274.147C516.714 280.087 538.225 287.836 557.565 297.775L559.431 298.744C579.591 309.319 594.434 320.468 606.083 333.781V333.782C616.807 346.088 623.156 358.704 625.494 372.307C628.668 390.748 624.332 408.613 612.448 425.503L612.447 425.504C601.813 440.646 586.898 453.214 565.481 465.13C546.753 475.451 525.75 483.679 501.205 490.229C467.998 498.713 431.681 503.416 398.9 503.5H398.314C360.548 503.332 330.703 500.558 301.62 494.596C274.299 488.968 250.602 481.243 229.183 470.92H229.182C207.253 460.427 191.147 449.274 178.406 435.874C164.464 421.201 156.722 405.912 154.89 389.04L154.807 388.235L154.7 387.039C153.719 374.675 156.342 362.315 162.58 350.335V350.334C168.77 338.382 177.979 327.586 190.812 317.361C209.44 302.522 231.772 291.111 261.19 281.453L261.191 281.452C283.209 274.147 306.322 269.108 331.628 266Z" stroke="white"/>
<path d="M127.331 -202C170.916 -202 204.906 -199.041 238.381 -192.344C267.059 -186.616 294.977 -178.305 321.54 -165.798C343.008 -155.686 363.011 -143.556 379.681 -126.37C394.209 -111.362 404.428 -94.0679 406.624 -73.0624C408.169 -58.0816 404.889 -43.9345 398.058 -30.6749C390.36 -15.7748 379.193 -3.83314 366.21 6.57546C342.249 25.6713 314.927 38.0971 285.951 47.7257C259.659 56.5206 232.716 62.2493 205.286 65.692C165.631 70.6677 125.895 71.4207 85.9416 67.494C64.0947 65.3961 42.4377 62.0611 21.0787 57.0854C-5.78255 50.7918 -31.7494 42.1045 -56.3067 29.4905C-76.229 19.2701 -94.7148 6.95195 -109.623 -9.93849C-120.682 -22.4449 -128.786 -36.4038 -131.768 -52.9983C-135.725 -74.8645 -129.952 -94.5521 -117.321 -112.491C-103.551 -132.071 -84.7943 -145.923 -64.0859 -157.461C-40.8838 -170.344 -16.2451 -179.435 9.34221 -186.293C51.1114 -197.213 93.6395 -201.892 127.331 -202Z" fill="url(#paint1_linear_2055_334)" style="mix-blend-mode:screen"/>
</g>
<defs>
<linearGradient id="paint0_linear_2055_334" x1="-33.5398" y1="411.558" x2="470.877" y2="509.493" gradientUnits="userSpaceOnUse">
<stop stop-color="#0B70A7" stop-opacity="0"/>
<stop offset="1" stop-color="#0B70A7"/>
</linearGradient>
<linearGradient id="paint1_linear_2055_334" x1="373.928" y1="-20.5661" x2="-96.3527" y2="-112.298" gradientUnits="userSpaceOnUse">
<stop stop-color="#0B70A7" stop-opacity="0"/>
<stop offset="1" stop-color="#0B70A7"/>
</linearGradient>
<clipPath id="clip0_2055_334">
<rect width="325" height="373" fill="white"/>
</clipPath>
</defs>
</svg>
