<svg width="585" height="190" viewBox="0 0 585 190" fill="none" xmlns="http://www.w3.org/2000/svg">
<mask id="path-1-outside-1_379_331" maskUnits="userSpaceOnUse" x="0" y="0.374023" width="585" height="190" fill="black">
<rect fill="white" y="0.374023" width="585" height="190"/>
<path d="M175.504 136.754C175.504 143.978 173.992 150.782 170.968 157.166C167.944 163.382 162.988 168.842 156.1 173.546C149.38 178.082 140.56 181.694 129.64 184.382C118.888 187.07 105.616 188.414 89.8245 188.414C80.9205 188.414 72.1845 187.742 63.6165 186.398C55.2165 185.054 47.1525 183.122 39.4245 180.602C31.8645 178.082 24.8085 175.058 18.2565 171.53C11.8725 167.834 6.32845 163.802 1.62445 159.434L14.2245 144.314C23.8005 152.546 34.9725 158.846 47.7405 163.214C60.5085 167.414 74.5365 169.514 89.8245 169.514C106.792 169.514 118.804 167.162 125.86 162.458C132.916 157.754 136.444 151.286 136.444 143.054C136.444 136.67 133.672 131.294 128.128 126.926C122.584 122.558 113.176 118.274 99.9045 114.074L52.0245 98.954C36.2325 93.914 24.3045 87.53 16.2405 79.802C8.17645 71.906 4.14445 61.91 4.14445 49.814C4.14445 43.598 5.57245 37.634 8.42845 31.922C11.4525 26.042 16.0725 20.918 22.2885 16.55C28.5045 12.014 36.4005 8.48602 45.9765 5.96601C55.7205 3.27801 67.3965 1.93402 81.0045 1.93402C89.2365 1.93402 97.3845 2.60602 105.448 3.95002C113.68 5.29401 121.492 7.22601 128.884 9.74602C136.444 12.266 143.416 15.374 149.8 19.07C156.352 22.598 161.98 26.546 166.684 30.914L154.084 46.034C144.508 37.802 133.756 31.586 121.828 27.386C109.9 23.018 96.2925 20.834 81.0045 20.834C68.4045 20.834 58.9125 23.018 52.5285 27.386C46.3125 31.754 43.2045 37.13 43.2045 43.514C43.2045 47.042 43.7925 50.15 44.9685 52.838C46.1445 55.358 48.0765 57.794 50.7645 60.146C53.6205 62.33 57.3165 64.43 61.8525 66.446C66.3885 68.294 72.0165 70.31 78.7365 72.494L126.364 87.614C141.652 92.486 153.664 98.87 162.4 106.766C171.136 114.662 175.504 124.658 175.504 136.754ZM278.756 161.954H281.276L344.528 6.97401H382.076L310.256 183.374H249.776L177.956 6.97401H215.504L278.756 161.954ZM515.655 93.914L582.435 183.374H540.855L482.895 105.254H438.795V183.374H402.255V6.97401H438.795V86.354H480.375L538.335 6.97401H578.655L515.655 93.914Z"/>
</mask>
<path d="M170.968 157.166L171.868 157.604L171.872 157.594L170.968 157.166ZM156.1 173.546L156.66 174.375L156.664 174.372L156.1 173.546ZM129.64 184.382L129.401 183.411L129.398 183.412L129.64 184.382ZM63.6165 186.398L63.4585 187.385L63.4615 187.386L63.6165 186.398ZM39.4245 180.602L39.1082 181.551L39.1144 181.553L39.4245 180.602ZM18.2565 171.53L17.7554 172.395L17.7688 172.403L17.7824 172.41L18.2565 171.53ZM1.62445 159.434L0.856232 158.794L0.249498 159.522L0.944002 160.167L1.62445 159.434ZM14.2245 144.314L14.8763 143.556L14.1063 142.894L13.4562 143.674L14.2245 144.314ZM47.7405 163.214L47.4167 164.16L47.428 164.164L47.7405 163.214ZM125.86 162.458L125.306 161.626L125.86 162.458ZM99.9045 114.074L100.206 113.121L100.206 113.12L99.9045 114.074ZM52.0245 98.954L51.7204 99.9067L51.7233 99.9076L52.0245 98.954ZM16.2405 79.802L15.5408 80.5166L15.5485 80.524L16.2405 79.802ZM8.42845 31.922L7.53911 31.4646L7.53403 31.4748L8.42845 31.922ZM22.2885 16.55L22.8634 17.3682L22.8707 17.3631L22.8779 17.3578L22.2885 16.55ZM45.9765 5.96601L46.231 6.93315L46.2424 6.93L45.9765 5.96601ZM105.448 3.95002L105.284 4.93642L105.287 4.93695L105.448 3.95002ZM128.884 9.74602L128.562 10.6926L128.568 10.6947L128.884 9.74602ZM149.8 19.07L149.299 19.9354L149.313 19.9432L149.326 19.9505L149.8 19.07ZM166.684 30.914L167.453 31.5542L168.059 30.8261L167.365 30.1812L166.684 30.914ZM154.084 46.034L153.433 46.7923L154.203 47.4543L154.853 46.6742L154.084 46.034ZM121.828 27.386L121.485 28.3251L121.496 28.3293L121.828 27.386ZM52.5285 27.386L51.9637 26.5606L51.9535 26.5678L52.5285 27.386ZM44.9685 52.838L44.0523 53.2388L44.0572 53.2499L44.0623 53.2609L44.9685 52.838ZM50.7645 60.146L50.1059 60.8986L50.1308 60.9203L50.157 60.9404L50.7645 60.146ZM61.8525 66.446L61.4463 67.3598L61.4606 67.3662L61.4752 67.3721L61.8525 66.446ZM78.7365 72.494L78.4274 73.4451L78.4339 73.4471L78.7365 72.494ZM126.364 87.614L126.668 86.6612L126.667 86.6609L126.364 87.614ZM162.4 106.766L163.071 106.024L162.4 106.766ZM174.504 136.754C174.504 143.833 173.024 150.491 170.065 156.738L171.872 157.594C174.961 151.073 176.504 144.123 176.504 136.754H174.504ZM170.069 156.729C167.136 162.759 162.311 168.094 155.536 172.72L156.664 174.372C163.666 169.59 168.753 164.005 171.868 157.603L170.069 156.729ZM155.541 172.717C148.948 177.167 140.248 180.741 129.401 183.411L129.879 185.353C140.873 182.647 149.813 178.997 156.66 174.375L155.541 172.717ZM129.398 183.412C118.751 186.074 105.566 187.414 89.8245 187.414V189.414C105.667 189.414 119.026 188.066 129.883 185.352L129.398 183.412ZM89.8245 187.414C80.971 187.414 72.2868 186.746 63.7714 185.41L63.4615 187.386C72.0821 188.738 80.8699 189.414 89.8245 189.414V187.414ZM63.7745 185.411C55.4236 184.074 47.4106 182.154 39.7345 179.651L39.1144 181.553C46.8943 184.09 55.0093 186.034 63.4585 187.385L63.7745 185.411ZM39.7407 179.653C32.2314 177.15 25.2286 174.148 18.7306 170.65L17.7824 172.41C24.3883 175.968 31.4976 179.014 39.1082 181.551L39.7407 179.653ZM18.7575 170.665C12.4287 167.001 6.94684 163.012 2.3049 158.701L0.944002 160.167C5.71007 164.592 11.3162 168.667 17.7554 172.395L18.7575 170.665ZM2.39267 160.074L14.9927 144.954L13.4562 143.674L0.856232 158.794L2.39267 160.074ZM13.5726 145.072C23.2515 153.393 34.5368 159.754 47.4168 164.16L48.0641 162.268C35.4082 157.938 24.3494 151.699 14.8763 143.556L13.5726 145.072ZM47.428 164.164C60.3096 168.401 74.4447 170.514 89.8245 170.514V168.514C74.6283 168.514 60.7073 166.427 48.0529 162.264L47.428 164.164ZM89.8245 170.514C106.827 170.514 119.098 168.168 126.415 163.29L125.306 161.626C118.511 166.156 106.758 168.514 89.8245 168.514V170.514ZM126.415 163.29C133.739 158.407 137.444 151.632 137.444 143.054H135.444C135.444 150.94 132.094 157.101 125.306 161.626L126.415 163.29ZM137.444 143.054C137.444 136.328 134.503 130.675 128.747 126.141L127.51 127.712C132.842 131.913 135.444 137.012 135.444 143.054H137.444ZM128.747 126.141C123.056 121.656 113.504 117.329 100.206 113.121L99.6027 115.027C112.849 119.219 122.113 123.46 127.51 127.712L128.747 126.141ZM100.206 113.12L52.3256 98.0004L51.7233 99.9076L99.6033 115.028L100.206 113.12ZM52.3285 98.0014C36.6171 92.9871 24.8461 86.664 16.9324 79.08L15.5485 80.524C23.7628 88.396 35.8478 94.8409 51.7204 99.9067L52.3285 98.0014ZM16.9401 79.0875C9.08297 71.3941 5.14445 61.6626 5.14445 49.814H3.14445C3.14445 62.1575 7.26993 72.4179 15.5408 80.5165L16.9401 79.0875ZM5.14445 49.814C5.14445 43.7576 6.53434 37.9463 9.32288 32.3692L7.53403 31.4748C4.61057 37.3217 3.14445 43.4384 3.14445 49.814H5.14445ZM9.31774 32.3794C12.2574 26.6635 16.76 21.6571 22.8634 17.3682L21.7135 15.7318C15.3849 20.1789 10.6476 25.4206 7.53917 31.4647L9.31774 32.3794ZM22.8779 17.3578C28.9689 12.9131 36.7426 9.43003 46.2309 6.93308L45.722 4.99894C36.0583 7.542 28.04 11.115 21.699 15.7422L22.8779 17.3578ZM46.2424 6.93C55.8758 4.27252 67.4575 2.93402 81.0045 2.93402V0.934017C67.3355 0.934017 55.5652 2.2835 45.7105 5.00202L46.2424 6.93ZM81.0045 2.93402C89.1818 2.93402 97.2748 3.60153 105.284 4.93641L105.613 2.96363C97.4941 1.6105 89.2912 0.934017 81.0045 0.934017V2.93402ZM105.287 4.93695C113.468 6.27259 121.226 8.19163 128.562 10.6925L129.207 8.79951C121.759 6.2604 113.893 4.31544 105.61 2.96309L105.287 4.93695ZM128.568 10.6947C136.069 13.195 142.979 16.276 149.299 19.9354L150.301 18.2046C143.854 14.4721 136.82 11.3371 129.201 8.79734L128.568 10.6947ZM149.326 19.9505C155.815 23.4445 161.371 27.3449 166.004 31.6468L167.365 30.1812C162.59 25.7471 156.89 21.7516 150.275 18.1896L149.326 19.9505ZM165.916 30.2738L153.316 45.3938L154.853 46.6742L167.453 31.5542L165.916 30.2738ZM154.736 45.2757C145.066 36.9626 134.206 30.684 122.161 26.4428L121.496 28.3293C133.307 32.4881 143.951 38.6414 153.433 46.7923L154.736 45.2757ZM122.172 26.447C110.114 22.0314 96.3866 19.834 81.0045 19.834V21.834C96.1983 21.834 109.687 24.0046 121.485 28.325L122.172 26.447ZM81.0045 19.834C68.3182 19.834 58.589 22.0277 51.9638 26.5607L53.0931 28.2113C59.236 24.0083 68.4907 21.834 81.0045 21.834V19.834ZM51.9535 26.5678C45.5288 31.0825 42.2045 36.7396 42.2045 43.514H44.2045C44.2045 37.5204 47.0961 32.4256 53.1034 28.2042L51.9535 26.5678ZM42.2045 43.514C42.2045 47.1526 42.811 50.4016 44.0523 53.2388L45.8846 52.4372C44.7739 49.8985 44.2045 46.9314 44.2045 43.514H42.2045ZM44.0623 53.2609C45.3112 55.9372 47.3419 58.4801 50.1059 60.8986L51.423 59.3934C48.811 57.1079 46.9777 54.7789 45.8746 52.4151L44.0623 53.2609ZM50.157 60.9404C53.0937 63.1861 56.8637 65.3231 61.4463 67.3598L62.2586 65.5322C57.7692 63.5369 54.1472 61.474 51.3719 59.3517L50.157 60.9404ZM61.4752 67.3721C66.041 69.2323 71.6935 71.2565 78.4274 73.4451L79.0455 71.543C72.3395 69.3635 66.7359 67.3558 62.2298 65.5199L61.4752 67.3721ZM78.4339 73.4471L126.062 88.5671L126.667 86.6609L79.039 71.5409L78.4339 73.4471ZM126.061 88.5668C141.259 93.4103 153.131 99.7356 161.73 107.508L163.071 106.024C154.198 98.0044 142.046 91.5617 126.668 86.6612L126.061 88.5668ZM161.73 107.508C170.25 115.209 174.504 124.932 174.504 136.754H176.504C176.504 124.384 172.023 114.116 163.071 106.024L161.73 107.508ZM278.756 161.954L277.83 162.332L278.084 162.954H278.756V161.954ZM281.276 161.954V162.954H281.948L282.201 162.332L281.276 161.954ZM344.528 6.97401V5.97401H343.856L343.602 6.59614L344.528 6.97401ZM382.076 6.97401L383.002 7.3511L383.562 5.97401H382.076V6.97401ZM310.256 183.374V184.374H310.928L311.182 183.751L310.256 183.374ZM249.776 183.374L248.849 183.751L249.103 184.374H249.776V183.374ZM177.956 6.97401V5.97401H176.469L177.029 7.3511L177.956 6.97401ZM215.504 6.97401L216.429 6.59614L216.175 5.97401H215.504V6.97401ZM278.756 162.954H281.276V160.954H278.756V162.954ZM282.201 162.332L345.453 7.35188L343.602 6.59614L280.35 161.576L282.201 162.332ZM344.528 7.97401H382.076V5.97401H344.528V7.97401ZM381.149 6.59692L309.329 182.997L311.182 183.751L383.002 7.3511L381.149 6.59692ZM310.256 182.374H249.776V184.374H310.256V182.374ZM250.702 182.997L178.882 6.59692L177.029 7.3511L248.849 183.751L250.702 182.997ZM177.956 7.97401H215.504V5.97401H177.956V7.97401ZM214.578 7.35188L277.83 162.332L279.681 161.576L216.429 6.59614L214.578 7.35188ZM515.655 93.914L514.846 93.3272L514.414 93.9228L514.854 94.5122L515.655 93.914ZM582.435 183.374V184.374H584.43L583.237 182.776L582.435 183.374ZM540.855 183.374L540.052 183.97L540.352 184.374H540.855V183.374ZM482.895 105.254L483.698 104.658L483.398 104.254H482.895V105.254ZM438.795 105.254V104.254H437.795V105.254H438.795ZM438.795 183.374V184.374H439.795V183.374H438.795ZM402.255 183.374H401.255V184.374H402.255V183.374ZM402.255 6.97401V5.97401H401.255V6.97401H402.255ZM438.795 6.97401H439.795V5.97401H438.795V6.97401ZM438.795 86.354H437.795V87.354H438.795V86.354ZM480.375 86.354V87.354H480.883L481.183 86.9437L480.375 86.354ZM538.335 6.97401V5.97401H537.827L537.528 6.38432L538.335 6.97401ZM578.655 6.97401L579.465 7.56079L580.615 5.97401H578.655V6.97401ZM514.854 94.5122L581.634 183.972L583.237 182.776L516.457 93.3158L514.854 94.5122ZM582.435 182.374H540.855V184.374H582.435V182.374ZM541.658 182.778L483.698 104.658L482.092 105.85L540.052 183.97L541.658 182.778ZM482.895 104.254H438.795V106.254H482.895V104.254ZM437.795 105.254V183.374H439.795V105.254H437.795ZM438.795 182.374H402.255V184.374H438.795V182.374ZM403.255 183.374V6.97401H401.255V183.374H403.255ZM402.255 7.97401H438.795V5.97401H402.255V7.97401ZM437.795 6.97401V86.354H439.795V6.97401H437.795ZM438.795 87.354H480.375V85.354H438.795V87.354ZM481.183 86.9437L539.143 7.56371L537.528 6.38432L479.568 85.7643L481.183 86.9437ZM538.335 7.97401H578.655V5.97401H538.335V7.97401ZM577.846 6.38724L514.846 93.3272L516.465 94.5008L579.465 7.56079L577.846 6.38724Z" fill="url(#paint0_linear_379_331)" mask="url(#path-1-outside-1_379_331)"/>
<defs>
<linearGradient id="paint0_linear_379_331" x1="289.5" y1="-53.626" x2="289.5" y2="257.374" gradientUnits="userSpaceOnUse">
<stop stop-color="#111B51"/>
<stop offset="0.65" stop-color="#111B51" stop-opacity="0"/>
</linearGradient>
</defs>
</svg>
