<svg width="1320" height="431" viewBox="0 0 1320 431" fill="none" xmlns="http://www.w3.org/2000/svg">
<g clip-path="url(#clip0_2113_525)">
<g clip-path="url(#clip1_2113_525)">
<path d="M925.899 773.811C856.636 773.811 802.621 769.078 749.424 758.363C703.851 749.197 659.484 735.9 617.272 715.89C583.157 699.71 551.368 680.303 524.877 652.806C501.789 628.794 485.55 601.124 482.061 567.516C479.606 543.547 484.818 520.913 495.673 499.698C507.906 475.858 525.652 456.752 546.285 440.098C584.363 409.546 627.782 389.665 673.828 374.26C715.61 360.188 758.426 351.022 802.018 345.514C865.035 337.553 928.182 336.348 991.674 342.631C1026.39 345.988 1060.81 351.324 1094.75 359.284C1137.44 369.354 1178.7 383.253 1217.73 403.435C1249.39 419.787 1278.76 439.496 1302.46 466.52C1320.03 486.53 1332.91 508.864 1337.65 535.414C1343.94 570.399 1334.76 601.899 1314.69 630.601C1292.81 661.928 1263 684.09 1230.09 702.55C1193.22 723.163 1154.06 737.708 1113.4 748.681C1047.02 766.152 979.441 773.639 925.899 773.811Z" fill="url(#paint0_linear_2113_525)" style="mix-blend-mode:screen"/>
</g>
<g clip-path="url(#clip2_2113_525)">
<path d="M225.027 -393.378C301.208 -393.378 360.619 -388.201 419.129 -376.482C469.253 -366.456 518.051 -351.913 564.48 -330.027C602.003 -312.33 636.967 -291.103 666.103 -261.028C691.497 -234.765 709.358 -204.502 713.196 -167.743C715.896 -141.527 710.163 -116.77 698.225 -93.5665C684.77 -67.4918 665.25 -46.5944 642.557 -28.3798C600.676 5.03723 552.92 26.7818 502.275 43.6315C456.319 59.0222 409.227 69.0473 361.282 75.0717C291.97 83.779 222.516 85.0968 152.683 78.2252C114.497 74.554 76.6432 68.7178 39.3104 60.0105C-7.63983 48.997 -53.0266 33.7946 -95.9498 11.7206C-130.772 -6.16459 -163.082 -27.7209 -189.14 -57.2785C-208.469 -79.1643 -222.635 -103.592 -227.846 -132.632C-234.763 -170.896 -224.672 -205.349 -202.595 -236.742C-178.527 -271.006 -145.743 -295.245 -109.547 -315.437C-68.9925 -337.981 -25.9271 -353.89 18.7964 -365.892C91.8038 -385.001 166.138 -393.19 225.027 -393.378Z" fill="url(#paint1_linear_2113_525)" style="mix-blend-mode:screen"/>
</g>
<g clip-path="url(#clip3_2113_525)">
<path d="M1226.09 249.826C1288.12 242.232 1350.3 241.637 1410.54 247.89L1410.55 247.891C1445.44 251.166 1479.13 256.823 1510.44 264.266C1555.76 275.133 1594.94 289.419 1630.09 307.86C1665.84 326.602 1692.16 346.358 1712.81 369.946V369.947C1731.82 391.748 1743.07 414.095 1747.22 438.184C1752.84 470.844 1745.16 502.483 1724.1 532.403H1724.09C1705.25 559.228 1678.8 581.498 1640.83 602.617C1607.62 620.907 1570.37 635.488 1526.85 647.098C1467.95 662.136 1403.54 670.473 1345.4 670.622H1344.36C1277.38 670.324 1224.44 665.408 1172.87 654.839H1172.87C1124.41 644.865 1082.39 631.174 1044.41 612.878L1044.41 612.876L1042.59 612.004C1004.63 593.661 976.609 574.146 954.374 550.775C929.264 524.366 915.503 496.837 912.543 466.392V466.391L912.444 465.332C910.469 443.083 915.085 420.832 926.319 399.269L926.32 399.267C937.292 378.096 953.614 358.97 976.368 340.852C1009.4 314.557 1048.99 294.332 1101.17 277.214L1101.17 277.213C1140.22 264.267 1181.21 255.335 1226.09 249.826Z" stroke="white" stroke-width="2"/>
</g>
</g>
<defs>
<linearGradient id="paint0_linear_2113_525" x1="534.019" y1="483.524" x2="1281.74" y2="628.386" gradientUnits="userSpaceOnUse">
<stop stop-color="#0B70A7" stop-opacity="0"/>
<stop offset="1" stop-color="#0B70A7"/>
</linearGradient>
<linearGradient id="paint1_linear_2113_525" x1="656.048" y1="-75.8764" x2="-166.017" y2="-236.035" gradientUnits="userSpaceOnUse">
<stop stop-color="#0B70A7" stop-opacity="0"/>
<stop offset="1" stop-color="#0B70A7"/>
</linearGradient>
<clipPath id="clip0_2113_525">
<rect width="1320" height="431" fill="white"/>
</clipPath>
<clipPath id="clip1_2113_525">
<rect width="914" height="113" fill="white" transform="translate(406 318)"/>
</clipPath>
<clipPath id="clip2_2113_525">
<rect width="914" height="182" fill="white" transform="translate(914 181.622) rotate(-180)"/>
</clipPath>
<clipPath id="clip3_2113_525">
<rect width="409" height="188" fill="white" transform="translate(911 243)"/>
</clipPath>
</defs>
</svg>
