<svg width="321" height="372" viewBox="0 0 321 372" fill="none" xmlns="http://www.w3.org/2000/svg">
<g clip-path="url(#clip0_2113_526)">
<path d="M228.867 607C182.134 607 145.689 603.813 109.797 596.599C79.0481 590.428 49.1134 581.476 20.6319 568.004C-2.38589 557.11 -23.8343 544.044 -41.7079 525.53C-57.2856 509.364 -68.2423 490.735 -70.5963 468.108C-72.2529 451.97 -68.7363 436.731 -61.4125 422.448C-53.1587 406.397 -41.1848 393.534 -27.2637 382.321C-1.57213 361.751 27.7232 348.366 58.7914 337.994C86.9823 328.52 115.871 322.349 145.282 318.641C187.801 313.281 230.407 312.47 273.246 316.699C296.671 318.959 319.892 322.552 342.793 327.912C371.595 334.691 399.437 344.049 425.768 357.637C447.129 368.646 466.95 381.916 482.934 400.11C494.792 413.582 503.482 428.619 506.679 446.495C510.922 470.049 504.731 491.256 491.188 510.581C476.424 531.673 456.313 546.593 434.109 559.022C409.231 572.9 382.813 582.692 355.378 590.08C310.592 601.843 264.992 606.884 228.867 607Z" fill="url(#paint0_linear_2113_526)" style="mix-blend-mode:screen"/>
<path d="M125.331 -202C168.916 -202 202.906 -199.041 236.381 -192.344C265.059 -186.616 292.977 -178.305 319.54 -165.798C341.008 -155.686 361.011 -143.556 377.681 -126.37C392.209 -111.362 402.428 -94.0679 404.624 -73.0624C406.169 -58.0816 402.889 -43.9345 396.058 -30.6749C388.36 -15.7748 377.193 -3.83314 364.21 6.57546C340.249 25.6713 312.927 38.0971 283.951 47.7257C257.659 56.5206 230.716 62.2493 203.286 65.692C163.631 70.6677 123.895 71.4207 83.9416 67.494C62.0948 65.3961 40.4377 62.0611 19.0787 57.0854C-7.78256 50.7918 -33.7494 42.1045 -58.3067 29.4905C-78.229 19.2701 -96.7148 6.95196 -111.623 -9.93848C-122.682 -22.4449 -130.786 -36.4038 -133.768 -52.9983C-137.725 -74.8645 -131.952 -94.5521 -119.321 -112.491C-105.551 -132.071 -86.7943 -145.923 -66.0859 -157.461C-42.8838 -170.344 -18.2451 -179.435 7.34222 -186.293C49.1114 -197.213 91.6395 -201.892 125.331 -202Z" fill="url(#paint1_linear_2113_526)" style="mix-blend-mode:screen"/>
<path d="M329.628 -84C364.605 -88.2844 399.665 -88.6198 433.631 -85.0918H433.636C453.307 -83.2439 472.307 -80.0528 489.959 -75.8535V-75.8525C514.714 -69.9132 536.225 -62.1635 555.565 -52.2246L557.431 -51.2559C577.591 -40.681 592.434 -29.5318 604.083 -16.2188V-16.2178C614.807 -3.91226 621.156 8.70444 623.494 22.3066C626.668 40.7485 622.332 58.6126 610.448 75.5029L610.447 75.5039C599.813 90.6459 584.898 103.214 563.481 115.13C544.753 125.451 523.75 133.679 499.205 140.229C465.998 148.713 429.681 153.416 396.9 153.5H396.314C358.548 153.332 328.703 150.558 299.62 144.596C272.299 138.968 248.602 131.243 227.183 120.92H227.182C205.253 110.427 189.147 99.2742 176.406 85.874C162.464 71.2014 154.722 55.912 152.89 39.04L152.807 38.2354L152.7 37.0391C151.719 24.6748 154.342 12.3154 160.58 0.334961V0.333984C166.77 -11.6179 175.979 -22.4141 188.812 -32.6387C207.44 -47.4775 229.772 -58.8892 259.19 -68.5469L259.191 -68.5479C281.209 -75.8526 304.322 -80.892 329.628 -84Z" stroke="white"/>
</g>
<defs>
<linearGradient id="paint0_linear_2113_526" x1="-35.5398" y1="411.558" x2="468.877" y2="509.493" gradientUnits="userSpaceOnUse">
<stop stop-color="#0B70A7" stop-opacity="0"/>
<stop offset="1" stop-color="#0B70A7"/>
</linearGradient>
<linearGradient id="paint1_linear_2113_526" x1="371.928" y1="-20.5661" x2="-98.3527" y2="-112.298" gradientUnits="userSpaceOnUse">
<stop stop-color="#0B70A7" stop-opacity="0"/>
<stop offset="1" stop-color="#0B70A7"/>
</linearGradient>
<clipPath id="clip0_2113_526">
<rect width="321" height="372" fill="white"/>
</clipPath>
</defs>
</svg>
