<svg width="962" height="717" viewBox="0 0 962 717" fill="none" xmlns="http://www.w3.org/2000/svg">
<path opacity="0.85" d="M379.94 8.33301C448.895 -0.275523 518.013 -0.950423 584.976 6.13867H584.98C623.765 9.85192 661.223 16.2663 696.027 24.7051V24.7041C746.41 37.0245 789.986 53.2245 829.083 74.1436C868.845 95.4016 898.146 117.827 921.148 144.622C941.997 169.004 954.491 194.018 959.289 220.953L959.512 222.237C965.692 258.84 957.468 294.307 934.811 327.854L933.721 329.451C912.713 359.94 883.258 385.227 841.015 409.183C805.227 429.284 765.235 445.432 718.773 458.39L714.257 459.633C648.788 476.679 577.187 486.131 512.553 486.3H511.396C436.957 485.962 378.117 480.391 320.774 468.408C266.909 457.1 220.181 441.575 177.934 420.823L177.933 420.822L175.913 419.833C133.694 399.029 102.506 376.881 77.7422 350.336C49.7744 320.338 34.411 289.025 31.1064 254.364V254.363C28.6286 228.625 33.7478 202.881 46.4775 177.965V177.964C58.7128 153.886 76.907 132.152 102.237 111.584C138.997 81.7379 183.054 58.7939 241.059 39.3857H241.061C284.477 24.7046 330.051 14.5781 379.94 8.33301Z" stroke="#059CD5"/>
<path opacity="0.24" d="M349.94 238.333C418.895 229.724 488.013 229.05 554.976 236.139H554.98C593.765 239.852 631.223 246.266 666.027 254.705V254.704C716.41 267.024 759.986 283.225 799.083 304.144C838.845 325.402 868.146 347.827 891.148 374.622C911.997 399.004 924.491 424.018 929.289 450.953L929.512 452.237C935.692 488.84 927.468 524.307 904.811 557.854L903.721 559.451C882.713 589.94 853.258 615.227 811.015 639.183C775.227 659.284 735.235 675.432 688.773 688.39L684.257 689.633C618.788 706.679 547.187 716.131 482.553 716.3H481.396C406.957 715.962 348.117 710.391 290.774 698.408C236.909 687.1 190.181 671.575 147.934 650.823L147.933 650.822L145.913 649.833C103.694 629.029 72.5056 606.881 47.7422 580.336C19.7744 550.338 4.41097 519.025 1.10645 484.364V484.363C-1.37138 458.625 3.74785 432.881 16.4775 407.965V407.964C28.7128 383.886 46.907 362.152 72.2373 341.584C108.997 311.738 153.054 288.794 211.059 269.386H211.061C254.477 254.705 300.051 244.578 349.94 238.333Z" stroke="#059CD5"/>
</svg>
