<svg width="839" height="430" viewBox="0 0 839 430" fill="none" xmlns="http://www.w3.org/2000/svg">
<path d="M523.913 7.82568C461.879 0.231605 399.697 -0.363277 339.458 5.89014L339.448 5.89111C304.559 9.16651 270.864 14.824 239.558 22.2671V22.2661C194.947 32.963 156.281 46.973 121.557 64.9985L119.906 65.8599C84.1553 84.6018 57.8377 104.358 37.1865 127.946V127.947C18.1755 149.748 6.92621 172.095 2.78223 196.184C-2.84165 228.844 4.84081 260.483 25.9043 290.403H25.9053C44.7548 317.228 71.1965 339.498 109.175 360.617C142.383 378.907 179.627 393.488 223.151 405.098C282.047 420.136 346.461 428.473 404.601 428.622H405.639C472.623 428.324 525.555 423.408 577.133 412.839H577.132C625.587 402.865 667.608 389.174 705.593 370.878L705.595 370.876L707.41 370.004C745.373 351.661 773.391 332.146 795.626 308.775C820.736 282.366 834.497 254.837 837.457 224.392V224.391L837.556 223.332C839.531 201.083 834.915 178.832 823.681 157.269L823.68 157.267C812.708 136.096 796.386 116.97 773.632 98.8521C740.604 72.5572 701.005 52.3317 648.833 35.2144L648.83 35.2134C609.784 22.2666 568.793 13.3345 523.913 7.82568Z" stroke="white" stroke-width="2"/>
</svg>
