<svg width="375" height="792" viewBox="0 0 375 792" fill="none" xmlns="http://www.w3.org/2000/svg">
<g clip-path="url(#clip0_2048_562)">
<path d="M86.8369 -104.746C124.419 -109.342 162.09 -109.701 198.586 -105.917H198.591C219.728 -103.935 240.142 -100.512 259.109 -96.0078V-96.0068C285.708 -89.6361 308.822 -81.3234 329.604 -70.6621L331.608 -69.623C353.271 -58.2797 369.223 -46.3198 381.742 -32.0371V-32.0361C393.268 -18.8341 400.093 -5.29628 402.606 9.2998C406.018 29.0892 401.356 48.2586 388.583 66.3809V66.3818C377.154 82.628 361.124 96.1113 338.11 108.894C318.614 119.619 296.825 128.236 271.505 135.152L269.044 135.816C233.364 144.915 194.342 149.96 159.119 150.05H158.489C117.912 149.87 85.8429 146.896 54.5938 140.5C25.2373 134.464 -0.223766 126.178 -23.2402 115.104L-23.2422 115.104C-46.8046 103.848 -64.112 91.8846 -77.8047 77.5088C-92.7892 61.7673 -101.113 45.3618 -103.082 27.2568L-103.171 26.3936C-104.517 12.6978 -101.737 -1.00521 -94.8154 -14.2744L-94.8145 -14.2754C-88.161 -27.0994 -78.2642 -38.6827 -64.4727 -49.6514C-44.4552 -65.5698 -20.4573 -77.8118 11.1523 -88.1709L11.1533 -88.1719C34.811 -96.0073 59.6466 -101.412 86.8369 -104.746Z" stroke="white" stroke-opacity="0.1"/>
<path d="M410.837 658.572C448.419 653.977 486.09 653.617 522.586 657.401H522.591C543.728 659.383 564.142 662.806 583.109 667.311V667.312C609.708 673.682 632.822 681.995 653.604 692.656L655.608 693.695C677.271 705.039 693.223 716.999 705.742 731.281V731.282C717.268 744.484 724.093 758.022 726.606 772.618C730.018 792.408 725.356 811.577 712.583 829.699V829.7C701.154 845.946 685.124 859.43 662.11 872.212C642.614 882.937 620.825 891.554 595.505 898.471L593.044 899.135C557.364 908.234 518.342 913.278 483.119 913.368H482.489C441.912 913.188 409.843 910.214 378.594 903.818C349.237 897.782 323.776 889.496 300.76 878.423L300.758 878.422C277.195 867.166 259.888 855.203 246.195 840.827C231.211 825.086 222.887 808.68 220.918 790.575L220.829 789.712C219.483 776.016 222.263 762.313 229.185 749.044L229.186 749.043C235.839 736.219 245.736 724.636 259.527 713.667C279.545 697.749 303.543 685.507 335.152 675.147L335.153 675.146C358.811 667.311 383.647 661.906 410.837 658.572Z" stroke="white" stroke-opacity="0.1"/>
<path d="M481.837 462.254C519.419 457.658 557.09 457.299 593.586 461.083H593.591C614.728 463.065 635.142 466.488 654.109 470.992V470.993C680.708 477.364 703.822 485.677 724.604 496.338L726.608 497.377C748.271 508.72 764.223 520.68 776.742 534.963V534.964C788.268 548.166 795.093 561.704 797.606 576.3C801.018 596.089 796.356 615.259 783.583 633.381V633.382C772.154 649.628 756.124 663.111 733.11 675.894C713.614 686.619 691.825 695.236 666.505 702.152L664.044 702.816C628.364 711.915 589.342 716.96 554.119 717.05H553.489C512.912 716.87 480.843 713.896 449.594 707.5C420.237 701.464 394.776 693.178 371.76 682.104L371.758 682.104C348.195 670.848 330.888 658.885 317.195 644.509C302.211 628.767 293.887 612.362 291.918 594.257L291.829 593.394C290.483 579.698 293.263 565.995 300.185 552.726L300.186 552.725C306.839 539.901 316.736 528.317 330.527 517.349C350.545 501.43 374.543 489.188 406.152 478.829L406.153 478.828C429.811 470.993 454.647 465.588 481.837 462.254Z" stroke="white" stroke-opacity="0.1"/>
</g>
<defs>
<clipPath id="clip0_2048_562">
<rect width="375" height="792" fill="white"/>
</clipPath>
</defs>
</svg>
