<svg width="375" height="195" viewBox="0 0 375 195" fill="none" xmlns="http://www.w3.org/2000/svg">
<g clip-path="url(#clip0_2045_377)">
<rect width="375" height="195" fill="#111B51"/>
<path opacity="0.1" d="M-118.852 102.605C-96.1631 99.8098 -73.4201 99.5905 -51.3882 101.893H-51.3833C-38.6238 103.098 -26.301 105.18 -14.8521 107.92V107.921C1.72135 111.921 16.0489 117.178 28.8989 123.964V123.965C41.9699 130.862 51.5852 138.129 59.1284 146.801V146.8C66.0717 154.814 70.1753 163.024 71.687 171.868C73.7386 183.86 70.938 195.479 63.2485 206.473H63.2476C56.3648 216.331 46.707 224.521 32.8228 232.292C20.6815 239.023 7.06292 244.389 -8.85596 248.663C-30.3943 254.198 -53.9503 257.266 -75.2104 257.321H-75.5894C-100.092 257.212 -119.452 255.402 -138.314 251.512C-156.035 247.84 -171.4 242.801 -185.288 236.068L-185.29 236.067C-199.508 229.223 -209.942 221.953 -218.193 213.224C-227.079 203.817 -232.067 194.033 -233.352 183.268L-233.464 182.223C-234.274 173.925 -232.603 165.621 -228.438 157.574L-228.437 157.573C-224.432 149.795 -218.473 142.765 -210.159 136.102C-198.089 126.43 -183.615 118.987 -164.536 112.687L-164.534 112.686C-150.256 107.921 -135.266 104.633 -118.852 102.605Z" stroke="white"/>
<path opacity="0.1" d="M349.523 9.57617C372.286 6.81588 395.103 6.60011 417.208 8.87305H417.212C430.014 10.0635 442.377 12.1192 453.864 14.8242V14.8252C469.972 18.6513 483.966 23.6422 496.546 30.042L497.759 30.666C510.873 37.4758 520.52 44.6502 528.087 53.2119V53.2129C535.053 61.1254 539.169 69.2291 540.685 77.959C542.678 89.4248 540.105 100.545 532.929 111.097L532.22 112.116C525.316 121.849 515.627 129.936 501.697 137.608C489.516 144.254 475.852 149.553 459.88 153.772C438.271 159.237 414.637 162.267 393.307 162.321H392.926C368.343 162.213 348.92 160.426 329.996 156.585H329.997C312.217 152.96 296.801 147.983 282.868 141.336H282.867C269.047 134.789 258.791 127.848 250.637 119.585L249.855 118.781C240.653 109.195 235.619 99.2121 234.536 88.1787V88.1777C233.724 79.9886 235.4 71.7919 239.578 63.8486L239.579 63.8477C243.596 56.1695 249.574 49.2284 257.916 42.6494C270.025 33.0999 284.547 25.7513 303.689 19.5303H303.69C318.015 14.8253 333.055 11.5785 349.523 9.57617Z" stroke="white"/>
<path opacity="0.1" d="M105.684 294.548C87.9631 290.899 72.5976 285.892 58.7104 279.202H58.7095C44.9348 272.614 34.7125 265.628 26.5854 257.312L25.8052 256.503C16.6334 246.855 11.6154 236.807 10.5356 225.701V225.7C9.72646 217.457 11.397 209.206 15.562 201.211V201.21C19.5663 193.482 25.5261 186.496 33.8403 179.875L33.8394 179.874C45.9091 170.263 60.3841 162.869 79.4634 156.608L79.4653 156.607C93.2969 152.02 107.797 148.811 123.613 146.783L125.148 146.591C147.837 143.813 170.58 143.595 192.612 145.883H192.617C205.376 147.081 217.699 149.15 229.148 151.872V151.873C245.722 155.848 260.05 161.071 272.9 167.814V167.815C285.971 174.669 295.586 181.889 303.129 190.506C310.072 198.469 314.175 206.626 315.687 215.413V215.414C317.738 227.328 314.938 238.871 307.249 249.795C300.366 259.591 290.709 267.728 276.825 275.45C264.683 282.138 251.064 287.471 235.145 291.718C213.606 297.217 190.05 300.267 168.79 300.321H168.411C143.907 300.212 124.546 298.413 105.684 294.548Z" stroke="white"/>
</g>
<defs>
<clipPath id="clip0_2045_377">
<rect width="375" height="195" fill="white"/>
</clipPath>
</defs>
</svg>
