<svg width="1440" height="320" viewBox="0 0 1440 320" fill="none" xmlns="http://www.w3.org/2000/svg">
<g clip-path="url(#clip0_2078_403)">
<path d="M1279.32 39.7207C1337.06 32.5006 1394.93 31.9344 1451 37.8799L1451.01 37.8809C1483.48 40.9948 1514.84 46.373 1543.98 53.4492V53.4502C1585.5 63.6201 1621.49 76.9386 1653.81 94.0752L1655.34 94.8945C1688.62 112.712 1713.11 131.493 1732.33 153.915V153.916C1750.02 174.64 1760.49 195.882 1764.34 218.781V218.782C1769.58 249.83 1762.43 279.905 1742.82 308.346L1742.82 308.347C1725.28 333.846 1700.68 355.015 1665.33 375.092C1634.42 392.48 1599.76 406.343 1559.25 417.381C1504.44 431.678 1444.48 439.604 1390.37 439.745H1389.4C1327.06 439.462 1277.79 434.789 1229.78 424.741H1229.78C1184.68 415.258 1145.57 402.241 1110.22 384.848L1110.22 384.846C1074.03 367.165 1047.45 348.379 1026.43 325.81C1003.07 300.706 990.26 274.537 987.505 245.596V245.595C985.44 224.109 989.704 202.61 1000.33 181.788L1000.33 181.786C1010.54 161.662 1025.73 143.481 1046.9 126.259C1077.64 101.262 1114.49 82.0338 1163.05 65.7598L1163.05 65.7588C1199.39 53.4501 1237.54 44.9582 1279.32 39.7207Z" stroke="white" stroke-opacity="0.2" stroke-width="2"/>
<path opacity="0.4" d="M912.316 272.722C970.055 265.502 1027.93 264.935 1084 270.881L1084.01 270.882C1116.48 273.996 1147.84 279.374 1176.98 286.45V286.451C1218.5 296.621 1254.49 309.94 1286.81 327.076L1288.34 327.896C1321.62 345.713 1346.11 364.494 1365.33 386.916V386.917C1383.02 407.641 1393.49 428.883 1397.34 451.782V451.783C1402.58 482.831 1395.43 512.906 1375.82 541.347L1375.82 541.348C1358.28 566.847 1333.68 588.016 1298.33 608.093C1267.42 625.481 1232.76 639.344 1192.25 650.382C1137.44 664.679 1077.48 672.605 1023.37 672.746H1022.4C960.055 672.463 910.788 667.79 862.782 657.742H862.783C817.684 648.259 778.574 635.242 743.223 617.849L743.22 617.847C707.027 600.166 680.453 581.38 659.433 558.811C636.065 533.707 623.26 507.538 620.505 478.597V478.596C618.44 457.11 622.704 435.611 633.325 414.789L633.326 414.787C643.536 394.663 658.725 376.482 679.9 359.26C710.637 334.263 747.49 315.035 796.048 298.761L796.052 298.76C832.392 286.451 870.544 277.959 912.316 272.722Z" stroke="#CCCCCC" stroke-width="2"/>
</g>
<defs>
<clipPath id="clip0_2078_403">
<rect width="1440" height="320" fill="white"/>
</clipPath>
</defs>
</svg>
