<svg width="1320" height="669" viewBox="0 0 1320 669" fill="none" xmlns="http://www.w3.org/2000/svg">
<g clip-path="url(#clip0_2111_381)">
<g clip-path="url(#clip1_2111_381)">
<path d="M925.899 1054.81C856.636 1054.81 802.621 1050.08 749.424 1039.36C703.851 1030.2 659.484 1016.9 617.272 996.89C583.157 980.71 551.368 961.303 524.877 933.805C501.789 909.794 485.55 882.124 482.061 848.516C479.606 824.547 484.818 801.913 495.673 780.698C507.906 756.858 525.652 737.752 546.285 721.098C584.363 690.546 627.782 670.665 673.828 655.26C715.61 641.188 758.426 632.022 802.018 626.514C865.035 618.553 928.182 617.348 991.674 623.631C1026.39 626.988 1060.81 632.324 1094.75 640.284C1137.44 650.354 1178.7 664.253 1217.73 684.435C1249.39 700.787 1278.76 720.496 1302.46 747.52C1320.03 767.53 1332.91 789.864 1337.65 816.414C1343.94 851.399 1334.76 882.899 1314.69 911.601C1292.81 942.928 1263 965.09 1230.09 983.55C1193.22 1004.16 1154.06 1018.71 1113.4 1029.68C1047.02 1047.15 979.441 1054.64 925.899 1054.81Z" fill="url(#paint0_linear_2111_381)" style="mix-blend-mode:screen"/>
</g>
<g clip-path="url(#clip2_2111_381)">
<path d="M225.027 -393.378C301.208 -393.378 360.619 -388.201 419.129 -376.482C469.253 -366.456 518.051 -351.913 564.48 -330.027C602.003 -312.33 636.967 -291.103 666.103 -261.028C691.497 -234.765 709.358 -204.502 713.196 -167.743C715.896 -141.527 710.163 -116.77 698.225 -93.5665C684.77 -67.4918 665.25 -46.5944 642.557 -28.3798C600.676 5.03723 552.92 26.7818 502.275 43.6315C456.319 59.0222 409.227 69.0473 361.282 75.0717C291.97 83.779 222.516 85.0968 152.683 78.2252C114.497 74.554 76.6432 68.7178 39.3104 60.0105C-7.6398 48.997 -53.0266 33.7946 -95.9498 11.7206C-130.772 -6.16459 -163.082 -27.7209 -189.14 -57.2785C-208.469 -79.1643 -222.635 -103.592 -227.846 -132.632C-234.763 -170.896 -224.672 -205.349 -202.595 -236.742C-178.527 -271.006 -145.743 -295.245 -109.547 -315.437C-68.9925 -337.981 -25.9271 -353.89 18.7964 -365.892C91.8038 -385.001 166.138 -393.19 225.027 -393.378Z" fill="url(#paint1_linear_2111_381)" style="mix-blend-mode:screen"/>
</g>
<g clip-path="url(#clip3_2111_381)">
<path opacity="0.49" d="M1226.09 126.174C1288.12 133.768 1350.3 134.363 1410.54 128.11L1410.55 128.109C1445.44 124.834 1479.13 119.177 1510.44 111.734C1555.76 100.867 1594.94 86.5815 1630.09 68.1402C1665.84 49.3984 1692.16 29.6418 1712.81 6.05427L1712.81 6.05329C1731.82 -15.7482 1743.07 -38.0951 1747.22 -62.184C1752.84 -94.8436 1745.16 -126.482 1724.1 -156.402L1724.09 -156.403C1705.25 -183.228 1678.8 -205.498 1640.83 -226.617C1607.62 -244.907 1570.37 -259.488 1526.85 -271.098C1467.95 -286.136 1403.54 -294.473 1345.4 -294.622L1344.36 -294.622C1277.38 -294.324 1224.44 -289.408 1172.87 -278.839L1172.87 -278.839C1124.41 -268.865 1082.39 -255.174 1044.41 -236.878L1044.41 -236.876L1042.59 -236.004C1004.63 -217.661 976.609 -198.146 954.374 -174.775C929.264 -148.366 915.503 -120.837 912.543 -90.3921L912.543 -90.3911L912.444 -89.3315C910.469 -67.0828 915.085 -44.8316 926.319 -23.269L926.32 -23.2671C937.292 -2.09632 953.614 17.0304 976.368 35.148C1009.4 61.4428 1048.99 81.6683 1101.17 98.7857L1101.17 98.7866C1140.22 111.733 1181.21 120.666 1226.09 126.174Z" stroke="white" stroke-width="2"/>
</g>
</g>
<defs>
<linearGradient id="paint0_linear_2111_381" x1="534.019" y1="764.524" x2="1281.74" y2="909.386" gradientUnits="userSpaceOnUse">
<stop stop-color="#0B70A7" stop-opacity="0"/>
<stop offset="1" stop-color="#0B70A7"/>
</linearGradient>
<linearGradient id="paint1_linear_2111_381" x1="656.048" y1="-75.8764" x2="-166.017" y2="-236.035" gradientUnits="userSpaceOnUse">
<stop stop-color="#0B70A7" stop-opacity="0"/>
<stop offset="1" stop-color="#0B70A7"/>
</linearGradient>
<clipPath id="clip0_2111_381">
<rect width="1320" height="669" fill="white"/>
</clipPath>
<clipPath id="clip1_2111_381">
<rect width="914" height="113" fill="white" transform="translate(406 599)"/>
</clipPath>
<clipPath id="clip2_2111_381">
<rect width="650" height="182" fill="white" transform="translate(650 182) rotate(-180)"/>
</clipPath>
<clipPath id="clip3_2111_381">
<rect width="409" height="155" fill="white" transform="matrix(1 8.74228e-08 8.74228e-08 -1 911 155)"/>
</clipPath>
</defs>
</svg>
