<svg width="519" height="587" viewBox="0 0 519 587" fill="none" xmlns="http://www.w3.org/2000/svg">
<g clip-path="url(#clip0_2111_394)">
<path d="M136.854 970.811C62.2629 970.811 4.09259 966.077 -53.1963 955.362C-102.275 946.197 -150.054 932.9 -195.514 912.89C-232.253 896.71 -266.487 877.302 -295.016 849.805C-319.88 825.793 -337.368 798.124 -341.125 764.516C-343.769 740.547 -338.156 717.912 -326.467 696.697C-313.293 672.858 -294.181 653.751 -271.961 637.098C-230.954 606.545 -184.195 586.665 -134.607 571.259C-89.6107 557.188 -43.5013 548.022 3.44318 542.514C71.3085 534.553 139.313 533.348 207.689 539.631C245.077 542.987 282.141 548.323 318.695 556.284C364.665 566.353 409.104 580.253 451.132 600.435C485.227 616.787 516.863 636.496 542.376 663.52C561.303 683.529 575.173 705.863 580.275 732.414C587.048 767.399 577.167 798.898 555.551 827.601C531.986 858.928 499.885 881.089 464.445 899.55C424.737 920.162 382.57 934.707 338.78 945.68C267.297 963.151 194.514 970.639 136.854 970.811Z" fill="url(#paint0_linear_2111_394)" style="mix-blend-mode:screen"/>
<g clip-path="url(#clip1_2111_394)">
<path d="M209.027 -393C285.209 -393 344.619 -387.822 403.129 -376.103C453.254 -366.078 502.052 -351.534 548.481 -329.649C586.003 -311.952 620.967 -290.725 650.104 -260.649C675.498 -234.386 693.359 -204.123 697.196 -167.364C699.896 -141.148 694.164 -116.391 682.225 -93.1878C668.77 -67.1131 649.251 -46.2157 626.557 -28.0011C584.677 5.41589 536.921 27.1605 486.275 44.0102C440.32 59.4008 393.228 69.4259 345.282 75.4504C275.97 84.1576 206.516 85.4755 136.683 78.6038C98.4976 74.9326 60.6437 69.0964 23.3109 60.3892C-23.6393 49.3757 -69.0261 34.1733 -111.949 12.0992C-146.771 -5.78593 -179.082 -27.3423 -205.139 -56.8998C-224.469 -78.7856 -238.634 -103.213 -243.846 -132.253C-250.763 -170.518 -240.672 -204.97 -218.594 -236.363C-194.527 -270.628 -161.742 -294.867 -125.546 -315.058C-84.992 -337.603 -41.9266 -353.511 2.79691 -365.513C75.8043 -384.622 150.138 -392.811 209.027 -393Z" fill="url(#paint1_linear_2111_394)" style="mix-blend-mode:screen"/>
</g>
<path d="M446.128 -83.999C483.801 -88.284 521.564 -88.6204 558.148 -85.0918L558.153 -85.0908C579.342 -83.2426 599.805 -80.0515 618.818 -75.8516V-75.8506C645.482 -69.9102 668.652 -62.1589 689.485 -52.2178L691.494 -51.249C712.532 -41.0019 728.195 -30.2155 740.561 -17.4453L741.746 -16.2041C753.297 -3.89677 760.13 8.71782 762.647 22.3125C766.01 40.4541 761.542 58.0403 749.194 74.6963L748.601 75.4893C737.148 90.6327 721.082 103.204 698.012 115.123C678.469 125.124 656.626 133.159 631.245 139.608L628.777 140.228C593.011 148.712 553.894 153.416 518.585 153.5H517.953C477.278 153.332 445.131 150.559 413.806 144.595C384.378 138.966 358.855 131.239 335.782 120.914H335.781C312.899 110.747 295.903 99.9605 282.386 87.1113L281.089 85.8613C265.832 70.9528 257.474 55.4132 255.676 38.2324V38.2314L255.562 37.0361C254.506 24.6801 257.327 12.3269 264.044 0.348633L264.045 0.347656C270.711 -11.6028 280.628 -22.3998 294.452 -32.627C314.517 -47.4691 338.572 -58.8845 370.259 -68.5439L370.261 -68.5449C393.976 -75.851 418.872 -80.8906 446.128 -83.999Z" stroke="white"/>
</g>
<defs>
<linearGradient id="paint0_linear_2111_394" x1="-285.171" y1="680.523" x2="515.436" y2="847.564" gradientUnits="userSpaceOnUse">
<stop stop-color="#0B70A7" stop-opacity="0"/>
<stop offset="1" stop-color="#0B70A7"/>
</linearGradient>
<linearGradient id="paint1_linear_2111_394" x1="640.049" y1="-75.4977" x2="-182.016" y2="-235.657" gradientUnits="userSpaceOnUse">
<stop stop-color="#0B70A7" stop-opacity="0"/>
<stop offset="1" stop-color="#0B70A7"/>
</linearGradient>
<clipPath id="clip0_2111_394">
<rect width="519" height="587" fill="white"/>
</clipPath>
<clipPath id="clip1_2111_394">
<rect width="914" height="182" fill="white" transform="translate(898 182) rotate(-180)"/>
</clipPath>
</defs>
</svg>
