<svg width="1151" height="191" viewBox="0 0 1151 191" fill="none" xmlns="http://www.w3.org/2000/svg">
<g clip-path="url(#clip0_2078_336)">
<path opacity="0.1" d="M77.2529 -2.91895C135.03 -9.98579 192.945 -10.5402 249.053 -4.7207L249.058 -4.71973C281.554 -1.67154 312.94 3.59233 342.102 10.5195V10.5205C383.657 20.4762 419.685 33.5171 452.045 50.3008L453.583 51.1025C486.897 68.5521 511.442 86.958 530.709 108.946C548.448 129.272 558.962 150.127 562.835 172.622C568.091 203.121 560.904 232.66 541.238 260.571C523.644 285.589 498.973 306.341 463.58 326.005C432.63 343.037 397.924 356.611 357.376 367.417C302.521 381.41 242.527 389.169 188.371 389.308H187.401C125.027 389.03 75.7247 384.456 27.6787 374.62C-17.4551 365.337 -56.6063 352.593 -92.002 335.56L-92.0039 335.559C-128.237 318.246 -154.865 299.837 -175.937 277.708C-199.363 253.091 -212.226 227.401 -214.992 198.972V198.971L-215.085 197.981C-216.931 177.201 -212.615 156.424 -202.122 136.302V136.301C-191.876 116.547 -176.639 98.7128 -155.42 81.832C-124.625 57.3363 -87.714 38.5042 -39.1133 22.5723H-39.1123C-2.73559 10.5209 35.4503 2.20771 77.2529 -2.91895Z" stroke="#059CD5"/>
<path opacity="0.1" d="M1267.25 -241.919C1325.03 -248.986 1382.94 -249.54 1439.05 -243.721L1439.06 -243.72C1471.55 -240.672 1502.94 -235.408 1532.1 -228.48V-228.479C1573.66 -218.524 1609.68 -205.483 1642.04 -188.699L1643.58 -187.897C1676.9 -170.448 1701.44 -152.042 1720.71 -130.054C1738.45 -109.728 1748.96 -88.8728 1752.83 -66.3779C1758.09 -35.879 1750.9 -6.3397 1731.24 21.5713C1713.64 46.5887 1688.97 67.3413 1653.58 87.0049C1622.63 104.037 1587.92 117.611 1547.38 128.417C1492.52 142.41 1432.53 150.169 1378.37 150.308H1377.4C1315.03 150.03 1265.72 145.456 1217.68 135.62C1172.54 126.337 1133.39 113.593 1098 96.5596L1098 96.5586C1061.76 79.2458 1035.14 60.8373 1014.06 38.708C990.637 14.0912 977.774 -11.5986 975.008 -40.0283V-40.0293L974.915 -41.0186C973.069 -61.799 977.385 -82.5762 987.878 -102.698V-102.699C998.124 -122.453 1013.36 -140.287 1034.58 -157.168C1065.37 -181.664 1102.29 -200.496 1150.89 -216.428H1150.89C1187.26 -228.479 1225.45 -236.792 1267.25 -241.919Z" stroke="#059CD5"/>
<path opacity="0.1" d="M697.253 108.081C755.03 101.014 812.945 100.46 869.053 106.279L869.058 106.28C901.554 109.328 932.94 114.592 962.102 121.52V121.521C1003.66 131.476 1039.68 144.517 1072.04 161.301L1073.58 162.103C1106.9 179.552 1131.44 197.958 1150.71 219.946C1168.45 240.272 1178.96 261.127 1182.83 283.622C1188.09 314.121 1180.9 343.66 1161.24 371.571C1143.64 396.589 1118.97 417.341 1083.58 437.005C1052.63 454.037 1017.92 467.611 977.376 478.417C922.521 492.41 862.527 500.169 808.371 500.308H807.401C745.027 500.03 695.725 495.456 647.679 485.62C602.545 476.337 563.394 463.593 527.998 446.56L527.996 446.559C491.763 429.246 465.135 410.837 444.063 388.708C420.637 364.091 407.774 338.401 405.008 309.972V309.971L404.915 308.981C403.069 288.201 407.385 267.424 417.878 247.302V247.301C428.124 227.547 443.361 209.713 464.58 192.832C495.375 168.336 532.286 149.504 580.887 133.572H580.888C617.264 121.521 655.45 113.208 697.253 108.081Z" stroke="#059CD5"/>
</g>
<defs>
<clipPath id="clip0_2078_336">
<rect width="1151" height="190" fill="white" transform="translate(0 0.807617)"/>
</clipPath>
</defs>
</svg>
