<svg width="858" height="502" viewBox="0 0 858 502" fill="none" xmlns="http://www.w3.org/2000/svg">
<g opacity="0.22" filter="url(#filter0_d_2102_444)">
<path d="M426.153 5.46666C476.861 -0.8603 527.69 -1.35611 576.935 3.85436C605.457 6.58366 633.005 11.2979 658.603 17.5008C695.658 26.5571 727.716 38.4662 756.482 53.8495C785.736 69.4808 807.311 85.9808 824.254 105.706C839.856 123.943 849.12 142.676 852.533 162.897C857.165 190.314 850.826 216.863 833.518 241.923C818.037 264.377 796.34 282.986 765.258 300.602C742.107 313.599 716.568 324.343 687.513 333.223C684.826 348.538 678.495 363.478 668.518 377.923C653.037 400.377 631.34 418.986 600.258 436.603C573.076 451.862 542.603 464.02 507.011 473.696L504.75 474.28C457.218 486.442 405.462 493.176 358.667 493.298H357.813C304.794 493.057 262.528 489.208 221.595 480.96L217.638 480.147C178.023 471.836 143.648 460.422 112.565 445.163C81.2487 429.898 58.0822 413.671 39.6933 394.234L38.8212 393.307C18.2213 371.224 6.88501 348.149 4.44715 322.593C2.64734 303.908 6.28079 285.224 15.3475 267.131L15.7831 266.27C24.5213 249.084 37.3776 233.528 55.1278 218.812L56.8612 217.391C83.4985 195.775 115.333 179.089 157.015 164.965L159.007 164.294C162.801 163.011 166.619 161.777 170.461 160.589C172.253 150.366 175.693 140.227 180.783 130.27C189.521 113.084 202.378 97.528 220.128 82.8124L221.861 81.3905C248.499 59.7754 280.333 43.0892 322.015 28.9647L324.007 28.2938C355.943 17.5007 389.464 10.0568 426.153 5.46666ZM169.207 162.026C165.896 163.063 162.603 164.134 159.327 165.241L159.324 165.242C116.745 179.481 84.4356 196.302 57.4911 218.167C38.9295 233.231 25.6202 249.13 16.6747 266.724L16.6737 266.726C7.51388 284.644 3.75208 303.132 5.36219 321.617L5.44227 322.497V322.498C7.85529 347.793 19.0717 370.67 39.5517 392.624C57.9753 412.362 81.2695 428.795 113.004 444.264L113.007 444.266C144.003 459.482 178.295 470.871 217.843 479.169H217.842C259.937 487.96 303.139 492.05 357.818 492.298H358.664C406.114 492.174 458.689 485.238 506.759 472.729C542.28 463.07 572.672 450.943 599.769 435.731C630.758 418.167 652.323 399.652 667.694 377.355L667.695 377.354C677.244 363.529 683.417 349.264 686.231 334.658C681.665 336.037 677.014 337.372 672.272 338.661L672.262 338.664C624.037 351.214 571.296 358.174 523.67 358.298H522.81C468.029 358.049 424.687 353.952 382.433 345.127L382.432 345.126C342.749 336.8 308.294 325.362 277.125 310.06V310.06C245.233 294.514 221.721 277.949 203.09 257.989V257.988C182.37 235.778 170.915 212.505 168.452 186.688L168.369 185.789C167.678 177.849 167.958 169.913 169.207 162.026ZM411.829 140.849C362.662 135.646 311.91 136.141 261.277 142.459C229.221 146.469 199.597 152.66 171.343 161.361C169.983 169.415 169.657 177.516 170.362 185.617L170.442 186.497V186.498C172.855 211.793 184.072 234.67 204.552 256.624C222.975 276.362 246.27 292.795 278.004 308.264L278.007 308.266C309.003 323.482 343.295 334.871 382.843 343.169H382.842C424.937 351.96 468.14 356.05 522.818 356.298H523.664C571.114 356.174 623.689 349.238 671.759 336.728C676.819 335.353 681.774 333.923 686.631 332.445C688.482 321.492 688.454 310.352 686.547 299.064C683.169 279.05 673.999 260.479 658.494 242.356V242.355C641.651 222.747 620.184 206.319 591.011 190.731C562.33 175.394 530.353 163.511 493.366 154.472C467.815 148.28 440.314 143.574 411.839 140.85L411.829 140.849ZM576.829 4.8485C527.662 -0.353742 476.91 0.141214 426.277 6.45885C389.647 11.0417 356.192 18.4718 324.327 29.2411L324.324 29.2421C281.745 43.4811 249.436 60.3024 222.491 82.1669C203.93 97.2307 190.62 113.13 181.675 130.724L181.674 130.725C176.896 140.072 173.586 149.574 171.742 159.149C199.821 150.57 229.242 144.451 261.029 140.475L263.409 140.182C313.398 134.124 363.481 133.722 412.029 138.858C439.706 141.507 466.468 146.021 491.428 151.95L493.838 152.528L493.84 152.529C530.963 161.602 563.102 173.539 591.953 188.968C621.287 204.642 642.97 221.213 660.013 241.055L660.014 241.057C675.713 259.407 685.072 278.303 688.52 298.731C690.408 309.911 690.488 320.946 688.766 331.792C717.122 323.023 742.099 312.458 764.769 299.731C795.758 282.167 817.323 263.652 832.694 241.355L832.695 241.354C849.87 216.488 856.131 190.201 851.547 163.064C848.169 143.05 838.999 124.479 823.494 106.356V106.355C806.651 86.747 785.184 70.3193 756.011 54.7313C727.33 39.3937 695.353 27.5111 658.366 18.4715C632.815 12.2799 605.314 7.57423 576.839 4.84947L576.829 4.8485Z" fill="#059CD5"/>
</g>
<defs>
<filter id="filter0_d_2102_444" x="0" y="0.297852" width="858" height="501" filterUnits="userSpaceOnUse" color-interpolation-filters="sRGB">
<feFlood flood-opacity="0" result="BackgroundImageFix"/>
<feColorMatrix in="SourceAlpha" type="matrix" values="0 0 0 0 0 0 0 0 0 0 0 0 0 0 0 0 0 0 127 0" result="hardAlpha"/>
<feOffset dy="4"/>
<feGaussianBlur stdDeviation="2"/>
<feComposite in2="hardAlpha" operator="out"/>
<feColorMatrix type="matrix" values="0 0 0 0 0 0 0 0 0 0 0 0 0 0 0 0 0 0 0.25 0"/>
<feBlend mode="normal" in2="BackgroundImageFix" result="effect1_dropShadow_2102_444"/>
<feBlend mode="normal" in="SourceGraphic" in2="effect1_dropShadow_2102_444" result="shape"/>
</filter>
</defs>
</svg>
