<svg width="932" height="486" viewBox="0 0 932 486" fill="none" xmlns="http://www.w3.org/2000/svg">
<path opacity="0.85" d="M349.94 7.5332C418.895 -1.07533 488.013 -1.75023 554.976 5.33887H554.98C593.765 9.05212 631.223 15.4665 666.027 23.9053V23.9043C716.41 36.2247 759.986 52.4247 799.083 73.3438C838.845 94.6018 868.146 117.028 891.148 143.822C911.997 168.205 924.491 193.218 929.289 220.153L929.512 221.438C935.692 258.04 927.468 293.507 904.811 327.055L903.721 328.651C882.713 359.141 853.258 384.427 811.015 408.383C775.227 428.484 735.235 444.632 688.773 457.59L684.257 458.833C618.788 475.88 547.187 485.331 482.553 485.5H481.396C406.957 485.162 348.117 479.591 290.774 467.608C236.909 456.3 190.181 440.775 147.934 420.023L147.933 420.022L145.913 419.033C103.694 398.229 72.5056 376.081 47.7422 349.536C19.7744 319.539 4.41097 288.225 1.10645 253.564V253.563C-1.37138 227.826 3.74785 202.081 16.4775 177.165V177.164C28.7128 153.087 46.907 131.353 72.2373 110.784C108.997 80.9381 153.054 57.9941 211.059 38.5859H211.061C254.477 23.9048 300.051 13.7783 349.94 7.5332Z" stroke="#059CD5"/>
</svg>
