<svg width="839" height="429" viewBox="0 0 839 429" fill="none" xmlns="http://www.w3.org/2000/svg">
<path d="M523.913 7.2041C461.879 -0.389977 399.697 -0.984859 339.458 5.26855L339.448 5.26953C304.559 8.54493 270.864 14.2024 239.558 21.6455V21.6445C194.947 32.3414 156.281 46.3515 121.557 64.377L119.906 65.2383C84.1553 83.9802 57.8377 103.736 37.1865 127.324V127.325C18.1755 149.127 6.92621 171.474 2.78223 195.562C-2.84165 228.222 4.84081 259.861 25.9043 289.781H25.9053C44.7548 316.606 71.1965 338.877 109.175 359.995C142.383 378.285 179.627 392.866 223.151 404.477C282.047 419.514 346.461 427.851 404.601 428H405.639C472.623 427.702 525.555 422.786 577.133 412.218H577.132C625.587 402.243 667.608 388.552 705.593 370.257L705.595 370.255L707.41 369.383C745.373 351.04 773.391 331.525 795.626 308.153C820.736 281.744 834.497 254.215 837.457 223.771V223.77L837.556 222.71C839.531 200.461 834.915 178.21 823.681 156.647L823.68 156.646C812.708 135.475 796.386 116.348 773.632 98.2305C740.604 71.9356 701.005 51.7102 648.833 34.5928L648.83 34.5918C609.784 21.6451 568.793 12.7129 523.913 7.2041Z" stroke="black" stroke-width="2"/>
</svg>
