<svg width="1440" height="660" viewBox="0 0 1440 660" fill="none" xmlns="http://www.w3.org/2000/svg">
<g clip-path="url(#clip0_2048_509)">
<path d="M1142.12 248.01C1221.36 238.32 1300.8 237.56 1377.75 245.54L1377.76 245.541C1422.33 249.721 1465.38 256.939 1505.38 266.438V266.438C1563.28 280.307 1613.36 298.541 1658.3 322.09C1704 346.019 1737.68 371.265 1764.12 401.43V401.431C1788.46 429.317 1802.9 457.938 1808.21 488.816C1815.32 530.027 1805.87 569.96 1779.82 607.73L1778.57 609.527C1754.42 643.854 1720.56 672.32 1672.01 699.287C1630.22 722.28 1583.43 740.676 1528.93 755.38L1526.33 756.077C1451.09 775.265 1368.8 785.904 1294.52 786.094H1293.19C1208.98 785.72 1142.14 779.638 1077.21 766.582L1074.12 765.955C1012.22 753.226 958.515 735.75 909.96 712.391L909.959 712.39L907.639 711.275C859.887 688.229 824.41 663.716 796.166 634.46L794.805 633.041C762.657 599.269 744.996 564.014 741.197 524.989L741.196 524.988C738.348 496.009 744.233 467.024 758.866 438.971L758.867 438.97C772.932 411.861 793.845 387.393 822.96 364.237C865.211 330.638 915.848 304.811 982.51 282.965L982.511 282.964C1032.41 266.438 1084.78 255.039 1142.12 248.01Z" stroke="white" stroke-opacity="0.2"/>
<path d="M919.12 510.01C998.365 500.32 1077.8 499.56 1154.75 507.54L1154.76 507.541C1199.33 511.721 1242.38 518.939 1282.38 528.438V528.438C1340.28 542.307 1390.36 560.541 1435.3 584.09C1481 608.019 1514.68 633.265 1541.12 663.43V663.431C1565.46 691.317 1579.9 719.938 1585.21 750.816C1592.32 792.027 1582.87 831.96 1556.82 869.73L1555.57 871.527C1531.42 905.854 1497.56 934.32 1449.01 961.287C1407.22 984.28 1360.43 1002.68 1305.93 1017.38L1303.33 1018.08C1228.09 1037.27 1145.8 1047.9 1071.52 1048.09H1070.19C985.983 1047.72 919.141 1041.64 854.213 1028.58L851.123 1027.96C789.218 1015.23 735.515 997.75 686.96 974.391L686.959 974.39L684.639 973.275C636.887 950.229 601.41 925.716 573.166 896.46L571.805 895.041C539.657 861.269 521.996 826.014 518.197 786.989L518.196 786.988C515.348 758.009 521.233 729.024 535.866 700.971L535.867 700.97C549.932 673.861 570.845 649.393 599.96 626.237C642.211 592.638 692.848 566.811 759.51 544.965L759.511 544.964C809.408 528.438 861.785 517.039 919.12 510.01Z" stroke="white" stroke-opacity="0.2"/>
</g>
<defs>
<clipPath id="clip0_2048_509">
<rect width="1440" height="660" fill="white"/>
</clipPath>
</defs>
</svg>
