<svg width="1151" height="190" viewBox="0 0 1151 190" fill="none" xmlns="http://www.w3.org/2000/svg">
<g clip-path="url(#clip0_2045_352)">
<rect width="1151" height="190" fill="#111B51"/>
<path d="M77.2529 -3.72656C135.03 -10.7934 192.945 -11.3478 249.053 -5.52832L249.058 -5.52734C281.554 -2.47916 312.94 2.78471 342.102 9.71191V9.71289C383.657 19.6686 419.685 32.7095 452.045 49.4932L453.583 50.2949C486.897 67.7444 511.442 86.1504 530.709 108.139C548.448 128.464 558.962 149.32 562.835 171.814C568.091 202.313 560.904 231.853 541.238 259.764C523.644 284.781 498.973 305.534 463.58 325.197C432.63 342.229 397.924 355.803 357.376 366.609C302.521 380.603 242.527 388.361 188.371 388.5H187.401C125.027 388.223 75.7247 383.649 27.6787 373.812C-17.4551 364.53 -56.6063 351.786 -92.002 334.752L-92.0039 334.751C-128.237 317.438 -154.865 299.03 -175.937 276.9C-199.363 252.284 -212.226 226.594 -214.992 198.164V198.163L-215.085 197.174C-216.931 176.393 -212.615 155.616 -202.122 135.494V135.493C-191.876 115.739 -176.639 97.9052 -155.42 81.0244C-124.625 56.5287 -87.714 37.6965 -39.1133 21.7646H-39.1123C-2.73559 9.71328 35.4503 1.40009 77.2529 -3.72656Z" stroke="white" stroke-opacity="0.2"/>
<path d="M1267.25 -242.727C1325.03 -249.793 1382.94 -250.348 1439.05 -244.528L1439.06 -244.527C1471.55 -241.479 1502.94 -236.215 1532.1 -229.288V-229.287C1573.66 -219.331 1609.68 -206.291 1642.04 -189.507L1643.58 -188.705C1676.9 -171.256 1701.44 -152.85 1720.71 -130.861C1738.45 -110.536 1748.96 -89.6805 1752.83 -67.1855C1758.09 -36.6867 1750.9 -7.14732 1731.24 20.7637C1713.64 45.7811 1688.97 66.5337 1653.58 86.1973C1622.63 103.229 1587.92 116.803 1547.38 127.609C1492.52 141.603 1432.53 149.361 1378.37 149.5H1377.4C1315.03 149.223 1265.72 144.649 1217.68 134.812C1172.54 125.53 1133.39 112.786 1098 95.752L1098 95.751C1061.76 78.4382 1035.14 60.0297 1014.06 37.9004C990.637 13.2835 977.774 -12.4063 975.008 -40.8359V-40.8369L974.915 -41.8262C973.069 -62.6067 977.385 -83.3839 987.878 -103.506V-103.507C998.124 -123.261 1013.36 -141.095 1034.58 -157.976C1065.37 -182.471 1102.29 -201.303 1150.89 -217.235H1150.89C1187.26 -229.287 1225.45 -237.6 1267.25 -242.727Z" stroke="white" stroke-opacity="0.2"/>
<path d="M697.253 107.273C755.03 100.207 812.945 99.6522 869.053 105.472L869.058 105.473C901.554 108.521 932.94 113.785 962.102 120.712V120.713C1003.66 130.669 1039.68 143.709 1072.04 160.493L1073.58 161.295C1106.9 178.744 1131.44 197.15 1150.71 219.139C1168.45 239.464 1178.96 260.32 1182.83 282.814C1188.09 313.313 1180.9 342.853 1161.24 370.764C1143.64 395.781 1118.97 416.534 1083.58 436.197C1052.63 453.229 1017.92 466.803 977.376 477.609C922.521 491.603 862.527 499.361 808.371 499.5H807.401C745.027 499.223 695.725 494.649 647.679 484.812C602.545 475.53 563.394 462.786 527.998 445.752L527.996 445.751C491.763 428.438 465.135 410.03 444.063 387.9C420.637 363.284 407.774 337.594 405.008 309.164V309.163L404.915 308.174C403.069 287.393 407.385 266.616 417.878 246.494V246.493C428.124 226.739 443.361 208.905 464.58 192.024C495.375 167.529 532.286 148.697 580.887 132.765H580.888C617.264 120.713 655.45 112.4 697.253 107.273Z" stroke="white" stroke-opacity="0.2"/>
</g>
<defs>
<clipPath id="clip0_2045_352">
<rect width="1151" height="190" fill="white"/>
</clipPath>
</defs>
</svg>
