<svg width="266" height="335" viewBox="0 0 266 335" fill="none" xmlns="http://www.w3.org/2000/svg">
<g clip-path="url(#clip0_2107_410)">
<path d="M168.184 472.408C206.377 477.09 244.66 477.457 281.746 473.602L281.756 473.601C303.234 471.581 323.977 468.094 343.249 463.506C371.145 456.807 395.257 448.003 416.881 436.642L416.882 436.642C438.878 425.094 455.051 412.93 467.736 398.421L467.736 398.42C479.412 385.012 486.307 371.286 488.847 356.503L488.847 356.502C492.293 336.46 487.59 317.039 474.664 298.652L474.663 298.651C463.092 282.16 446.851 268.455 423.486 255.444C403.058 244.177 380.142 235.191 353.352 228.034C317.093 218.763 277.437 213.623 241.648 213.531L241.012 213.531C199.76 213.715 167.172 216.747 135.423 223.262C105.594 229.411 79.7345 237.85 56.3643 249.122L56.3614 249.123L54.1368 250.2C31.3384 261.347 14.4455 273.21 1.00199 287.36C-14.4226 303.606 -22.853 320.516 -24.667 339.199L-24.667 339.2L-24.7822 340.5C-25.847 353.934 -23.0023 367.368 -16.2207 380.402L-16.2197 380.404C-9.48901 393.411 0.529691 405.172 14.5156 416.324C34.8209 432.513 59.1753 444.974 91.2891 455.525L91.292 455.526C114.572 463.257 138.978 468.666 165.601 472.084L168.184 472.408Z" stroke="black" stroke-width="2"/>
<path d="M-31.8164 132.408C6.37682 137.09 44.6597 137.457 81.7461 133.602L81.7559 133.601C103.234 131.581 123.977 128.094 143.249 123.506C171.145 116.807 195.257 108.003 216.881 96.6417L216.882 96.6417C238.878 85.0939 255.051 72.9304 267.736 58.421L267.736 58.42C279.412 45.0115 286.307 31.2857 288.847 16.503L288.847 16.502C292.293 -3.54021 287.59 -22.9607 274.664 -41.3476L274.663 -41.3485C263.092 -57.8395 246.851 -71.5447 223.486 -84.5556C203.058 -95.8231 180.142 -104.809 153.352 -111.966C117.093 -121.237 77.4372 -126.377 41.6485 -126.469L41.0118 -126.469C-0.240286 -126.285 -32.8284 -123.253 -64.5771 -116.738C-94.406 -110.589 -120.266 -102.15 -143.636 -90.8779L-143.639 -90.8769L-145.863 -89.7998C-168.662 -78.653 -185.555 -66.7904 -198.998 -52.6396C-214.423 -36.3936 -222.853 -19.4842 -224.667 -0.800781L-224.667 -0.799804L-224.782 0.5C-225.847 13.9337 -223.002 27.3677 -216.221 40.4023L-216.22 40.4043C-209.489 53.4106 -199.47 65.1723 -185.484 76.3242C-165.179 92.5132 -140.825 104.974 -108.711 115.525L-108.708 115.526C-85.4281 123.257 -61.022 128.666 -34.3994 132.084L-31.8164 132.408Z" stroke="black" stroke-width="2"/>
</g>
<defs>
<clipPath id="clip0_2107_410">
<rect width="266" height="334" fill="white" transform="translate(0 0.899902)"/>
</clipPath>
</defs>
</svg>
