<svg width="200" height="100" viewBox="0 0 200 100" fill="none" xmlns="http://www.w3.org/2000/svg">
<path d="M73.5678 30H83.4906V69.1006H73.5678V63.8187H55.8092L65.7745 54.2541H73.5678V43.8901L46 70V56.2098L73.5678 30Z" fill="#CCCCCC"/>
<path d="M94.3499 40.2927H86.2017V30.0571H121.79L111.087 40.2927H105.039V69.1435H94.3499V40.2927Z" fill="#CCCCCC"/>
<path d="M124.275 39.4647H144.148L154 30.0571H124.275L114.409 39.4647V69.1435H137.036C138.456 69.1292 139.79 68.7866 141.025 68.1299C142.275 67.459 143.368 66.5596 144.305 65.4033C145.256 64.2613 145.994 62.9622 146.533 61.5061C147.059 60.0357 147.342 58.494 147.342 56.8951C147.342 55.0821 147.073 53.4262 146.533 51.9558C146.008 50.4854 145.27 49.2291 144.333 48.187C143.382 47.1306 142.289 46.3169 141.025 45.7602C139.776 45.1892 138.442 44.9037 136.98 44.9037H126.418V54.297H135.035C135.816 54.3112 136.412 54.5682 136.838 55.0536C137.264 55.5389 137.491 56.1813 137.491 56.995C137.491 57.5232 137.391 57.9943 137.193 58.4083C137.008 58.8223 136.724 59.1364 136.355 59.379C135.986 59.6217 135.546 59.7359 135.035 59.7359H124.275V39.4647Z" fill="#CCCCCC"/>
</svg>
